junicode_italic.sfdir

StartChar: quotedbl
Encoding: 34 34 2
Width: 758
GlyphClass: 2
Flags: W
LayerCount: 2
Back
SplineSet
946 1397 m 0,0,1
 866 1223 866 1223 754 944 c 1,2,-1
 686 944 l 1,3,4
 699 999 699 999 725 1186 c 0,5,6
 750 1373 750 1373 756 1395 c 0,7,8
 780 1481 780 1481 874 1481 c 0,9,10
 951 1481 951 1481 951 1427 c 0,11,12
 951 1415 951 1415 946 1397 c 0,0,1
618 1397 m 0,13,14
 545 1234 545 1234 428 944 c 1,15,-1
 358 944 l 1,16,17
 371 999 371 999 397 1186 c 0,18,19
 422 1373 422 1373 428 1395 c 0,20,21
 452 1481 452 1481 549 1481 c 0,22,23
 623 1481 623 1481 623 1427 c 0,24,25
 623 1415 623 1415 618 1397 c 0,13,14
EndSplineSet
Fore
SplineSet
428 944 m 1,0,-1
 358 944 l 1,1,2
 371 999 371 999 397 1186 c 0,3,4
 422 1373 422 1373 428 1395 c 0,5,6
 452 1481 452 1481 549 1481 c 0,7,8
 623 1481 623 1481 623 1427 c 0,9,10
 623 1408 623 1408 618 1397 c 0,11,12
 548 1240 548 1240 428 944 c 1,0,-1
754 944 m 1,13,-1
 686 944 l 1,14,15
 699 999 699 999 725 1186 c 0,16,17
 750 1373 750 1373 756 1395 c 0,18,19
 780 1481 780 1481 866 1481 c 256,20,21
 952 1481 952 1481 951 1427 c 0,22,23
 951 1415 951 1415 946 1397 c 0,24,25
 866 1223 866 1223 754 944 c 1,13,-1
EndSplineSet
Comment: "last+AD0A-25" 
Colour: ffffff
EndChar

StartChar: numbersign
Encoding: 35 35 3
Width: 1024
GlyphClass: 2
Flags: W
LayerCount: 2
Fore
SplineSet
664 6 m 1,0,-1
 575 6 l 1,1,-1
 733 401 l 1,2,-1
 500 401 l 1,3,-1
 338 6 l 1,4,-1
 252 6 l 1,5,-1
 410 401 l 1,6,-1
 186 401 l 1,7,-1
 229 500 l 1,8,-1
 446 500 l 1,9,-1
 582 836 l 1,10,-1
 358 836 l 1,11,-1
 406 936 l 1,12,-1
 623 936 l 1,13,-1
 766 1290 l 1,14,-1
 862 1290 l 1,15,-1
 717 936 l 1,16,-1
 948 936 l 1,17,-1
 1090 1290 l 1,18,-1
 1188 1290 l 1,19,-1
 1042 936 l 1,20,-1
 1247 936 l 1,21,-1
 1206 836 l 1,22,-1
 1001 836 l 1,23,-1
 862 500 l 1,24,-1
 1063 500 l 1,25,-1
 1020 401 l 1,26,-1
 825 401 l 1,27,-1
 664 6 l 1,0,-1
770 500 m 1,28,-1
 907 836 l 1,29,-1
 676 836 l 1,30,-1
 537 500 l 1,31,-1
 770 500 l 1,28,-1
EndSplineSet
Comment: "last+AD0A-31" 
Colour: ffffff
EndChar

StartChar: dollar
Encoding: 36 36 4
Width: 926
GlyphClass: 2
Flags: W
LayerCount: 2
Fore
SplineSet
877 490 m 0,0,1
 877 310 877 310 737 160 c 128,-1,2
 597 10 597 10 414 -3 c 1,3,-1
 358 -195 l 2,4,5
 353 -211 353 -211 314.5 -211 c 128,-1,6
 276 -211 276 -211 281 -195 c 2,7,-1
 336 -3 l 1,8,9
 211 3 211 3 60 88 c 1,10,11
 60 242 60 242 92 357 c 256,12,13
 98 376 98 376 129.5 376 c 0,14,15
 160 376 160 376 158 360 c 0,16,17
 152 325 152 325 152 307 c 0,18,19
 152 109 152 109 358 71 c 1,20,-1
 513 605 l 1,21,22
 364 675 364 675 315.5 735 c 128,-1,23
 267 795 267 795 267 887 c 0,24,25
 267 1060 267 1060 404 1182 c 128,-1,26
 541 1304 541 1304 718 1312 c 1,27,-1
 768 1483 l 2,28,29
 773 1498 773 1498 811.5 1498 c 128,-1,30
 850 1498 850 1498 846 1483 c 2,31,-1
 796 1310 l 1,32,33
 827 1310 827 1310 910.5 1292.5 c 128,-1,34
 994 1275 994 1275 1010 1275 c 1,35,36
 1007 1171 1007 1171 976 1029 c 0,37,38
 972 1011 972 1011 941 1011 c 128,-1,39
 910 1011 910 1011 910 1027 c 2,40,-1
 909 1083 l 2,41,42
 907 1214 907 1214 776 1243 c 1,43,-1
 635 756 l 1,44,45
 769 706 769 706 823 646.5 c 128,-1,46
 877 587 877 587 877 490 c 0,0,1
565 782 m 1,47,48
 691 1216 691 1216 700 1250 c 1,49,50
 577 1250 577 1250 492.5 1162 c 128,-1,51
 408 1074 408 1074 408 950 c 0,52,53
 408 843 408 843 565 782 c 1,47,48
433 65 m 1,54,55
 547 67 547 67 632.5 166.5 c 128,-1,56
 718 266 718 266 718 382 c 256,57,58
 718 498 718 498 581 572 c 1,59,-1
 433 65 l 1,54,55
EndSplineSet
Substitution2: "'onum' Oldstyle Figures in Latin lookup 5" dollar.oldstyle
Comment: "last+AD0A-58" 
Colour: ffffff
EndChar

StartChar: percent
Encoding: 37 37 5
Width: 1923
GlyphClass: 2
Flags: W
LayerCount: 2
Fore
SplineSet
1842 519 m 0,0,1
 1842 338 1842 338 1699 148.5 c 128,-1,2
 1556 -41 1556 -41 1379 -41 c 256,3,4
 1235 -41 1235 -41 1169.5 39.5 c 128,-1,5
 1104 120 1104 120 1104 247 c 0,6,7
 1104 413 1104 413 1266 585 c 128,-1,8
 1428 757 1428 757 1592 757 c 256,9,10
 1720 757 1720 757 1781 692 c 128,-1,11
 1842 627 1842 627 1842 519 c 0,0,1
520 -120 m 2,12,13
 512 -130 512 -130 463.5 -130 c 128,-1,14
 415 -130 415 -130 421 -120 c 2,15,-1
 1444 1187 l 1,16,-1
 1439 1191 l 1,17,18
 1294 1111 1294 1111 1171 1111 c 0,19,20
 1096 1111 1096 1111 1026 1133 c 1,21,-1
 1026 1119 l 2,22,23
 1026 939 1026 939 883 749.5 c 128,-1,24
 740 560 740 560 564 560 c 256,25,26
 415 560 415 560 351.5 642 c 128,-1,27
 288 724 288 724 288 848 c 0,28,29
 288 1014 288 1014 450 1185.5 c 128,-1,30
 612 1357 612 1357 783 1357 c 0,31,32
 979 1357 979 1357 1018 1191 c 1,33,34
 1093 1165 1093 1165 1158 1165 c 0,35,36
 1426 1165 1426 1165 1646 1421 c 1,37,38
 1654 1430 1654 1430 1689 1430 c 128,-1,39
 1724 1430 1724 1430 1721 1421 c 1,40,-1
 520 -120 l 2,12,13
1762 535 m 256,41,42
 1762 696 1762 696 1631 696 c 0,43,44
 1516 696 1516 696 1377 494 c 128,-1,45
 1238 292 1238 292 1238 169 c 0,46,47
 1238 18 1238 18 1373 18 c 0,48,49
 1517 18 1517 18 1639.5 196 c 128,-1,50
 1762 374 1762 374 1762 535 c 256,41,42
946 1128 m 0,51,52
 946 1147 946 1147 944 1167 c 1,53,54
 854 1216 854 1216 819 1296 c 1,55,56
 734 1296 734 1296 643 1198.5 c 128,-1,57
 552 1101 552 1101 487 980 c 128,-1,58
 422 859 422 859 422 770 c 0,59,60
 422 619 422 619 558 619 c 0,61,62
 703 619 703 619 824.5 797 c 128,-1,63
 946 975 946 975 946 1128 c 0,51,52
EndSplineSet
Comment: "last+AD0A-63" 
Colour: ffffff
EndChar

StartChar: ampersand
Encoding: 38 38 6
Width: 1577
GlyphClass: 2
Flags: W
LayerCount: 2
Fore
SplineSet
1739 829 m 0,0,1
 1739 740 1739 740 1685 725 c 0,2,3
 1659 719 1659 719 1597 700 c 128,-1,4
 1535 681 1535 681 1481 657 c 0,5,6
 1476 655 1476 655 1466 655 c 128,-1,7
 1456 655 1456 655 1444 672 c 0,8,9
 1381 759 1381 759 1303 819 c 1,10,11
 1303 733 1303 733 1294.5 639 c 128,-1,12
 1286 545 1286 545 1213.5 383.5 c 128,-1,13
 1141 222 1141 222 973.5 96.5 c 128,-1,14
 806 -29 806 -29 584 -29 c 256,15,16
 381 -29 381 -29 261.5 83.5 c 128,-1,17
 142 196 142 196 142 385 c 0,18,19
 142 486 142 486 188.5 611 c 128,-1,20
 235 736 235 736 372.5 863.5 c 128,-1,21
 510 991 510 991 643 991 c 0,22,23
 696 991 696 991 720 974 c 128,-1,24
 744 957 744 957 772 909 c 1,25,26
 892 1006 892 1006 1013.5 1146 c 128,-1,27
 1135 1286 1135 1286 1135 1380 c 0,28,29
 1135 1412 1135 1412 1111.5 1439.5 c 128,-1,30
 1088 1467 1088 1467 1088 1487 c 0,31,32
 1088 1529 1088 1529 1114.5 1551 c 128,-1,33
 1141 1573 1141 1573 1170 1573 c 0,34,35
 1264 1573 1264 1573 1264 1462 c 0,36,37
 1264 1141 1264 1141 279 459 c 1,38,-1
 279 442 l 2,39,40
 279 268 279 268 386 178 c 0,41,42
 494 88 494 88 634 88 c 256,43,44
 774 88 774 88 923.5 184.5 c 128,-1,45
 1073 281 1073 281 1157.5 460 c 128,-1,46
 1242 639 1242 639 1250 844 c 1,47,48
 1210 879 1210 879 1146 879 c 256,49,50
 1082 879 1082 879 1038 835 c 128,-1,51
 994 791 994 791 994 759.5 c 128,-1,52
 994 728 994 728 1009 684 c 128,-1,53
 1024 640 1024 640 1024 621 c 0,54,55
 1024 563 1024 563 957 563 c 0,56,57
 869 563 869 563 869 645 c 0,58,59
 869 753 869 753 986 858 c 128,-1,60
 1103 963 1103 963 1211 963 c 0,61,62
 1265 963 1265 963 1318.5 935.5 c 128,-1,63
 1372 908 1372 908 1452 828 c 128,-1,64
 1532 748 1532 748 1576 748 c 256,65,66
 1614 748 1614 748 1614 811 c 0,67,68
 1614 829 1614 829 1598 892 c 1,69,70
 1598 919 1598 919 1620.5 932.5 c 128,-1,71
 1643 946 1643 946 1663 946 c 0,72,73
 1739 946 1739 946 1739 829 c 0,0,1
619 840 m 0,74,75
 619 903 619 903 551 903 c 0,76,77
 513 903 513 903 445.5 848.5 c 128,-1,78
 378 794 378 794 336.5 702 c 128,-1,79
 295 610 295 610 283 539 c 1,80,81
 503 690 503 690 617 791 c 1,82,83
 619 815 619 815 619 840 c 0,74,75
EndSplineSet
Substitution2: "'ss02' Style Set 2 in Latin lookup 10" uni204A
Comment: "last+AD0A-82" 
Colour: ffffff
EndChar

StartChar: parenleft
Encoding: 40 40 8
Width: 676
GlyphClass: 2
Flags: W
LayerCount: 2
Fore
SplineSet
270 188 m 0,0,1
 270 -79 270 -79 412 -287 c 0,2,3
 419 -298 419 -298 419 -314.5 c 128,-1,4
 419 -331 419 -331 401 -343.5 c 128,-1,5
 383 -356 383 -356 364.5 -354.5 c 128,-1,6
 346 -353 346 -353 334 -338 c 0,7,8
 134 -87 134 -87 134 211 c 0,9,10
 134 381 134 381 196.5 599.5 c 128,-1,11
 259 818 259 818 437.5 1077 c 128,-1,12
 616 1336 616 1336 864 1516 c 0,13,14
 883 1530 883 1530 903.5 1530 c 128,-1,15
 924 1530 924 1530 932 1520 c 128,-1,16
 940 1510 940 1510 938 1496.5 c 152,-1,17
 936 1483 936 1483 911 1464 c 0,18,19
 718 1314 718 1314 568 1096 c 128,-1,20
 418 878 418 878 344 624 c 128,-1,21
 270 370 270 370 270 188 c 0,0,1
EndSplineSet
Substitution2: "'subs' Subscript lookup 29-1" uni208D
Substitution2: "'sups' superscripts subtable" uni207D
Substitution2: "'ss18' Style Set 18 lookup 25-1" parenleft.alt1
Substitution2: "'ss16' Upright brackets-1" parenleft.alt
Comment: "last+AD0A-21" 
Colour: ffffff
EndChar

StartChar: zero
Encoding: 48 48 16
Width: 956
GlyphClass: 2
Flags: W
LayerCount: 2
Fore
SplineSet
1026 977 m 0,0,1
 1026 824 1026 824 967.5 608 c 128,-1,2
 909 392 909 392 753.5 188 c 128,-1,3
 598 -16 598 -16 391 -16 c 0,4,5
 118 -16 118 -16 118 338 c 0,6,7
 118 487 118 487 179.5 714.5 c 128,-1,8
 241 942 241 942 394.5 1137.5 c 128,-1,9
 548 1333 548 1333 754 1333 c 0,10,11
 1026 1333 1026 1333 1026 977 c 0,0,1
873 1094 m 256,12,13
 873 1268 873 1268 739 1268 c 0,14,15
 610 1268 610 1268 506.5 1086 c 128,-1,16
 403 904 403 904 337.5 658 c 128,-1,17
 272 412 272 412 272 281 c 0,18,19
 272 51 272 51 406 51 c 256,20,21
 540 51 540 51 636.5 223 c 128,-1,22
 733 395 733 395 803 657.5 c 128,-1,23
 873 920 873 920 873 1094 c 256,12,13
EndSplineSet
Substitution2: "'subs' Subscript lookup 29-1" uni2080
Substitution2: "'sups' superscripts subtable" uni2070
Substitution2: "'onum' Oldstyle Figures in Latin lookup 5" zero.oldstyle
Comment: "last+AD0A-23" 
Colour: ffffff
EndChar

StartChar: one
Encoding: 49 49 17
Width: 956
GlyphClass: 2
Flags: W
LayerCount: 2
Back
SplineSet
525 87 m 2,18,-1
 768 1149 l 2,19,20
EndSplineSet
Fore
SplineSet
566 262 m 18,0,1
 539 162 539 162 539 118 c 128,-1,2
 539 74 539 74 570.5 61.5 c 128,-1,3
 602 49 602 49 687 49 c 0,4,5
 697 49 697 49 697 34 c 128,-1,6
 697 19 697 19 692.5 5.5 c 128,-1,7
 688 -8 688 -8 672 -8 c 1,8,9
 587 0 587 0 408.5 0 c 128,-1,10
 230 0 230 0 145 -8 c 1,11,12
 135 -8 135 -8 135 7 c 128,-1,13
 135 22 135 22 140 35.5 c 128,-1,14
 145 49 145 49 161 49 c 0,15,16
 287 49 287 49 330.5 83 c 128,-1,17
 374 117 374 117 412 260 c 2,18,-1
 645 1131 l 2,19,20
 650 1149 650 1149 650 1158 c 0,21,22
 650 1176 650 1176 637.5 1176 c 128,-1,23
 625 1176 625 1176 610 1169 c 2,24,-1
 468 1112 l 2,25,26
 454 1106 454 1106 450.5 1128.5 c 128,-1,27
 447 1151 447 1151 460 1157 c 0,28,29
 621 1227 621 1227 837 1366 c 0,30,31
 851 1374 851 1374 860.5 1374 c 128,-1,32
 870 1374 870 1374 870 1364 c 1,33,34
 835 1266 835 1266 814 1188 c 2,35,-1
 566 262 l 18,0,1
EndSplineSet
Substitution2: "'subs' Subscript lookup 29-1" uni2081
Substitution2: "'sups' superscripts subtable" uni00B9
Substitution2: "'onum' Oldstyle Figures in Latin lookup 5" one.oldstyle
Comment: "last+AD0A-35" 
Colour: ffffff
EndChar

StartChar: three
Encoding: 51 51 19
Width: 956
GlyphClass: 2
Flags: W
LayerCount: 2
Fore
SplineSet
864 524 m 0,0,1
 864 312 864 312 681.5 144.5 c 128,-1,2
 499 -23 499 -23 271.5 -23 c 128,-1,3
 44 -23 44 -23 44 102 c 0,4,5
 44 149 44 149 81.5 175 c 128,-1,6
 119 201 119 201 151 201 c 256,7,8
 183 201 183 201 230.5 127 c 128,-1,9
 278 53 278 53 356 53 c 0,10,11
 483 53 483 53 584 199.5 c 128,-1,12
 685 346 685 346 685 483 c 0,13,14
 685 690 685 690 470 690 c 0,15,16
 404 690 404 690 353 674 c 0,17,18
 345 674 345 674 345 696.5 c 128,-1,19
 345 719 345 719 356 736.5 c 128,-1,20
 367 754 367 754 374 754 c 0,21,22
 538 754 538 754 669.5 845 c 128,-1,23
 801 936 801 936 801 1085 c 0,24,25
 801 1156 801 1156 760.5 1191.5 c 128,-1,26
 720 1227 720 1227 659 1227 c 0,27,28
 540 1227 540 1227 415 1090 c 0,29,30
 412 1087 412 1087 401 1087 c 128,-1,31
 390 1087 390 1087 380.5 1101.5 c 128,-1,32
 371 1116 371 1116 371 1121 c 128,-1,33
 371 1126 371 1126 374 1131 c 0,34,35
 564 1333 564 1333 754 1333 c 0,36,37
 851 1333 851 1333 906.5 1276.5 c 128,-1,38
 962 1220 962 1220 962 1133 c 0,39,40
 962 909 962 909 697 782 c 0,41,42
 657 763 657 763 657 755.5 c 128,-1,43
 657 748 657 748 682 742 c 0,44,45
 864 701 864 701 864 524 c 0,0,1
EndSplineSet
Substitution2: "'subs' Subscript lookup 29-1" uni2083
Substitution2: "'sups' superscripts subtable" uni00B3
Substitution2: "'onum' Oldstyle Figures in Latin lookup 5" three.oldstyle
Comment: "last+AD0A-45" 
Colour: ffffff
EndChar

StartChar: seven
Encoding: 55 55 23
Width: 956
GlyphClass: 2
Flags: W
LayerCount: 2
Fore
SplineSet
297 0 m 2,0,1
 286 -15 286 -15 216 -15 c 128,-1,2
 146 -15 146 -15 146 -2 c 0,3,4
 146 -1 146 -1 178 38.5 c 128,-1,5
 210 78 210 78 324 238 c 2,6,-1
 962 1139 l 2,7,8
 979 1165 979 1165 979 1173.5 c 128,-1,9
 979 1182 979 1182 949 1182 c 2,10,-1
 735 1182 l 2,11,12
 571 1182 571 1182 519 1168.5 c 128,-1,13
 467 1155 467 1155 421 1123.5 c 128,-1,14
 375 1092 375 1092 339 1038 c 0,15,16
 330 1024 330 1024 301.5 1024 c 128,-1,17
 273 1024 273 1024 280 1038 c 2,18,-1
 399 1286 l 2,19,20
 414 1317 414 1317 447 1317 c 2,21,-1
 1129 1317 l 2,22,23
 1162 1317 1162 1317 1162 1303.5 c 128,-1,24
 1162 1290 1162 1290 1145 1264 c 2,25,-1
 297 0 l 2,0,1
EndSplineSet
Substitution2: "'subs' Subscript lookup 29-1" uni2087
Substitution2: "'sups' superscripts subtable" uni2077
Substitution2: "'onum' Oldstyle Figures in Latin lookup 5" seven.oldstyle
Comment: "last+AD0A-25" 
Colour: ffffff
EndChar

StartChar: semicolon
Encoding: 59 59 27
Width: 561
GlyphClass: 2
Flags: W
LayerCount: 2
Fore
SplineSet
381 104 m 256,0,1
 381 28 381 28 332.5 -59.5 c 128,-1,2
 284 -147 284 -147 183 -234.5 c 128,-1,3
 82 -322 82 -322 -25 -369 c 0,4,5
 -27 -370 -27 -370 -30 -370 c 0,6,7
 -39 -370 -39 -370 -44 -361.5 c 128,-1,8
 -49 -353 -49 -353 -49 -346 c 0,9,10
 -49 -341 -49 -341 -45 -338 c 0,11,12
 39 -276 39 -276 110 -204.5 c 128,-1,13
 181 -133 181 -133 203 -57 c 0,14,15
 206 -46 206 -46 206 -25 c 128,-1,16
 206 -4 206 -4 188 4 c 0,17,18
 105 43 105 43 105 108 c 256,19,20
 105 159 105 159 148.5 197.5 c 128,-1,21
 192 236 192 236 252 236 c 0,22,23
 314 236 314 236 347.5 192 c 128,-1,24
 381 148 381 148 381 104 c 256,0,1
499 725 m 128,-1,26
 499 676 499 676 464.5 646 c 128,-1,27
 430 616 430 616 373 616 c 128,-1,28
 316 616 316 616 286 653 c 128,-1,29
 256 690 256 690 256 734 c 128,-1,30
 256 778 256 778 288.5 814 c 128,-1,31
 321 850 321 850 381.5 850 c 128,-1,32
 442 850 442 850 470.5 812 c 128,-1,25
 499 774 499 774 499 725 c 128,-1,26
EndSplineSet
Substitution2: "'ss18' Style Set 18 lookup 25-1" semicolon.alt
Comment: "last+AD0A-32" 
Colour: ffffff
EndChar

StartChar: question
Encoding: 63 63 31
Width: 678
GlyphClass: 2
Flags: W
LayerCount: 2
Fore
SplineSet
318 85.5 m 128,-1,1
 318 37 318 37 284.5 6 c 128,-1,2
 251 -25 251 -25 194 -25 c 128,-1,3
 137 -25 137 -25 106 12 c 128,-1,4
 75 49 75 49 75 92 c 128,-1,5
 75 135 75 135 107 173 c 128,-1,6
 139 211 139 211 199 211 c 128,-1,7
 259 211 259 211 288.5 172.5 c 128,-1,0
 318 134 318 134 318 85.5 c 128,-1,1
772 1059 m 256,8,9
 772 944 772 944 719.5 853 c 128,-1,10
 667 762 667 762 621 741 c 2,11,-1
 430 653 l 2,12,13
 342 613 342 613 330 563 c 0,14,15
 314 518 314 518 313 438 c 0,16,17
 313 425 313 425 290.5 420.5 c 128,-1,18
 268 416 268 416 266 426 c 0,19,20
 242 514 242 514 242 575 c 0,21,22
 242 712 242 712 408 788 c 2,23,-1
 528 844 l 2,24,25
 698 922 698 922 698 1055 c 0,26,27
 698 1194 698 1194 455 1194 c 0,28,29
 439 1194 439 1194 422.5 1213.5 c 128,-1,30
 406 1233 406 1233 406 1260 c 0,31,32
 406 1304 406 1304 442 1333 c 128,-1,33
 478 1362 478 1362 518 1362 c 0,34,35
 621 1362 621 1362 696.5 1268 c 128,-1,36
 772 1174 772 1174 772 1059 c 256,8,9
EndSplineSet
Substitution2: "'ss18' Style Set 18 lookup 25-1" question.alt
Comment: "last+AD0A-36" 
Colour: ffffff
EndChar

StartChar: O
Encoding: 79 79 47
Width: 1478
GlyphClass: 2
Flags: MW
AnchorPoint: "above" 1094 1415 basechar 0
LayerCount: 2
Fore
SplineSet
1534 886 m 0,0,1
 1534 536 1534 536 1259 254.5 c 128,-1,2
 984 -27 984 -27 672 -27 c 0,3,4
 495 -27 495 -27 356 85 c 128,-1,5
 217 197 217 197 217 441 c 0,6,7
 217 802 217 802 493.5 1093.5 c 128,-1,8
 770 1385 770 1385 1079 1385 c 0,9,10
 1298 1385 1298 1385 1416 1240.5 c 128,-1,11
 1534 1096 1534 1096 1534 886 c 0,0,1
1371 906 m 256,12,13
 1371 1078 1371 1078 1274.5 1195.5 c 128,-1,14
 1178 1313 1178 1313 1031 1314 c 256,15,16
 874 1314 874 1314 716.5 1181 c 128,-1,17
 559 1048 559 1048 469.5 852.5 c 0,18,19
 380 656 380 656 380 456 c 256,20,21
 380 276 380 276 480.5 161 c 128,-1,22
 581 46 581 46 707 46 c 0,23,24
 918 46 918 46 1068.5 194 c 128,-1,25
 1219 342 1219 342 1295 538 c 128,-1,26
 1371 734 1371 734 1371 906 c 256,12,13
EndSplineSet
Substitution2: "'ss19' Latin to Gothic transliteration subtable" u10349
Comment: "last+AD0A-25+AAoA-width of right curve: 163" 
Colour: ffffff
EndChar

StartChar: U
Encoding: 85 85 53
Width: 1482
GlyphClass: 2
Flags: W
AnchorPoint: "above" 1118 1415 basechar 0
LayerCount: 2
Fore
SplineSet
1456 890 m 18,0,1
 1346 503 1346 503 1273 346 c 128,-1,2
 1200 189 1200 189 1047 81 c 128,-1,3
 894 -27 894 -27 665 -27 c 0,4,5
 482 -27 482 -27 388.5 42.5 c 128,-1,6
 295 112 295 112 295 263 c 0,7,8
 295 365 295 365 344 539 c 2,9,-1
 525 1172 l 2,10,11
 533 1201 533 1201 533 1218 c 0,12,13
 533 1262 533 1262 497.5 1274.5 c 128,-1,14
 462 1287 462 1287 392 1287 c 0,15,16
 383 1287 383 1287 383 1309.5 c 128,-1,17
 383 1332 383 1332 393.5 1347.5 c 128,-1,18
 404 1363 404 1363 410 1363 c 1,19,20
 458 1358 458 1358 655 1358 c 128,-1,21
 852 1358 852 1358 898 1363 c 1,22,23
 905 1363 905 1363 905 1341.5 c 128,-1,24
 905 1320 905 1320 894 1303.5 c 128,-1,25
 883 1287 883 1287 877 1287 c 0,26,27
 750 1287 750 1287 718 1256 c 128,-1,28
 686 1225 686 1225 671 1172 c 10,29,-1
 531 687 l 2,30,31
 442 371 442 371 442 268 c 128,-1,32
 442 165 442 165 512.5 107 c 0,33,34
 584 49 584 49 710 49 c 256,35,36
 910 49 910 49 1039 153 c 128,-1,37
 1168 257 1168 257 1234 487 c 2,38,-1
 1431 1172 l 2,39,40
 1437 1194 1437 1194 1437 1213 c 0,41,42
 1437 1287 1437 1287 1299 1287 c 0,43,44
 1292 1287 1292 1287 1292 1308 c 128,-1,45
 1292 1329 1292 1329 1303 1346 c 128,-1,46
 1314 1363 1314 1363 1320 1363 c 9,47,48
 1390 1358 1390 1358 1548.5 1358 c 128,-1,49
 1707 1358 1707 1358 1753 1363 c 1,50,51
 1761 1363 1761 1363 1761 1342 c 128,-1,52
 1761 1321 1761 1321 1750 1304 c 128,-1,53
 1739 1287 1739 1287 1733 1287 c 0,54,55
 1645 1287 1645 1287 1600.5 1265 c 128,-1,56
 1556 1243 1556 1243 1536 1172 c 10,57,-1
 1456 890 l 18,0,1
EndSplineSet
Substitution2: "'ss19' Latin to Gothic transliteration subtable" u1033F
Comment: "last+AD0A-56" 
Colour: ffffff
EndChar

StartChar: Y
Encoding: 89 89 57
Width: 1228
GlyphClass: 2
Flags: W
AnchorPoint: "above" 934 1415 basechar 0
LayerCount: 2
Fore
SplineSet
642 186 m 2,0,1
 633 154 633 154 633 126 c 128,-1,2
 633 98 633 98 667.5 83.5 c 128,-1,3
 702 69 702 69 773 69 c 0,4,5
 781 69 781 69 781 48 c 128,-1,6
 781 27 781 27 770 10 c 128,-1,7
 759 -7 759 -7 753 -7 c 1,8,9
 666 0 666 0 514.5 0 c 128,-1,10
 363 0 363 0 277 -7 c 1,11,12
 270 -7 270 -7 270 14 c 128,-1,13
 270 35 270 35 281 52 c 128,-1,14
 292 69 292 69 298 69 c 0,15,16
 392 69 392 69 434.5 89 c 128,-1,17
 477 109 477 109 499 186 c 2,18,-1
 575 452 l 2,19,20
 602 546 602 546 602 580.5 c 128,-1,21
 602 615 602 615 579 689 c 2,22,-1
 428 1172 l 2,23,24
 404 1250 404 1250 363.5 1268.5 c 128,-1,25
 323 1287 323 1287 271 1287 c 0,26,27
 264 1287 264 1287 264 1308 c 128,-1,28
 264 1329 264 1329 275 1346 c 128,-1,29
 286 1363 286 1363 292 1363 c 1,30,31
 338 1358 338 1358 508 1358 c 128,-1,32
 678 1358 678 1358 726 1363 c 1,33,34
 733 1363 733 1363 733 1342 c 128,-1,35
 733 1321 733 1321 722 1304 c 128,-1,36
 711 1287 711 1287 705 1287 c 0,37,38
 608 1287 608 1287 585 1267 c 0,39,40
 562 1246 562 1246 562 1222 c 0,41,42
 562 1200 562 1200 571 1172 c 2,43,-1
 722 689 l 2,44,45
 728 671 728 671 738 671 c 256,46,47
 748 671 748 671 762 686 c 2,48,-1
 1207 1163 l 2,49,50
 1257 1217 1257 1217 1257 1247 c 0,51,52
 1257 1287 1257 1287 1157 1287 c 0,53,54
 1150 1287 1150 1287 1150 1308.5 c 128,-1,55
 1150 1330 1150 1330 1161 1346.5 c 128,-1,56
 1172 1363 1172 1363 1179 1363 c 9,57,58
 1245 1358 1245 1358 1371.5 1358 c 128,-1,59
 1498 1358 1498 1358 1573 1363 c 17,60,61
 1580 1363 1580 1363 1580 1342.5 c 128,-1,62
 1580 1322 1580 1322 1569 1304.5 c 128,-1,63
 1558 1287 1558 1287 1551 1287 c 0,64,65
 1459 1287 1459 1287 1407.5 1258.5 c 128,-1,66
 1356 1230 1356 1230 1196 1059 c 2,67,-1
 815 653 l 2,68,69
 758 592 758 592 728 487 c 2,70,-1
 642 186 l 2,0,1
EndSplineSet
Comment: "last+AD0A-70" 
Colour: ffffff
EndChar

StartChar: Z
Encoding: 90 90 58
Width: 1199
GlyphClass: 2
Flags: W
AnchorPoint: "above" 954 1415 basechar 0
LayerCount: 2
Fore
SplineSet
1048 -7 m 0,0,1
 1039 -36 1039 -36 1024 -33 c 2,2,-1
 972 -21 l 2,3,4
 881 0 881 0 317 0 c 2,5,-1
 -35 0 l 2,6,7
 -55 0 -55 0 -55 20 c 128,-1,8
 -55 40 -55 40 -44 51 c 2,9,-1
 1192 1267 l 2,10,11
 1201 1276 1201 1276 1201 1282.5 c 128,-1,12
 1201 1289 1201 1289 1181 1289 c 2,13,-1
 609 1289 l 2,14,15
 566 1289 566 1289 517 1253.5 c 128,-1,16
 468 1218 468 1218 400 1125 c 0,17,18
 336 1038 336 1038 302 974 c 0,19,20
 296 962 296 962 275 969 c 128,-1,21
 254 976 254 976 259 988 c 0,22,23
 331 1158 331 1158 392 1345 c 0,24,25
 400 1370 400 1370 428 1366 c 2,26,-1
 456 1362 l 2,27,28
 538 1350 538 1350 710.5 1350.5 c 128,-1,29
 883 1351 883 1351 1043 1354 c 2,30,-1
 1417 1362 l 17,31,32
 1434 1362 1434 1362 1434 1347 c 128,-1,33
 1434 1332 1434 1332 1418 1316 c 2,34,-1
 201 111 l 2,35,36
 193 103 193 103 193 86 c 128,-1,37
 193 69 193 69 215 69 c 0,38,39
 644 69 644 69 860 82 c 0,40,41
 980 89 980 89 1148 352 c 0,42,43
 1153 360 1153 360 1175 353 c 128,-1,44
 1197 346 1197 346 1192 336 c 0,45,46
 1107 175 1107 175 1048 -7 c 0,0,1
EndSplineSet
Substitution2: "'ss19' Latin to Gothic transliteration subtable" u10336
Comment: "last+AD0A-46" 
Colour: ffffff
EndChar

StartChar: bracketleft
Encoding: 91 91 59
Width: 725
GlyphClass: 2
Flags: W
LayerCount: 2
Fore
SplineSet
532 -354 m 2,0,-1
 100 -354 l 2,1,2
 83 -354 83 -354 83 -341 c 0,3,4
 83 -337 83 -337 84 -332 c 2,5,-1
 612 1511 l 2,6,7
 616 1530 616 1530 639 1530 c 2,8,-1
 1059 1530 l 2,9,10
 1066 1530 1066 1530 1066 1511 c 128,-1,11
 1066 1492 1066 1492 1053 1472 c 128,-1,12
 1040 1452 1040 1452 1032 1452 c 2,13,-1
 756 1452 l 2,14,15
 733 1452 733 1452 727 1430 c 2,16,-1
 248 -248 l 2,17,18
 240 -276 240 -276 254 -276 c 2,19,-1
 555 -276 l 2,20,21
 563 -276 563 -276 563 -298 c 128,-1,22
 563 -320 563 -320 551 -337 c 128,-1,23
 539 -354 539 -354 532 -354 c 2,0,-1
EndSplineSet
Substitution2: "'ss16' Upright brackets-1" bracketleft.alt
Comment: "last+AD0A-23" 
Colour: ffffff
EndChar

StartChar: asciicircum
Encoding: 94 94 62
Width: 1227
GlyphClass: 2
Flags: W
LayerCount: 2
Fore
SplineSet
1091 535 m 1,0,-1
 955 535 l 1,1,-1
 653 1216 l 1,2,-1
 351 535 l 1,3,-1
 213 535 l 1,4,-1
 600 1372 l 1,5,-1
 706 1372 l 1,6,-1
 1091 535 l 1,0,-1
EndSplineSet
Comment: "last+AD0A-6" 
Colour: ffffff
EndChar

StartChar: underscore
Encoding: 95 95 63
Width: 1024
GlyphClass: 2
Flags: W
LayerCount: 2
Fore
SplineSet
1024 -256 m 1,0,-1
 0 -256 l 1,1,-1
 0 -154 l 1,2,-1
 1024 -154 l 1,3,-1
 1024 -256 l 1,0,-1
EndSplineSet
Comment: "last+AD0A-3" 
Colour: ffffff
EndChar

StartChar: grave
Encoding: 96 96 64
Width: 569
GlyphClass: 2
Flags: W
LayerCount: 2
Fore
SplineSet
461 986 m 2,0,1
 466 974 466 974 466 966 c 0,2,3
 466 929 466 929 430 929 c 0,4,5
 406 929 406 929 389 956 c 2,6,-1
 203 1257 l 2,7,8
 201 1259 201 1259 201 1265 c 0,9,10
 201 1285 201 1285 234 1306 c 128,-1,11
 267 1327 267 1327 288 1327 c 128,-1,12
 309 1327 309 1327 316 1311 c 2,13,-1
 461 986 l 2,0,1
EndSplineSet
Comment: "last+AD0A-13" 
Colour: ffffff
EndChar

StartChar: b
Encoding: 98 98 66
Width: 852
GlyphClass: 2
Flags: W
AnchorPoint: "above" 630 1545 basechar 0
LayerCount: 2
Back
SplineSet
850 659 m 0,0,1
 850 406 850 406 670 189.5 c 128,-1,2
 490 -27 490 -27 242 -27 c 0,3,4
 97 -27 97 -27 97 133 c 0,5,6
 97 172 97 172 109 225 c 2,7,-1
 336 1200 l 2,8,9
 352 1267 352 1267 352 1299 c 0,10,11
 352 1378 352 1378 274 1378 c 0,12,13
 259 1378 259 1378 259 1404 c 128,-1,14
 259 1430 259 1430 274 1430 c 0,15,16
 329 1430 329 1430 411 1457.5 c 128,-1,17
 493 1485 493 1485 506 1485 c 0,18,19
 519.857 1485 519.857 1485 518 1472 c 2,20,-1
 516 1458 l 1,21,-1
 317 598 l 1,22,-1
 338 592 l 1,23,24
 536 852 536 852 684 852 c 0,25,26
 850 852 850 852 850 659 c 0,0,1
707 602 m 0,27,28
 707 754 707 754 623 754 c 0,29,30
 526.5 754 526.5 754 409.5 594 c 128,-1,31
 292.5 434 292.5 434 259.75 331.5 c 128,-1,32
 227 229 227 229 227 163 c 0,33,34
 227 45 227 45 326 45 c 0,35,36
 468 45 468 45 587.5 242.5 c 128,-1,37
 707 440 707 440 707 602 c 0,27,28
EndSplineSet
Fore
SplineSet
850 659 m 0,0,1
 850 406 850 406 670 189.5 c 128,-1,2
 490 -27 490 -27 242 -27 c 0,3,4
 97 -27 97 -27 97 133 c 0,5,6
 97 172 97 172 109 225 c 2,7,-1
 336 1200 l 2,8,9
 352 1267 352 1267 352 1299 c 0,10,11
 352 1378 352 1378 274 1378 c 0,12,13
 259 1378 259 1378 259 1404 c 128,-1,14
 259 1430 259 1430 274 1430 c 0,15,16
 329 1430 329 1430 411 1457.5 c 128,-1,17
 493 1485 493 1485 506 1485 c 0,18,19
 518 1484 518 1484 518 1472 c 0,20,21
 518 1465 518 1465 516 1458 c 2,22,-1
 317 598 l 1,23,-1
 338 592 l 1,24,25
 536 852 536 852 684 852 c 0,26,27
 850 852 850 852 850 659 c 0,0,1
707 602 m 0,28,29
 707 754 707 754 623 754 c 0,30,31
 527 754 527 754 409.5 594 c 128,-1,32
 292 434 292 434 259.5 331.5 c 128,-1,33
 227 229 227 229 227 163 c 0,34,35
 227 45 227 45 326 45 c 0,36,37
 468 45 468 45 587.5 242.5 c 128,-1,38
 707 440 707 440 707 602 c 0,28,29
EndSplineSet
Substitution2: "'ss19' Latin to Gothic transliteration subtable" u10331
Substitution2: "'sups' superscripts subtable" uni1D47
Comment: "last+AD0A-38+AAoA-curve width+AD0A-143+AAoA-left sidebearing+AD0A-97" 
Colour: ffffff
EndChar

StartChar: e
Encoding: 101 101 69
Width: 696
GlyphClass: 2
Flags: W
AnchorPoint: "below" 282 -75 basechar 0
AnchorPoint: "above" 561 900 basechar 0
LayerCount: 2
Fore
SplineSet
723 737 m 0,0,1
 723 602 723 602 559.5 493 c 128,-1,2
 396 384 396 384 242 356 c 1,3,4
 227 281 227 281 227 238 c 0,5,6
 227 72 227 72 338 72 c 0,7,8
 378 72 378 72 422 93 c 128,-1,9
 466 114 466 114 563 197 c 0,10,11
 570 203 570 203 581.5 197.5 c 128,-1,12
 593 192 593 192 594.5 180.5 c 128,-1,13
 596 169 596 169 592 164 c 0,14,15
 436 -27 436 -27 299 -27 c 0,16,17
 96 -27 96 -27 96 215 c 0,18,19
 96 406 96 406 256 629 c 128,-1,20
 416 852 416 852 592 852 c 0,21,22
 723 852 723 852 723 737 c 0,0,1
580 711 m 0,23,24
 580 772 580 772 526 772 c 0,25,26
 452 772 452 772 379.5 669.5 c 128,-1,27
 307 567 307 567 260 420 c 1,28,29
 383 446 383 446 481.5 524 c 128,-1,30
 580 602 580 602 580 711 c 0,23,24
EndSplineSet
Substitution2: "'ss19' Latin to Gothic transliteration subtable" u10334
Substitution2: "'sups' superscripts subtable" uni1D49
Comment: "last+AD0A-30" 
Colour: ffffff
EndChar

StartChar: f
Encoding: 102 102 70
Width: 479
GlyphClass: 2
Flags: W
AnchorPoint: "above" 584 1545 basechar 0
LayerCount: 2
Back
SplineSet
121 135 m 2,18,-1
 364 1197 l 2,19,20
EndSplineSet
Fore
SplineSet
201 -111 m 2,0,1
 171 -267 171 -267 121.5 -365.5 c 128,-1,2
 72 -464 72 -464 2 -507.5 c 128,-1,3
 -68 -551 -68 -551 -148 -551 c 0,4,5
 -220 -551 -220 -551 -262.5 -515 c 128,-1,6
 -305 -479 -305 -479 -305 -446 c 0,7,8
 -305 -410 -305 -410 -284 -388.5 c 128,-1,9
 -263 -367 -263 -367 -242 -367 c 0,10,11
 -182 -367 -182 -367 -155 -417 c 128,-1,12
 -128 -467 -128 -467 -82 -467 c 0,13,14
 -41 -467 -41 -467 -5 -417.5 c 128,-1,15
 31 -368 31 -368 45 -297 c 2,16,-1
 249 763 l 1,17,-1
 67 763 l 2,18,19
 60 763 60 763 60 775 c 0,20,21
 60 802 60 802 78 829 c 0,22,23
 86 842 86 842 94 842 c 2,24,-1
 264 842 l 1,25,26
 337 1215 337 1215 447.5 1339.5 c 128,-1,27
 558 1464 558 1464 743 1464 c 0,28,29
 831 1464 831 1464 881.5 1416.5 c 128,-1,30
 932 1369 932 1369 932 1298 c 0,31,32
 932 1202 932 1202 866 1202 c 0,33,34
 832 1202 832 1202 811.5 1224.5 c 128,-1,35
 791 1247 791 1247 791 1274 c 0,36,37
 791 1395 791 1395 686 1395 c 0,38,39
 584 1395 584 1395 516 1283.5 c 128,-1,40
 448 1172 448 1172 386 842 c 1,41,-1
 668 842 l 2,42,43
 675 842 675 842 675 830 c 0,44,45
 675 805 675 805 656 777 c 0,46,47
 647 763 647 763 639 763 c 2,48,-1
 370 763 l 1,49,-1
 201 -111 l 2,0,1
EndSplineSet
Substitution2: "'ss19' Latin to Gothic transliteration subtable" u10346
AlternateSubs2: "'salt' Stylistic Alternatives lookup 24-1" f.alt
Substitution2: "'sups' superscripts subtable" uni1DA0
Substitution2: "Single Substitution untagged lookup-1" f.alt
Substitution2: "'swsh' Swash in Latin lookup 14" uniF194
Substitution2: "'ss02' Style Set 2 in Latin lookup 10" uniA77C
Comment: "last+AD0A-49" 
Colour: ffffff
EndChar

StartChar: g
Encoding: 103 103 71
Width: 766
GlyphClass: 2
Flags: W
AnchorPoint: "above" 546 900 basechar 0
LayerCount: 2
Fore
SplineSet
890 786 m 0,0,1
 890 727 890 727 867 727 c 0,2,3
 778 727 778 727 673 756 c 1,4,5
 701 709 701 709 701 630.5 c 128,-1,6
 701 552 701 552 658.5 464 c 128,-1,7
 616 376 616 376 541.5 306 c 128,-1,8
 467 236 467 236 348 199 c 0,9,10
 322 191 322 191 310 185 c 0,11,12
 248 153 248 153 248 104.5 c 128,-1,13
 248 56 248 56 371 -10 c 0,14,15
 410 -31 410 -31 565.5 -118 c 128,-1,16
 721 -205 721 -205 721 -319.5 c 128,-1,17
 721 -434 721 -434 564.5 -496.5 c 128,-1,18
 408 -559 408 -559 224 -559 c 0,19,20
 77 -559 77 -559 -20 -501 c 128,-1,21
 -117 -443 -117 -443 -117 -351.5 c 128,-1,22
 -117 -260 -117 -260 -16.5 -185.5 c 128,-1,23
 84 -111 84 -111 225 -66 c 1,24,25
 133 -22 133 -22 133 26 c 0,26,27
 133 84 133 84 239 187 c 1,28,29
 76 229 76 229 76 401.5 c 128,-1,30
 76 574 76 574 214 713 c 128,-1,31
 352 852 352 852 530 852 c 0,32,33
 554 852 554 852 592 834 c 128,-1,34
 630 816 630 816 649 814 c 0,35,36
 706 808 706 808 752 808 c 128,-1,37
 798 808 798 808 873 813 c 0,38,39
 890 814 890 814 890 786 c 0,0,1
587 720 m 0,40,41
 587 791 587 791 508 791 c 0,42,43
 401 791 401 791 297 630 c 128,-1,44
 193 469 193 469 193 321 c 0,45,46
 193 248 193 248 272 248 c 0,47,48
 386 248 386 248 486.5 411.5 c 128,-1,49
 587 575 587 575 587 720 c 0,40,41
585 -352 m 256,50,51
 585 -289 585 -289 464 -202 c 128,-1,52
 343 -115 343 -115 271 -115 c 128,-1,53
 199 -115 199 -115 112.5 -182.5 c 128,-1,54
 26 -250 26 -250 26 -327.5 c 128,-1,55
 26 -405 26 -405 123 -447.5 c 128,-1,56
 220 -490 220 -490 316.5 -490 c 128,-1,57
 413 -490 413 -490 499 -452.5 c 128,-1,58
 585 -415 585 -415 585 -352 c 256,50,51
EndSplineSet
Substitution2: "'ss19' Latin to Gothic transliteration subtable" u10332
Substitution2: "'sups' superscripts subtable" uni1D4D
Substitution2: "'swsh' Swash in Latin lookup 14" uniF196
Substitution2: "'ss02' Style Set 2 in Latin lookup 10" uni1D79
Comment: "last+AD0A-58" 
Colour: ffffff
EndChar

StartChar: k
Encoding: 107 107 75
Width: 893
GlyphClass: 2
Flags: W
AnchorPoint: "above" 668 1545 basechar 0
LayerCount: 2
Back
SplineSet
121 135 m 2,18,-1
 364 1197 l 2,19,20
EndSplineSet
Fore
SplineSet
810 709 m 0,0,1
 810 628 810 628 712.5 535 c 128,-1,2
 615 442 615 442 485 377 c 0,3,4
 477 373 477 373 477 367 c 0,5,6
 477 359 477 359 485 348 c 2,7,-1
 633 141 l 2,8,9
 693 57 693 57 748 57 c 0,10,11
 790 57 790 57 842 106 c 0,12,13
 845 109 845 109 850 109 c 0,14,15
 866 109 866 109 873.5 101 c 128,-1,16
 881 93 881 93 881 79 c 0,17,18
 881 76 881 76 879 72 c 0,19,20
 796 -27 796 -27 717 -27 c 0,21,22
 641 -27 641 -27 600.5 -2.5 c 128,-1,23
 560 22 560 22 516 94 c 2,24,-1
 379 315 l 2,25,26
 364 340 364 340 315 340 c 0,27,28
 283 340 283 340 274 301 c 2,29,-1
 203 -4 l 2,30,31
 198 -27 198 -27 137.5 -27 c 128,-1,32
 77 -27 77 -27 82 -4 c 2,33,-1
 359 1197 l 2,34,35
 375 1266 375 1266 375 1295 c 0,36,37
 375 1377 375 1377 298 1377 c 0,38,39
 283 1377 283 1377 283 1403 c 128,-1,40
 283 1429 283 1429 298 1429 c 0,41,42
 368 1429 368 1429 447 1456.5 c 128,-1,43
 526 1484 526 1484 531 1484 c 0,44,45
 548 1484 548 1484 545 1471 c 2,46,-1
 352 639 l 1,47,-1
 365 633 l 1,48,49
 433 733 433 733 521.5 792.5 c 128,-1,50
 610 852 610 852 682 852 c 0,51,52
 750 852 750 852 780 807.5 c 128,-1,53
 810 763 810 763 810 709 c 0,0,1
677 672 m 0,54,55
 677 752 677 752 610 752 c 0,56,57
 499 752 499 752 358 575 c 0,58,59
 325 533 325 533 317 500 c 2,60,-1
 297 412 l 2,61,62
 295 404 295 404 295 398 c 0,63,64
 295 387 295 387 317 387 c 0,65,66
 440 387 440 387 558.5 483 c 128,-1,67
 677 579 677 579 677 672 c 0,54,55
EndSplineSet
Substitution2: "'ss19' Latin to Gothic transliteration subtable" u1033A
Substitution2: "'sups' superscripts subtable" uni1D4F
Substitution2: "'swsh' Swash in Latin lookup 14" uniF195
Comment: "last+AD0A-67+AAoA-left sidebearing+AD0A-82" 
Colour: ffffff
EndChar

StartChar: n
Encoding: 110 110 78
Width: 1008
GlyphClass: 2
Flags: W
AnchorPoint: "above" 637 900 basechar 0
LayerCount: 2
Back
SplineSet
774 203 m 2,0,1
 764 169 764 169 764 141 c 0,2,3
 764 102 764 102 798 102 c 128,-1,4
 832 102 832 102 922 195 c 0,5,6
 925 198 925 198 929 198 c 0,7,8
 941.145 198 941.145 198 953.073 184.931 c 128,-1,9
 965 171.862 965 171.862 965 164.931 c 256,10,11
 965 158 965 158 963 156 c 0,12,13
 802 -27 802 -27 678 -27 c 0,14,15
 622 -27 622 -27 622 57 c 0,16,17
 622 96 622 96 633 137 c 2,18,-1
 758 582 l 2,19,20
 788 688 788 688 788 727 c 0,21,22
 788 772 788 772 758 772 c 0,23,24
 672.5 772 672.5 772 513.841 541.181 c 128,-1,25
 355.181 310.362 355.181 310.362 233 2 c 0,26,27
 222 -27 222 -27 166.96 -27 c 128,-1,28
 111.92 -27 111.92 -27 111.92 -1.4448 c 0,29,30
 111.92 2.04 111.92 2.04 113 6 c 2,31,-1
 289 625 l 2,32,33
 295 646 295 646 295 664 c 0,34,35
 295 711 295 711 263 711 c 128,-1,36
 231 711 231 711 156 625 c 0,37,38
 153 622 153 622 149 622 c 0,39,40
 137.039 622 137.039 622 125.019 634.371 c 128,-1,41
 113 646.743 113 646.743 113 656 c 0,42,43
 113 660 113 660 115 662 c 0,44,45
 269 852 269 852 383 852 c 0,46,47
 440 852 440 852 440 762 c 0,48,49
 440 720 440 720 411 624 c 2,50,-1
 342 383 l 1,51,-1
 350 379 l 1,52,53
 596 852 596 852 799 852 c 0,54,55
 905 852 905 852 905 727 c 0,56,57
 905 666 905 666 877 567 c 2,58,-1
 774 203 l 2,0,1
EndSplineSet
Fore
SplineSet
774 203 m 2,0,1
 764 169 764 169 764 141 c 0,2,3
 764 102 764 102 798 102 c 128,-1,4
 832 102 832 102 922 195 c 0,5,6
 925 198 925 198 929 198 c 0,7,8
 941 198 941 198 953 185 c 128,-1,9
 965 172 965 172 965 165 c 256,10,11
 965 158 965 158 963 156 c 0,12,13
 802 -27 802 -27 678 -27 c 0,14,15
 622 -27 622 -27 622 57 c 0,16,17
 622 96 622 96 633 137 c 2,18,-1
 758 582 l 2,19,20
 788 688 788 688 788 727 c 0,21,22
 788 772 788 772 758 772 c 0,23,24
 672 772 672 772 513.5 541 c 128,-1,25
 355 310 355 310 233 2 c 0,26,27
 222 -27 222 -27 163 -27 c 128,-1,28
 104 -27 104 -27 113 6 c 2,29,-1
 289 625 l 2,30,31
 295 646 295 646 295 664 c 0,32,33
 295 711 295 711 263 711 c 128,-1,34
 231 711 231 711 156 625 c 0,35,36
 153 622 153 622 149 622 c 0,37,38
 137 622 137 622 125 634.5 c 128,-1,39
 113 647 113 647 113 656 c 0,40,41
 113 660 113 660 115 662 c 0,42,43
 269 852 269 852 383 852 c 0,44,45
 440 852 440 852 440 762 c 0,46,47
 440 720 440 720 411 624 c 2,48,-1
 342 383 l 1,49,-1
 350 379 l 1,50,51
 596 852 596 852 799 852 c 0,52,53
 905 852 905 852 905 727 c 0,54,55
 905 666 905 666 877 567 c 2,56,-1
 774 203 l 2,0,1
EndSplineSet
Substitution2: "'ss19' Latin to Gothic transliteration subtable" u1033D
Substitution2: "'swsh' Swash in Latin lookup 14" uniF19A
Substitution2: "'sups' superscripts subtable" uni207F
Comment: "last+AD0A-60" 
Colour: ffffff
EndChar

StartChar: o
Encoding: 111 111 79
Width: 838
GlyphClass: 2
Flags: MW
AnchorPoint: "below" 336 -75 basechar 0
AnchorPoint: "above" 600 900 basechar 0
LayerCount: 2
Fore
SplineSet
819 537 m 0,0,1
 819 324 819 324 682 148.5 c 128,-1,2
 545 -27 545 -27 338 -27 c 0,3,4
 215 -27 215 -27 155.5 64.5 c 128,-1,5
 96 156 96 156 96 305 c 0,6,7
 96 500 96 500 247 676 c 128,-1,8
 398 852 398 852 578 852 c 0,9,10
 698 852 698 852 758.5 767 c 128,-1,11
 819 682 819 682 819 537 c 0,0,1
707 588 m 0,12,13
 707 768 707 768 578 768 c 0,14,15
 461 768 461 768 337 577.5 c 128,-1,16
 213 387 213 387 213 231 c 0,17,18
 213 68 213 68 346 68 c 0,19,20
 455 68 455 68 581 254.5 c 128,-1,21
 707 441 707 441 707 588 c 0,12,13
EndSplineSet
Substitution2: "'ss19' Latin to Gothic transliteration subtable" u10349
Substitution2: "'sups' superscripts subtable" ordmasculine
Comment: "last+AD0A-21+AAoA-curve width2: 117/112" 
Colour: ffffff
EndChar

StartChar: p
Encoding: 112 112 80
Width: 877
GlyphClass: 2
Flags: W
AnchorPoint: "above" 592 1305 basechar 0
LayerCount: 2
Back
SplineSet
864 510 m 0,0,1
 864 307 864 307 697 140 c 128,-1,2
 530 -27 530 -27 332 -27 c 0,3,4
 296 -27 296 -27 248 -14 c 1,5,-1
 154 -420 l 2,6,7
 150 -437.277 150 -437.277 150 -448 c 0,8,9
 150 -504 150 -504 274 -504 c 0,10,11
 283 -504 283 -504 283 -517 c 0,12,13
 283 -559 283 -559 256 -559 c 1,14,15
 166 -551 166 -551 62.5 -551 c 128,-1,16
 -41 -551 -41 -551 -131 -559 c 1,17,18
 -140 -559 -140 -559 -140 -546 c 0,19,20
 -140 -504 -140 -504 -113 -504 c 0,21,22
 13.1571 -504 13.1571 -504 31 -428 c 2,23,-1
 297 705 l 1,24,25
 209.157 659.564 209.157 659.564 150 606 c 0,26,27
 147 603 147 603 141 603 c 0,28,29
 122 603 122 603 105 624 c 0,30,31
 98 633 98 633 98 640 c 0,32,33
 98 645 98 645 102 649 c 0,34,35
 207 745 207 745 317 795 c 1,36,-1
 360 1004 l 2,37,38
 365.047 1028.53 365.047 1028.53 407.023 1054.76 c 128,-1,39
 449 1081 449 1081 479 1081 c 0,40,41
 503.046 1081 503.046 1081 500 1068 c 2,42,-1
 444 829 l 1,43,44
 482 842 482 842 563 842 c 0,45,46
 695 842 695 842 779.5 752 c 128,-1,47
 864 662 864 662 864 510 c 0,0,1
725 477 m 0,48,49
 725 595 725 595 665 675.5 c 128,-1,50
 605 756 605 756 516 756 c 0,51,52
 469 756 469 756 424 743 c 1,53,-1
 276 117 l 2,54,55
 274 103 274 103 274 98 c 0,56,57
 274 39 274 39 350 39 c 0,58,59
 496 39 496 39 610.5 174 c 128,-1,60
 725 309 725 309 725 477 c 0,48,49
EndSplineSet
Fore
SplineSet
864 510 m 0,0,1
 864 307 864 307 697 140 c 128,-1,2
 530 -27 530 -27 332 -27 c 0,3,4
 296 -27 296 -27 248 -14 c 1,5,-1
 154 -420 l 2,6,7
 150 -437 150 -437 150 -448 c 0,8,9
 150 -504 150 -504 274 -504 c 0,10,11
 283 -504 283 -504 283 -516 c 256,12,13
 283 -528 283 -528 276 -543.5 c 128,-1,14
 269 -559 269 -559 256 -559 c 1,15,16
 166 -551 166 -551 62.5 -551 c 128,-1,17
 -41 -551 -41 -551 -131 -559 c 1,18,19
 -140 -559 -140 -559 -140 -546 c 256,20,21
 -140 -534 -140 -534 -133 -519 c 128,-1,22
 -126 -504 -126 -504 -113 -504 c 0,23,24
 13 -504 13 -504 31 -428 c 2,25,-1
 297 705 l 1,26,27
 209 660 209 660 150 606 c 0,28,29
 147 603 147 603 141 603 c 0,30,31
 126 603 126 603 112 616 c 128,-1,32
 98 629 98 629 98 640 c 0,33,34
 98 645 98 645 102 649 c 0,35,36
 207 745 207 745 317 795 c 1,37,-1
 360 1004 l 2,38,39
 365 1029 365 1029 407 1055 c 128,-1,40
 449 1081 449 1081 479 1081 c 0,41,42
 503 1081 503 1081 500 1068 c 2,43,-1
 444 829 l 1,44,45
 482 842 482 842 563 842 c 0,46,47
 695 842 695 842 779.5 752 c 128,-1,48
 864 662 864 662 864 510 c 0,0,1
725 477 m 0,49,50
 725 595 725 595 665 675.5 c 128,-1,51
 605 756 605 756 516 756 c 0,52,53
 469 756 469 756 424 743 c 1,54,-1
 276 117 l 2,55,56
 274 103 274 103 274 98 c 0,57,58
 274 39 274 39 350 39 c 0,59,60
 496 39 496 39 610.5 174 c 128,-1,61
 725 309 725 309 725 477 c 0,49,50
EndSplineSet
Substitution2: "'ss19' Latin to Gothic transliteration subtable" u10340
Substitution2: "'sups' superscripts subtable" uni1D56
Comment: "last+AD0A-60+AAoA-curve width: 139" 
Colour: ffffff
EndChar

StartChar: r
Encoding: 114 114 82
Width: 754
GlyphClass: 2
Flags: W
AnchorPoint: "above" 565 900 basechar 0
LayerCount: 2
Fore
SplineSet
832 772 m 0,0,1
 832 736 832 736 804 710 c 128,-1,2
 776 684 776 684 746 684 c 0,3,4
 710 684 710 684 693 698.5 c 128,-1,5
 676 713 676 713 646 713 c 0,6,7
 586 713 586 713 441.5 476 c 128,-1,8
 297 239 297 239 236 4 c 0,9,10
 228 -27 228 -27 170.5 -27 c 128,-1,11
 113 -27 113 -27 113 -2 c 0,12,13
 113 0 113 0 114 4 c 2,14,-1
 279 627 l 2,15,16
 286 653 286 653 286 662 c 0,17,18
 286 705 286 705 262 705 c 128,-1,19
 238 705 238 705 147 614 c 0,20,21
 144 611 144 611 139 611 c 0,22,23
 123 611 123 611 111 631 c 0,24,25
 107 638 107 638 107 644 c 0,26,27
 107 649 107 649 109 651 c 0,28,29
 232 785 232 785 285 818.5 c 128,-1,30
 338 852 338 852 381 852 c 256,31,32
 435 852 435 852 435 770 c 0,33,34
 435 754 435 754 401 627 c 2,35,-1
 356 459 l 1,36,-1
 366 457 l 1,37,38
 575 852 575 852 739 852 c 0,39,40
 789 852 789 852 810.5 830.5 c 128,-1,41
 832 809 832 809 832 772 c 0,0,1
EndSplineSet
Substitution2: "'ss19' Latin to Gothic transliteration subtable" u10342
Substitution2: "'swsh' Swash in Latin lookup 14" uniF19B
Substitution2: "'sups' superscripts subtable" uni02B3
Substitution2: "'ss02' Style Set 2 in Latin lookup 10" uniA783
Comment: "last+AD0A-41" 
Colour: ffffff
EndChar

StartChar: s
Encoding: 115 115 83
Width: 524
GlyphClass: 2
Flags: W
AnchorPoint: "above" 384 900 basechar 0
LayerCount: 2
Back
SplineSet
543 731 m 0,0,1
 543 707.857 543 707.857 524 689.929 c 128,-1,2
 505 672 505 672 487 672 c 0,3,4
 435 672 435 672 415.667 730 c 128,-1,5
 396.333 788 396.333 788 334 788 c 0,6,7
 299 788 299 788 276.5 750 c 128,-1,8
 254 712 254 712 254 678 c 0,9,10
 254 608 254 608 351.5 467 c 128,-1,11
 449 326 449 326 449 236 c 0,12,13
 449 124 449 124 361.5 48.5 c 128,-1,14
 274 -27 274 -27 158 -27 c 0,15,16
 104 -27 104 -27 63.5 8.5 c 128,-1,17
 23 44 23 44 23 82 c 0,18,19
 23 162 23 162 78 162 c 0,20,21
 144 162 144 162 170.5 108.5 c 128,-1,22
 197 55 197 55 256 55 c 0,23,24
 338 55 338 55 338 176 c 0,25,26
 338 240 338 240 248 366 c 128,-1,27
 158 492 158 492 158 592 c 0,28,29
 158 697 158 697 223 774.5 c 128,-1,30
 288 852 288 852 412 852 c 0,31,32
 464 852 464 852 503.5 812 c 128,-1,33
 543 772 543 772 543 731 c 0,0,1
EndSplineSet
Fore
SplineSet
543 731 m 0,0,1
 543 708 543 708 524 690 c 128,-1,2
 505 672 505 672 487 672 c 0,3,4
 435 672 435 672 415.5 730 c 128,-1,5
 396 788 396 788 334 788 c 0,6,7
 299 788 299 788 276.5 750 c 128,-1,8
 254 712 254 712 254 678 c 0,9,10
 254 608 254 608 351.5 467 c 128,-1,11
 449 326 449 326 449 236 c 0,12,13
 449 124 449 124 361.5 48.5 c 128,-1,14
 274 -27 274 -27 158 -27 c 0,15,16
 104 -27 104 -27 63.5 8.5 c 128,-1,17
 23 44 23 44 23 82 c 0,18,19
 23 118 23 118 37.5 140 c 128,-1,20
 52 162 52 162 78 162 c 0,21,22
 144 162 144 162 170.5 108.5 c 128,-1,23
 197 55 197 55 256 55 c 0,24,25
 338 55 338 55 338 176 c 0,26,27
 338 240 338 240 248 366 c 128,-1,28
 158 492 158 492 158 592 c 0,29,30
 158 697 158 697 223 774.5 c 128,-1,31
 288 852 288 852 412 852 c 0,32,33
 464 852 464 852 503.5 812 c 128,-1,34
 543 772 543 772 543 731 c 0,0,1
EndSplineSet
Substitution2: "'ss19' Latin to Gothic transliteration subtable" u10343
Substitution2: "'sups' superscripts subtable" uni02E2
Substitution2: "'hist' Historical Forms in Latin-1" longs
Substitution2: "'ss02' Style Set 2 in Latin lookup 10" uniA785
Comment: "last+AD0A-34" 
Colour: ffffff
EndChar

StartChar: u
Encoding: 117 117 85
Width: 991
GlyphClass: 2
Flags: W
AnchorPoint: "above" 633 900 basechar 0
LayerCount: 2
Fore
SplineSet
768 203 m 2,0,1
 756 161 756 161 756 141 c 0,2,3
 756 102 756 102 790 102 c 128,-1,4
 824 102 824 102 915 195 c 0,5,6
 918 198 918 198 923 198 c 0,7,8
 936 198 936 198 947 186 c 0,9,10
 960 172 960 172 959 164 c 0,11,12
 959 160 959 160 956 156 c 0,13,14
 792 -27 792 -27 672 -27 c 0,15,16
 614 -27 614 -27 614 63 c 0,17,18
 614 99 614 99 625 137 c 2,19,-1
 707 424 l 1,20,21
 463 116 463 116 372.5 44.5 c 128,-1,22
 282 -27 282 -27 226 -27 c 256,23,24
 142 -27 142 -27 142 72 c 0,25,26
 142 110 142 110 162 180 c 2,27,-1
 289 625 l 2,28,29
 295 646 295 646 295 666 c 0,30,31
 295 711 295 711 266.5 711 c 128,-1,32
 238 711 238 711 214 684 c 0,33,34
 188 655 188 655 158 625 c 0,35,36
 155 622 155 622 150 622 c 0,37,38
 132 622 132 622 119 644 c 0,39,40
 115 651 115 651 115 656 c 0,41,42
 115 660 115 660 117 662 c 0,43,44
 271 852 271 852 385 852 c 0,45,46
 440 852 440 852 440 770 c 0,47,48
 440 723 440 723 415 636 c 2,49,-1
 328 334 l 2,50,51
 287 192 287 192 287 147 c 128,-1,52
 287 102 287 102 315 102 c 0,53,54
 359 102 359 102 474 224 c 128,-1,55
 589 346 589 346 702 541 c 0,56,57
 760 641 760 641 823 829 c 0,58,59
 831 852 831 852 883 852 c 0,60,61
 953 852 953 852 945 826 c 2,62,-1
 768 203 l 2,0,1
EndSplineSet
Substitution2: "'ss19' Latin to Gothic transliteration subtable" u1033F
Substitution2: "'sups' superscripts subtable" uni1D58
Comment: "last+AD0A-63" 
Colour: ffffff
EndChar

StartChar: y
Encoding: 121 121 89
Width: 793
GlyphClass: 2
Flags: W
AnchorPoint: "above" 500 900 basechar 0
LayerCount: 2
Fore
SplineSet
793 788 m 0,0,1
 793 714 793 714 749 533.5 c 128,-1,2
 705 353 705 353 593.5 132 c 128,-1,3
 482 -89 482 -89 432.5 -171.5 c 128,-1,4
 383 -254 383 -254 255.5 -404.5 c 128,-1,5
 128 -555 128 -555 2 -555 c 0,6,7
 -50 -555 -50 -555 -81.5 -524.5 c 128,-1,8
 -113 -494 -113 -494 -113 -459 c 0,9,10
 -113 -419 -113 -419 -96 -395 c 128,-1,11
 -79 -371 -79 -371 -38 -371 c 256,12,13
 3 -371 3 -371 23 -405.5 c 128,-1,14
 43 -440 43 -440 82 -440 c 0,15,16
 147 -440 147 -440 221 -347.5 c 128,-1,17
 295 -255 295 -255 326.5 -143 c 128,-1,18
 358 -31 358 -31 358 135 c 0,19,20
 358 363 358 363 324 540 c 128,-1,21
 290 717 290 717 240 717 c 0,22,23
 194 717 194 717 129 586 c 0,24,25
 125 579 125 579 110.5 580.5 c 128,-1,26
 96 582 96 582 87 589 c 128,-1,27
 78 596 78 596 82 604 c 0,28,29
 186 852 186 852 303 852 c 0,30,31
 388 852 388 852 432.5 669 c 128,-1,32
 477 486 477 486 477 227 c 0,33,34
 477 140 477 140 469 39 c 1,35,-1
 479 39 l 1,36,37
 553 169 553 169 610.5 361.5 c 128,-1,38
 668 554 668 554 668 639 c 0,39,40
 668 709 668 709 649 784 c 17,41,42
 649 852 649 852 721 852 c 128,-1,43
 793 852 793 852 793 788 c 0,0,1
EndSplineSet
Substitution2: "'sups' superscripts subtable" uni02B8
Comment: "last+AD0A-43" 
Colour: ffffff
EndChar

StartChar: z
Encoding: 122 122 90
Width: 891
GlyphClass: 2
Flags: W
AnchorPoint: "above" 568 900 basechar 0
LayerCount: 2
Fore
SplineSet
283 162 m 1,0,-1
 285 154 l 1,1,-1
 328 151 l 2,2,3
 389 147 389 147 517.5 94 c 128,-1,4
 646 41 646 41 684 41 c 0,5,6
 768 41 768 41 768 129 c 0,7,8
 768 151 768 151 740.5 175.5 c 128,-1,9
 713 200 713 200 713 231 c 0,10,11
 713 295 713 295 782 295 c 0,12,13
 822 295 822 295 845 261.5 c 128,-1,14
 868 228 868 228 868 190 c 0,15,16
 868 84 868 84 789 12.5 c 128,-1,17
 710 -59 710 -59 629 -59 c 0,18,19
 585 -59 585 -59 522 -36.5 c 128,-1,20
 459 -14 459 -14 373 26 c 136,-1,21
 287 66 287 66 248 66 c 0,22,23
 186 66 186 66 106 -23 c 0,24,25
 102 -29 102 -29 92 -29 c 0,26,27
 68 -29 68 -29 42 4 c 0,28,29
 33 17 33 17 33 23 c 0,30,31
 33 28 33 28 36 31 c 2,32,-1
 600 659 l 2,33,34
 609 669 609 669 609 677 c 0,35,36
 609 693 609 693 569 705 c 0,37,38
 437 745 437 745 328 745 c 0,39,40
 238 745 238 745 238 688 c 0,41,42
 238 675 238 675 257 650 c 128,-1,43
 276 625 276 625 276 596 c 0,44,45
 276 532 276 532 215 532 c 0,46,47
 137 532 137 532 137 612 c 0,48,49
 137 680 137 680 215.5 761 c 128,-1,50
 294 842 294 842 420 842 c 0,51,52
 482 842 482 842 572 814 c 128,-1,53
 662 786 662 786 707 786 c 0,54,55
 759 786 759 786 782 811 c 2,56,-1
 823 856 l 2,57,58
 828 861 828 861 837 861 c 0,59,60
 859 861 859 861 872 840 c 8,61,62
 877 832 877 832 877 825 c 0,63,64
 877 820 877 820 874 817 c 2,65,-1
 283 162 l 1,0,-1
EndSplineSet
Substitution2: "'ss19' Latin to Gothic transliteration subtable" u10336
Substitution2: "'sups' superscripts subtable" uni1DBB
Comment: "last+AD0A-65" 
Colour: ffffff
EndChar

StartChar: braceleft
Encoding: 123 123 91
Width: 573
GlyphClass: 2
Flags: W
LayerCount: 2
Fore
SplineSet
312 -291 m 0,0,1
 318 -292 318 -292 317 -309 c 128,-1,2
 316 -326 316 -326 301 -328 c 1,3,4
 74 -328 74 -328 74 -164 c 0,5,6
 74 -68 74 -68 167 143 c 128,-1,7
 260 354 260 354 260 438 c 256,8,9
 260 522 260 522 121 532 c 0,10,11
 114 532 114 532 114 540 c 0,12,13
 114 576 114 576 131 578 c 0,14,15
 236 588 236 588 283.5 620 c 128,-1,16
 331 652 331 652 350.5 707.5 c 128,-1,17
 370 763 370 763 416 998.5 c 128,-1,18
 462 1234 462 1234 532 1320 c 0,19,20
 627 1436 627 1436 812 1436 c 0,21,22
 822 1436 822 1436 822 1418.5 c 128,-1,23
 822 1401 822 1401 807 1399 c 0,24,25
 621 1372 621 1372 576 1196 c 0,26,27
 553 1108 553 1108 522 922 c 128,-1,28
 491 736 491 736 436.5 661 c 128,-1,29
 382 586 382 586 275 559 c 1,30,-1
 273 551 l 1,31,32
 377 525 377 525 377 408 c 0,33,34
 377 345 377 345 282 133 c 128,-1,35
 187 -79 187 -79 187 -150 c 0,36,37
 187 -265 187 -265 312 -291 c 0,0,1
EndSplineSet
Substitution2: "'ss16' Upright brackets-1" braceleft.alt
Comment: "last+AD0A-37" 
Colour: ffffff
EndChar

StartChar: bar
Encoding: 124 124 92
Width: 537
GlyphClass: 2
Flags: W
LayerCount: 2
Fore
SplineSet
315 -313 m 1,0,-1
 233 -313 l 1,1,-1
 233 1434 l 1,2,-1
 315 1434 l 1,3,-1
 315 -313 l 1,0,-1
EndSplineSet
Comment: "last+AD0A-3" 
Colour: ffffff
EndChar

StartChar: braceright
Encoding: 125 125 93
Width: 598
GlyphClass: 2
Flags: W
LayerCount: 2
Fore
SplineSet
550 530 m 0,0,1
 444 520 444 520 395 486.5 c 128,-1,2
 346 453 346 453 328.5 396 c 128,-1,3
 311 339 311 339 265 108 c 128,-1,4
 219 -123 219 -123 149 -212 c 0,5,6
 56 -329 56 -329 -131 -328 c 0,7,8
 -141 -328 -141 -328 -141 -310 c 0,9,10
 -141 -293 -141 -293 -126 -291 c 0,11,12
 64 -261 64 -261 105 -88 c 0,13,14
 134 37 134 37 162 206 c 128,-1,15
 190 375 190 375 246 449 c 128,-1,16
 302 523 302 523 406 549 c 1,17,-1
 408 557 l 1,18,19
 304 583 304 583 304 700 c 0,20,21
 304 763 304 763 399 975 c 128,-1,22
 494 1187 494 1187 494 1258 c 0,23,24
 494 1373 494 1373 369 1399 c 0,25,26
 363 1400 363 1400 363 1418 c 128,-1,27
 363 1436 363 1436 380 1436 c 0,28,29
 607 1436 607 1436 607 1272 c 0,30,31
 607 1176 607 1176 514 965 c 128,-1,32
 421 754 421 754 421 664 c 0,33,34
 421 585 421 585 560 576 c 0,35,36
 567 576 567 576 567 568 c 0,37,38
 567 532 567 532 550 530 c 0,0,1
EndSplineSet
Substitution2: "'ss16' Upright brackets-1" braceright.alt
Comment: "last+AD0A-38" 
Colour: ffffff
EndChar

StartChar: exclamdown
Encoding: 161 161 96
Width: 520
GlyphClass: 2
Flags: W
LayerCount: 2
Fore
SplineSet
80 -442 m 2,0,1
 72 -480 72 -480 33 -517.5 c 128,-1,2
 -6 -555 -6 -555 -49 -555 c 0,3,4
 -128 -555 -128 -555 -128 -485 c 0,5,6
 -128 -458 -128 -458 -119 -434 c 2,7,-1
 198 408 l 2,8,9
 204 425 204 425 234.5 425 c 128,-1,10
 265 425 265 425 265 412 c 0,11,-1
 80 -442 l 2,0,1
450 761.5 m 128,-1,13
 450 711 450 711 419 672 c 128,-1,14
 388 633 388 633 332 633 c 128,-1,15
 276 633 276 633 240.5 667.5 c 128,-1,16
 205 702 205 702 205 754 c 128,-1,17
 205 806 205 806 239.5 837.5 c 128,-1,18
 274 869 274 869 321 869 c 128,-1,19
 368 869 368 869 409 840.5 c 128,-1,12
 450 812 450 812 450 761.5 c 128,-1,13
EndSplineSet
Comment: "last+AD0A-19" 
Colour: ffffff
EndChar

StartChar: cent
Encoding: 162 162 97
Width: 866
GlyphClass: 2
Flags: W
LayerCount: 2
Fore
SplineSet
844 311 m 0,0,1
 714 220 714 220 524 220 c 2,2,-1
 506 220 l 1,3,-1
 444 8 l 2,4,5
 440 -6 440 -6 420 -6 c 128,-1,6
 400 -6 400 -6 383 3.5 c 128,-1,7
 366 13 366 13 369 23 c 2,8,-1
 430 231 l 1,9,10
 308 263 308 263 234.5 366.5 c 128,-1,11
 161 470 161 470 161 590 c 256,12,13
 161 710 161 710 224.5 820 c 128,-1,14
 288 930 288 930 415 999.5 c 128,-1,15
 542 1069 542 1069 678 1073 c 1,16,-1
 731 1253 l 2,17,18
 734 1263 734 1263 752.5 1263 c 128,-1,19
 771 1263 771 1263 790.5 1255.5 c 128,-1,20
 810 1248 810 1248 807 1237 c 2,21,-1
 757 1068 l 1,22,23
 920 1044 920 1044 940 984 c 0,24,25
 945 969 945 969 945 954 c 0,26,27
 945 927 945 927 924 901.5 c 128,-1,28
 903 876 903 876 885 876 c 0,29,30
 871 876 871 876 844 908.5 c 128,-1,31
 817 941 817 941 797 961.5 c 128,-1,32
 777 982 777 982 736 999 c 1,33,-1
 534 314 l 1,34,35
 562 307 562 307 610 307 c 256,36,37
 677 307 677 307 818 364 c 24,38,39
 827 368 827 368 837.5 351.5 c 128,-1,40
 848 335 848 335 848 324.5 c 128,-1,41
 848 314 848 314 844 311 c 0,0,1
463 342 m 1,42,-1
 660 1011 l 1,43,44
 521 1005 521 1005 419 885 c 128,-1,45
 317 765 317 765 317 623 c 0,46,47
 317 428 317 428 463 342 c 1,42,-1
EndSplineSet
Substitution2: "'onum' Oldstyle Figures in Latin lookup 5" cent.oldstyle
Comment: "last+AD0A-47" 
Colour: ffffff
EndChar

StartChar: yen
Encoding: 165 165 100
Width: 1317
GlyphClass: 2
Flags: W
LayerCount: 2
Fore
SplineSet
688 199 m 2,0,1
 679 168 679 168 679 146 c 0,2,3
 679 96 679 96 733 81 c 0,4,5
 757 74 757 74 829 74 c 0,6,7
 837 74 837 74 837 55.5 c 128,-1,8
 837 37 837 37 826.5 14.5 c 128,-1,9
 816 -8 816 -8 807 -8 c 257,10,11
 741 0 741 0 563 0 c 128,-1,12
 385 0 385 0 297 -8 c 257,13,14
 289 -8 289 -8 289 10.5 c 128,-1,15
 289 29 289 29 299.5 51.5 c 128,-1,16
 310 74 310 74 319 74 c 0,17,18
 421 74 421 74 467 96 c 128,-1,19
 513 118 513 118 535 199 c 2,20,-1
 613 472 l 1,21,-1
 283 472 l 2,22,23
 268 472 268 472 268 522 c 128,-1,24
 268 572 268 572 283 572 c 2,25,-1
 639 572 l 1,26,27
 652 636 652 636 621 737 c 1,28,-1
 344 737 l 2,29,30
 329 737 329 737 329 788 c 128,-1,31
 329 839 329 839 344 839 c 2,32,-1
 590 839 l 1,33,-1
 459 1257 l 2,34,35
 437 1326 437 1326 399 1353 c 128,-1,36
 361 1380 361 1380 291 1380 c 0,37,38
 283 1380 283 1380 283 1398.5 c 128,-1,39
 283 1417 283 1417 293.5 1439.5 c 128,-1,40
 304 1462 304 1462 313 1462 c 257,41,42
 415 1456 415 1456 531 1456 c 128,-1,43
 647 1456 647 1456 778 1462 c 17,44,45
 786 1462 786 1462 786 1443.5 c 128,-1,46
 786 1425 786 1425 776 1402.5 c 128,-1,47
 766 1380 766 1380 756 1380 c 0,48,49
 682 1380 682 1380 653 1371 c 0,50,51
 603 1354 603 1354 603 1305 c 0,52,53
 603 1284 603 1284 612 1257 c 2,54,-1
 774 739 l 2,55,56
 780 719 780 719 791 719 c 128,-1,57
 802 719 802 719 817 735 c 2,58,-1
 1294 1247 l 2,59,60
 1348 1306 1348 1306 1348 1337 c 0,61,62
 1348 1380 1348 1380 1241 1380 c 0,63,64
 1233 1380 1233 1380 1233 1397.5 c 128,-1,65
 1233 1415 1233 1415 1243.5 1438.5 c 128,-1,66
 1254 1462 1254 1462 1264 1462 c 1,67,68
 1350 1456 1350 1456 1478.5 1456 c 128,-1,69
 1607 1456 1607 1456 1686 1462 c 257,70,71
 1694 1462 1694 1462 1694 1444.5 c 128,-1,72
 1694 1427 1694 1427 1684 1403.5 c 128,-1,73
 1674 1380 1674 1380 1663 1380 c 0,74,75
 1549 1380 1549 1380 1478 1330 c 0,76,77
 1439 1303 1439 1303 1282 1135 c 2,78,-1
 1004 839 l 1,79,-1
 1235 839 l 2,80,81
 1250 839 1250 839 1250 788 c 128,-1,82
 1250 737 1250 737 1235 737 c 2,83,-1
 910 737 l 1,84,-1
 874 700 l 2,85,86
 823 648 823 648 796 572 c 1,87,-1
 1174 572 l 2,88,89
 1189 572 1189 572 1189 522 c 128,-1,90
 1189 472 1189 472 1174 472 c 2,91,-1
 766 472 l 1,92,-1
 688 199 l 2,0,1
EndSplineSet
Comment: "last+AD0A-92" 
Colour: ffffff
EndChar

StartChar: section
Encoding: 167 167 102
Width: 989
GlyphClass: 2
Flags: W
LayerCount: 2
Fore
SplineSet
862 384 m 256,0,1
 862 266 862 266 801 172 c 0,2,3
 711 33 711 33 519.5 -120.5 c 128,-1,4
 328 -274 328 -274 192 -274 c 256,5,6
 119 -274 119 -274 66.5 -229.5 c 128,-1,7
 14 -185 14 -185 14 -115 c 0,8,9
 14 -76 14 -76 49 -76 c 0,10,11
 59 -76 59 -76 136 -123 c 0,12,13
 212 -170 212 -170 286 -170 c 256,14,15
 360 -170 360 -170 412.5 -123 c 128,-1,16
 465 -76 465 -76 465 4 c 0,17,18
 465 136 465 136 357.5 388 c 128,-1,19
 250 640 250 640 250 776 c 256,20,21
 250 912 250 912 362.5 1063.5 c 128,-1,22
 475 1215 475 1215 637.5 1328.5 c 128,-1,23
 800 1442 800 1442 895 1442 c 256,24,25
 953 1442 953 1442 996.5 1402.5 c 128,-1,26
 1040 1363 1040 1363 1040 1307 c 0,27,28
 1040 1227 1040 1227 985 1227 c 0,29,30
 983 1227 983 1227 937 1286.5 c 128,-1,31
 891 1346 891 1346 817 1346 c 256,32,33
 743 1346 743 1346 691 1297.5 c 128,-1,34
 639 1249 639 1249 639 1169 c 0,35,36
 639 1032 639 1032 750.5 767 c 128,-1,37
 862 502 862 502 862 384 c 256,0,1
731 332 m 256,38,39
 731 446 731 446 630.5 697.5 c 128,-1,40
 530 949 530 949 530 991 c 0,41,42
 530 1135 530 1135 549 1174 c 1,43,-1
 541 1178 l 1,44,45
 373 1020 373 1020 373 866 c 256,46,47
 373 712 373 712 474 471 c 128,-1,48
 575 230 575 230 575 143 c 256,49,50
 575 56 575 56 569 10 c 1,51,-1
 573 6 l 1,52,53
 731 149 731 149 731 332 c 256,38,39
EndSplineSet
Comment: "last+AD0A-36" 
Colour: ffffff
EndChar

StartChar: ordfeminine
Encoding: 170 170 105
Width: 579
GlyphClass: 2
Flags: W
LayerCount: 2
Fore
SplineSet
551.2 632 m 2,0,1
 549.4 626 549.4 626 549.4 620.6 c 0,2,3
 550 608.6 550 608.6 563.2 608.6 c 0,4,5
 584.8 608.6 584.8 608.6 624.4 648.2 c 0,6,7
 631.6 655.4 631.6 655.4 648.4 641 c 256,8,9
 660.4 630.8 660.4 630.8 660.4 624.2 c 0,10,11
 660.4 621.2 660.4 621.2 658 618.8 c 0,12,13
 602.8 564.8 602.8 564.8 557.5 536.3 c 128,-1,14
 512.2 507.8 512.2 507.8 478.6 507.8 c 0,15,16
 431.2 507.8 431.2 507.8 431.2 562.4 c 0,17,18
 431.2 592.4 431.2 592.4 442 617.6 c 2,19,-1
 457.6 653 l 1,20,-1
 450.4 656.6 l 1,21,22
 316 507.8 316 507.8 233.8 507.8 c 256,23,24
 190 507.8 190 507.8 163.9 540.2 c 128,-1,25
 137.8 572.6 137.8 572.6 137.8 623.6 c 256,26,27
 137.8 749 137.8 749 249.4 889.7 c 128,-1,28
 361 1030.4 361 1030.4 484.6 1030.4 c 256,29,30
 521.8 1030.4 521.8 1030.4 548.8 1011.8 c 1,31,-1
 560.8 1041.2 l 2,32,33
 566.2 1054.4 566.2 1054.4 618.7 1054.4 c 128,-1,34
 671.2 1054.4 671.2 1054.4 671.2 1033.4 c 0,35,36
 671.2 1029.2 671.2 1029.2 669.4 1022.6 c 2,37,-1
 551.2 632 l 2,0,1
499.6 855.8 m 10,38,-1
 529 951.8 l 1,39,40
 509.8 980 509.8 980 468.4 980 c 0,41,42
 403.6 980 403.6 980 337.3 866.6 c 128,-1,43
 271 753.2 271 753.2 271 660.2 c 256,44,45
 271 590 271 590 299.2 590 c 0,46,47
 330.4 590 330.4 590 375.1 638.9 c 128,-1,48
 419.8 687.8 419.8 687.8 451.6 745.4 c 128,-1,49
 483.4 803 483.4 803 499.6 855.8 c 10,38,-1
EndSplineSet
Comment: "last+AD0A-50" 
Colour: ffffff
EndChar

StartChar: registered
Encoding: 174 174 109
Width: 1565
GlyphClass: 2
Flags: W
LayerCount: 2
Fore
SplineSet
1516 748 m 128,-1,1
 1516 449 1516 449 1305 238 c 128,-1,2
 1094 27 1094 27 795 27 c 128,-1,3
 496 27 496 27 285 238 c 128,-1,4
 74 449 74 449 74 748 c 128,-1,5
 74 1047 74 1047 285 1257.5 c 128,-1,6
 496 1468 496 1468 795 1468 c 128,-1,7
 1094 1468 1094 1468 1305 1257.5 c 128,-1,0
 1516 1047 1516 1047 1516 748 c 128,-1,1
1445 746.5 m 128,-1,9
 1445 1017 1445 1017 1254.5 1207.5 c 128,-1,10
 1064 1398 1064 1398 795.5 1398 c 128,-1,11
 527 1398 527 1398 335.5 1206.5 c 128,-1,12
 144 1015 144 1015 144 747 c 128,-1,13
 144 479 144 479 335 288 c 128,-1,14
 526 97 526 97 796 97 c 128,-1,15
 1066 97 1066 97 1255.5 286.5 c 128,-1,8
 1445 476 1445 476 1445 746.5 c 128,-1,9
1083 918 m 0,16,17
 1083 774 1083 774 926 731 c 0,18,19
 917 729 917 729 917 721.5 c 128,-1,20
 917 714 917 714 926 700 c 0,21,22
 1001 566 1001 566 1118 455 c 0,23,24
 1178 398 1178 398 1218 398 c 0,25,26
 1226 398 1226 398 1226 389.5 c 128,-1,27
 1226 381 1226 381 1218 379 c 0,28,29
 1106 372 1106 372 1045 411.5 c 128,-1,30
 984 451 984 451 926 533 c 2,31,-1
 846 651 l 2,32,33
 809 697 809 697 800.5 703.5 c 128,-1,34
 792 710 792 710 761 710 c 128,-1,35
 730 710 730 710 711 711.5 c 128,-1,36
 692 713 692 713 691 700 c 2,37,-1
 691 489 l 2,38,39
 691 427 691 427 795 427 c 0,40,41
 803 427 803 427 803 406.5 c 128,-1,42
 803 386 803 386 795 386 c 1,43,44
 750 390 750 390 650 390 c 128,-1,45
 550 390 550 390 501 386 c 1,46,47
 493 386 493 386 493 406.5 c 128,-1,48
 493 427 493 427 501 427 c 0,49,50
 597 427 597 427 597 489 c 2,51,-1
 597 1019 l 2,52,53
 597 1077 597 1077 496 1077 c 0,54,55
 488 1077 488 1077 488 1097.5 c 128,-1,56
 488 1118 488 1118 496 1118 c 257,57,58
 566 1114 566 1114 640 1114 c 128,-1,59
 714 1114 714 1114 805 1117 c 1,60,61
 933 1117 933 1117 1008 1064.5 c 128,-1,62
 1083 1012 1083 1012 1083 918 c 0,16,17
975 918 m 0,63,64
 975 988 975 988 918.5 1036 c 128,-1,65
 862 1084 862 1084 776.5 1084 c 128,-1,66
 691 1084 691 1084 691 1068 c 2,67,-1
 691 768 l 2,68,69
 691 742 691 742 769 742 c 0,70,71
 975 742 975 742 975 918 c 0,63,64
EndSplineSet
Comment: "last+AD0A-71" 
Colour: ffffff
EndChar

StartChar: macron
Encoding: 175 175 110
Width: 608
GlyphClass: 2
Flags: W
LayerCount: 2
Fore
SplineSet
724 1064 m 2,0,-1
 278 1064 l 2,1,2
 271 1064 271 1064 271 1081.5 c 128,-1,3
 271 1099 271 1099 283 1128.5 c 128,-1,4
 295 1158 295 1158 306 1158 c 2,5,-1
 757 1158 l 2,6,7
 763 1158 763 1158 763 1143 c 128,-1,8
 763 1128 763 1128 749.5 1096 c 128,-1,9
 736 1064 736 1064 724 1064 c 2,0,-1
EndSplineSet
Comment: "last+AD0A-9" 
Colour: ffffff
EndChar

StartChar: uni00B5
Encoding: 181 181 116
Width: 991
GlyphClass: 2
Flags: W
LayerCount: 2
Fore
SplineSet
768 203 m 2,0,1
 756 161 756 161 756 141 c 0,2,3
 756 102 756 102 786 102 c 0,4,5
 822 102 822 102 915 195 c 0,6,7
 924 204 924 204 946 185 c 0,8,9
 967 168 967 168 957 157 c 0,10,11
 793 -27 793 -27 672 -27 c 0,12,13
 614 -27 614 -27 614 63 c 0,14,15
 614 99 614 99 625 137 c 2,16,-1
 707 424 l 1,17,18
 547 222 547 222 494 165 c 0,19,20
 318 -27 318 -27 231 -27 c 0,21,22
 217 -27 217 -27 202 -23 c 1,23,24
 174 -85 174 -85 160 -165.5 c 128,-1,25
 146 -246 146 -246 150 -299.5 c 128,-1,26
 154 -353 154 -353 154 -397 c 0,27,28
 154 -557 154 -557 8 -557 c 0,29,30
 -32 -556 -32 -556 -32 -528 c 0,31,32
 -32 -499 -32 -499 -20 -459 c 2,33,-1
 289 625 l 2,34,35
 295 646 295 646 295 666 c 0,36,37
 296 711 296 711 266 711 c 0,38,39
 244 711 244 711 158 625 c 0,40,41
 149 616 149 616 128 632 c 128,-1,42
 107 648 107 648 117 662 c 0,43,44
 271 852 271 852 385 852 c 0,45,46
 440 852 440 852 440 770 c 0,47,48
 440 725 440 725 430 690 c 2,49,-1
 328 334 l 2,50,51
 287 191 287 191 287 146 c 0,52,53
 287 102 287 102 315 102 c 0,54,55
 359 102 359 102 473 222 c 128,-1,56
 587 342 587 342 678.5 499.5 c 128,-1,57
 770 657 770 657 823 829 c 0,58,59
 830 852 830 852 891 852 c 128,-1,60
 952 852 952 852 945 828 c 2,61,-1
 768 203 l 2,0,1
EndSplineSet
Comment: "last+AD0A-61" 
Colour: ffffff
EndChar

StartChar: paragraph
Encoding: 182 182 117
Width: 997
GlyphClass: 2
Flags: W
LayerCount: 2
Fore
SplineSet
555 -283 m 2,0,1
 551 -299 551 -299 504.5 -299 c 128,-1,2
 458 -299 458 -299 462 -285 c 2,3,-1
 898 1324 l 2,4,5
 901 1335 901 1335 901 1348 c 0,6,7
 901 1398 901 1398 842 1398 c 0,8,9
 754 1398 754 1398 734 1324 c 2,10,-1
 298 -285 l 2,11,12
 294 -299 294 -299 248 -299 c 128,-1,13
 202 -299 202 -299 206 -285 c 2,14,-1
 469 677 l 1,15,16
 261 677 261 677 173.5 757.5 c 128,-1,17
 86 838 86 838 86 970 c 0,18,19
 86 1175 86 1175 265 1315.5 c 128,-1,20
 444 1456 444 1456 654 1456 c 9,21,22
 891 1452 891 1452 977 1452 c 128,-1,23
 1063 1452 1063 1452 1143 1456 c 1,24,25
 1153 1456 1153 1456 1153 1442.5 c 128,-1,26
 1153 1429 1153 1429 1148 1413 c 128,-1,27
 1143 1397 1143 1397 1128 1398 c 0,28,29
 1009 1398 1009 1398 989 1324 c 2,30,-1
 555 -283 l 2,0,1
EndSplineSet
Comment: "last+AD0A-30" 
Colour: ffffff
EndChar

StartChar: cedilla
Encoding: 184 184 119
Width: 737
GlyphClass: 2
Flags: W
LayerCount: 2
Fore
SplineSet
383 -256 m 256,0,1
 383 -326 383 -326 317 -375 c 128,-1,2
 251 -424 251 -424 174 -424 c 0,3,4
 72 -424 72 -424 72 -358 c 0,5,6
 72 -309 72 -309 123 -309 c 0,7,8
 143 -309 143 -309 173 -339 c 128,-1,9
 203 -369 203 -369 215 -369 c 0,10,11
 272 -368 272 -368 272 -298 c 256,12,13
 272 -235 272 -235 181 -187 c 0,14,15
 160 -176 160 -176 173 -157 c 2,16,-1
 291 0 l 1,17,-1
 358 0 l 1,18,-1
 297 -80 l 2,19,20
 279 -103 279 -103 307 -125 c 0,21,22
 383 -186 383 -186 383 -256 c 256,0,1
EndSplineSet
Comment: "last+AD0A-22" 
Colour: ffffff
EndChar

StartChar: uni00B9
Encoding: 185 185 120
Width: 621
GlyphClass: 2
Flags: W
LayerCount: 2
Fore
SplineSet
515 713 m 22,0,1
 497 647 497 647 497 618 c 132,-1,2
 497 589 497 589 517.5 580.5 c 132,-1,3
 538 572 538 572 594 572 c 4,4,5
 601 572 601 572 601 562 c 132,-1,6
 601 552 601 552 598 543.5 c 132,-1,7
 595 535 595 535 585 535 c 5,8,9
 529 540 529 540 411 540 c 132,-1,10
 293 540 293 540 237 535 c 5,11,12
 230 535 230 535 230 545 c 132,-1,13
 230 555 230 555 233.5 563.5 c 132,-1,14
 237 572 237 572 247 572 c 4,15,16
 330 572 330 572 359 594.5 c 132,-1,17
 388 617 388 617 413 712 c 6,18,-1
 567 1286 l 6,19,20
 570 1298 570 1298 570 1304 c 4,21,22
 570 1316 570 1316 561.5 1316 c 132,-1,23
 553 1316 553 1316 544 1312 c 6,24,-1
 450 1274 l 6,25,26
 440 1270 440 1270 438 1284.5 c 132,-1,27
 436 1299 436 1299 445 1304 c 4,28,29
 551 1350 551 1350 693 1442 c 4,30,31
 702 1447 702 1447 708.5 1447 c 132,-1,32
 715 1447 715 1447 715 1440 c 5,33,34
 692 1375 692 1375 678 1324 c 6,35,-1
 515 713 l 22,0,1
EndSplineSet
Comment: "last+AD0A-35" 
Colour: ffffff
EndChar

StartChar: onequarter
Encoding: 188 188 123
Width: 1690
GlyphClass: 2
Flags: W
LayerCount: 2
Fore
SplineSet
1405 78 m 2,0,1
 1403 71 1403 71 1403 65 c 0,2,3
 1403 29 1403 29 1467 29 c 0,4,5
 1473 29 1473 29 1473.5 19 c 128,-1,6
 1474 9 1474 9 1471 1 c 128,-1,7
 1468 -7 1468 -7 1458 -7 c 1,8,9
 1404 -2 1404 -2 1321.5 -2 c 128,-1,10
 1239 -2 1239 -2 1186 -7 c 1,11,12
 1180 -7 1180 -7 1179.5 3 c 128,-1,13
 1179 13 1179 13 1182.5 21 c 128,-1,14
 1186 29 1186 29 1195 29 c 0,15,16
 1295 29 1295 29 1308 78 c 2,17,-1
 1350 233 l 2,18,19
 1353 246 1353 246 1340 246 c 2,20,-1
 1038 246 l 2,21,22
 1001 246 1001 246 1001 264 c 128,-1,23
 1001 282 1001 282 1046 327 c 2,24,-1
 1238 518 l 2,25,26
 1472 752 1472 752 1606 900 c 0,27,28
 1615 908 1615 908 1640 908 c 128,-1,29
 1665 908 1665 908 1665 893 c 0,30,31
 1665 890 1665 890 1664 889 c 2,32,-1
 1103 321 l 2,33,34
 1094 312 1094 312 1094 306 c 128,-1,35
 1094 300 1094 300 1108 300 c 2,36,-1
 1355 300 l 2,37,38
 1368 300 1368 300 1371 313 c 2,39,-1
 1446 595 l 2,40,41
 1449 604 1449 604 1496.5 604 c 128,-1,42
 1544 604 1544 604 1544 595 c 2,43,-1
 1469 313 l 2,44,45
 1465 300 1465 300 1478 300 c 2,46,-1
 1553 300 l 2,47,48
 1558 300 1558 300 1558 285.5 c 128,-1,49
 1558 271 1558 271 1550.5 258.5 c 128,-1,50
 1543 246 1543 246 1538 246 c 2,51,-1
 1463 246 l 2,52,53
 1450 246 1450 246 1447 233 c 2,54,-1
 1405 78 l 2,0,1
391 687 m 18,55,56
 374 625 374 625 374 598 c 128,-1,57
 374 571 374 571 393.5 563 c 128,-1,58
 413 555 413 555 466 555 c 0,59,60
 472 555 472 555 472 546 c 128,-1,61
 472 537 472 537 469.5 528.5 c 128,-1,62
 467 520 467 520 457 520 c 1,63,64
 404 525 404 525 293.5 525 c 128,-1,65
 183 525 183 525 130 520 c 1,66,67
 124 520 124 520 124 529.5 c 128,-1,68
 124 539 124 539 127 547 c 128,-1,69
 130 555 130 555 140 555 c 0,70,71
 218 555 218 555 245 576.5 c 128,-1,72
 272 598 272 598 296 686 c 2,73,-1
 440 1226 l 2,74,75
 443 1237 443 1237 443 1243 c 0,76,77
 443 1254 443 1254 435.5 1254 c 128,-1,78
 428 1254 428 1254 418 1250 c 2,79,-1
 330 1214 l 2,80,81
 321 1210 321 1210 319 1224 c 128,-1,82
 317 1238 317 1238 325 1242 c 0,83,84
 425 1285 425 1285 559 1372 c 0,85,86
 568 1377 568 1377 574 1377 c 128,-1,87
 580 1377 580 1377 580 1371 c 1,88,89
 558 1310 558 1310 545 1262 c 2,90,-1
 391 687 l 18,55,56
329 -82 m 2,91,92
 324 -88 324 -88 312 -88 c 128,-1,93
 300 -88 300 -88 284.5 -72 c 128,-1,94
 269 -56 269 -56 269 -44.5 c 128,-1,95
 269 -33 269 -33 273 -29 c 2,96,-1
 1414 1339 l 2,97,98
 1418 1343 1418 1343 1428.5 1343 c 128,-1,99
 1439 1343 1439 1343 1457.5 1326.5 c 128,-1,100
 1476 1310 1476 1310 1476 1301 c 128,-1,101
 1476 1292 1476 1292 1473 1288 c 2,102,-1
 329 -82 l 2,91,92
EndSplineSet
LCarets2: 2 0 0 
Ligature2: "'frac' Diagonal Fractions in Latin lookup 2" one fraction four
Ligature2: "'frac' Diagonal Fractions in Latin lookup 2" one slash four
EndChar

StartChar: onehalf
Encoding: 189 189 124
Width: 1690
GlyphClass: 2
Flags: W
LayerCount: 2
Fore
SplineSet
1145 110 m 0,0,1
 1131 98 1131 98 1131 90.5 c 128,-1,2
 1131 83 1131 83 1147 83 c 2,3,-1
 1332 83 l 2,4,5
 1431 83 1431 83 1479 119 c 0,6,7
 1501 135 1501 135 1520 160 c 0,8,9
 1522 164 1522 164 1537.5 164 c 128,-1,10
 1553 164 1553 164 1553 152 c 0,11,12
 1553 150 1553 150 1552 150 c 2,13,-1
 1454 14 l 2,14,15
 1439 -7 1439 -7 1416 -7 c 9,16,17
 1340 -2 1340 -2 1207.5 -2 c 128,-1,18
 1075 -2 1075 -2 994 -7 c 17,19,20
 973 -7 973 -7 973 12 c 0,21,22
 973 22 973 22 982 28 c 0,23,24
 1159 173 1159 173 1279 291.5 c 128,-1,25
 1399 410 1399 410 1461.5 498 c 128,-1,26
 1524 586 1524 586 1524 650 c 256,27,28
 1524 701 1524 701 1495 724.5 c 128,-1,29
 1466 748 1466 748 1423 748 c 0,30,31
 1332 748 1332 748 1240 635 c 0,32,33
 1237 632 1237 632 1229 632 c 128,-1,34
 1221 632 1221 632 1214.5 639.5 c 128,-1,35
 1208 647 1208 647 1208 649.5 c 128,-1,36
 1208 652 1208 652 1210 653 c 0,37,38
 1265 726 1265 726 1341.5 776.5 c 128,-1,39
 1418 827 1418 827 1499 827 c 256,40,41
 1566 827 1566 827 1604 786.5 c 128,-1,42
 1642 746 1642 746 1642 683 c 0,43,44
 1642 595 1642 595 1568.5 499.5 c 128,-1,45
 1495 404 1495 404 1145 110 c 0,0,1
397 688 m 18,46,47
 380 625 380 625 380 597.5 c 128,-1,48
 380 570 380 570 399.5 562.5 c 128,-1,49
 419 555 419 555 473 555 c 0,50,51
 479 555 479 555 479 545.5 c 128,-1,52
 479 536 479 536 476 527.5 c 128,-1,53
 473 519 473 519 463 519 c 1,54,55
 410 524 410 524 298 524 c 128,-1,56
 186 524 186 524 133 519 c 1,57,58
 127 519 127 519 127 528.5 c 128,-1,59
 127 538 127 538 130 546.5 c 128,-1,60
 133 555 133 555 143 555 c 0,61,62
 222 555 222 555 249 576 c 128,-1,63
 276 597 276 597 300 687 c 2,64,-1
 446 1234 l 2,65,66
 449 1245 449 1245 450 1250 c 0,67,68
 450 1261 450 1261 442 1261.5 c 128,-1,69
 434 1262 434 1262 424 1257 c 2,70,-1
 335 1222 l 2,71,72
 326 1218 326 1218 324 1232 c 128,-1,73
 322 1246 322 1246 330 1250 c 0,74,75
 431 1294 431 1294 567 1381 c 0,76,77
 576 1386 576 1386 581.5 1386 c 128,-1,78
 587 1386 587 1386 587 1380 c 1,79,80
 565 1318 565 1318 552 1269 c 2,81,-1
 397 688 l 18,46,47
292 -82 m 2,82,83
 287 -88 287 -88 275 -88 c 128,-1,84
 263 -88 263 -88 247.5 -72 c 128,-1,85
 232 -56 232 -56 232 -44.5 c 128,-1,86
 232 -33 232 -33 236 -29 c 2,87,-1
 1377 1339 l 2,88,89
 1381 1343 1381 1343 1391.5 1343 c 128,-1,90
 1402 1343 1402 1343 1420.5 1326.5 c 128,-1,91
 1439 1310 1439 1310 1439 1301 c 128,-1,92
 1439 1292 1439 1292 1436 1288 c 2,93,-1
 292 -82 l 2,82,83
EndSplineSet
LCarets2: 2 0 0 
Ligature2: "'frac' Diagonal Fractions in Latin lookup 2" one fraction two
Ligature2: "'frac' Diagonal Fractions in Latin lookup 2" one slash two
EndChar

StartChar: threequarters
Encoding: 190 190 125
Width: 1690
GlyphClass: 2
Flags: W
LayerCount: 2
Fore
SplineSet
620 807 m 0,0,1
 620 665 620 665 498 553.5 c 128,-1,2
 376 442 376 442 223.5 442 c 128,-1,3
 71 442 71 442 71 525 c 0,4,5
 71 556 71 556 96.5 573.5 c 128,-1,6
 122 591 122 591 143 591 c 256,7,8
 164 591 164 591 196 541.5 c 128,-1,9
 228 492 228 492 280 492 c 0,10,11
 365 492 365 492 432.5 590 c 128,-1,12
 500 688 500 688 500 780 c 0,13,14
 500 918 500 918 356 918 c 0,15,16
 312 918 312 918 278 908 c 0,17,18
 273 908 273 908 273 923 c 128,-1,19
 273 938 273 938 280 949.5 c 128,-1,20
 287 961 287 961 292 961 c 0,21,22
 402 961 402 961 490 1022 c 128,-1,23
 578 1083 578 1083 578 1183 c 0,24,25
 578 1230 578 1230 551 1254 c 128,-1,26
 524 1278 524 1278 483 1278 c 0,27,28
 403 1278 403 1278 320 1186 c 0,29,30
 318 1184 318 1184 310.5 1184 c 128,-1,31
 303 1184 303 1184 296.5 1193.5 c 128,-1,32
 290 1203 290 1203 290 1206.5 c 128,-1,33
 290 1210 290 1210 292 1213 c 0,34,35
 419 1348 419 1348 546 1349 c 0,36,37
 611 1349 611 1349 648 1311 c 128,-1,38
 685 1273 685 1273 685 1215 c 0,39,40
 685 1065 685 1065 508 980 c 0,41,42
 481 967 481 967 481 962 c 128,-1,43
 481 957 481 957 498 953 c 0,44,45
 620 925 620 925 620 807 c 0,0,1
336 -82 m 2,46,47
 331 -88 331 -88 319 -88 c 128,-1,48
 307 -88 307 -88 291.5 -72 c 128,-1,49
 276 -56 276 -56 276 -44.5 c 128,-1,50
 276 -33 276 -33 280 -29 c 2,51,-1
 1421 1339 l 2,52,53
 1425 1343 1425 1343 1435.5 1343 c 128,-1,54
 1446 1343 1446 1343 1464.5 1326.5 c 128,-1,55
 1483 1310 1483 1310 1483 1301 c 128,-1,56
 1483 1292 1483 1292 1480 1288 c 2,57,-1
 336 -82 l 2,46,47
1304 87 m 2,58,59
 1302 79 1302 79 1303 73 c 0,60,61
 1303 34 1303 34 1361 34 c 0,62,63
 1367 34 1367 34 1366.5 23 c 128,-1,64
 1366 12 1366 12 1363.5 3.5 c 128,-1,65
 1361 -5 1361 -5 1352 -5 c 1,66,67
 1303 0 1303 0 1228 0 c 128,-1,68
 1153 0 1153 0 1104 -5 c 1,69,70
 1098 -5 1098 -5 1098.5 6 c 128,-1,71
 1099 17 1099 17 1102 25.5 c 128,-1,72
 1105 34 1105 34 1113 34 c 0,73,74
 1204 34 1204 34 1216 87 c 2,75,-1
 1254 255 l 2,76,77
 1257 269 1257 269 1245 269 c 2,78,-1
 970 269 l 2,79,80
 936 269 936 269 936 288.5 c 128,-1,81
 936 308 936 308 978 357 c 2,82,-1
 1152 564 l 2,83,84
 1364 818 1364 818 1487 979 c 0,85,86
 1495 987 1495 987 1517.5 987 c 128,-1,87
 1540 987 1540 987 1540 971 c 0,88,89
 1540 968 1540 968 1540 967 c 2,90,-1
 1029 350 l 2,91,92
 1021 340 1021 340 1021 334 c 128,-1,93
 1021 328 1021 328 1034 328 c 2,94,-1
 1258 328 l 2,95,96
 1270 328 1270 328 1273 342 c 2,97,-1
 1342 647 l 2,98,99
 1344 657 1344 657 1387 657.5 c 128,-1,100
 1430 658 1430 658 1430 647 c 2,101,-1
 1362 342 l 2,102,103
 1359 328 1359 328 1370 328 c 2,104,-1
 1438 328 l 2,105,106
 1443 328 1443 328 1443 312 c 128,-1,107
 1443 296 1443 296 1436 282.5 c 128,-1,108
 1429 269 1429 269 1425 269 c 2,109,-1
 1357 269 l 2,110,111
 1345 269 1345 269 1342 255 c 2,112,-1
 1304 87 l 2,58,59
EndSplineSet
LCarets2: 2 0 0 
Ligature2: "'frac' Diagonal Fractions in Latin lookup 2" three fraction four
Ligature2: "'frac' Diagonal Fractions in Latin lookup 2" three slash four
EndChar

StartChar: questiondown
Encoding: 191 191 126
Width: 678
GlyphClass: 2
Flags: W
LayerCount: 2
Fore
SplineSet
593 748 m 128,-1,1
 593 705 593 705 561 667 c 128,-1,2
 529 629 529 629 469 629 c 128,-1,3
 409 629 409 629 379.5 667.5 c 128,-1,4
 350 706 350 706 350 754.5 c 128,-1,5
 350 803 350 803 383.5 834 c 128,-1,6
 417 865 417 865 474 865 c 128,-1,7
 531 865 531 865 562 828 c 128,-1,0
 593 791 593 791 593 748 c 128,-1,1
262 -420 m 0,8,9
 262 -464 262 -464 226 -493 c 128,-1,10
 190 -522 190 -522 150 -522 c 0,11,12
 47 -522 47 -522 -28.5 -428 c 128,-1,13
 -104 -334 -104 -334 -104 -219 c 256,14,15
 -104 -104 -104 -104 -51.5 -13 c 128,-1,16
 1 78 1 78 47 99 c 2,17,-1
 238 187 l 2,18,19
 326 227 326 227 338 277 c 0,20,21
 354 322 354 322 355 402 c 0,22,23
 355 415 355 415 377.5 419.5 c 128,-1,24
 400 424 400 424 402 414 c 0,25,26
 426 326 426 326 426 265 c 0,27,28
 426 128 426 128 260 52 c 2,29,-1
 140 -4 l 2,30,31
 -30 -82 -30 -82 -30 -215 c 0,32,33
 -30 -354 -30 -354 213 -354 c 0,34,35
 229 -354 229 -354 245.5 -373.5 c 128,-1,36
 262 -393 262 -393 262 -420 c 0,8,9
EndSplineSet
Comment: "last+AD0A-36" 
Colour: ffffff
EndChar

StartChar: Ccedilla
Encoding: 199 199 134
Width: 1470
GlyphClass: 2
Flags: W
LayerCount: 2
Fore
SplineSet
1183 36 m 1,0,1
 1149 31 1149 31 1101 19 c 0,2,3
 959 -19 959 -19 789 -25 c 1,4,-1
 747 -80 l 2,5,6
 729 -103 729 -103 757 -125 c 0,7,8
 833 -186 833 -186 833 -256.5 c 128,-1,9
 833 -327 833 -327 767 -375.5 c 128,-1,10
 701 -424 701 -424 624 -424 c 0,11,12
 522 -424 522 -424 522 -358 c 0,13,14
 522 -309 522 -309 573 -309 c 0,15,16
 593 -309 593 -309 623 -339 c 128,-1,17
 653 -369 653 -369 665 -369 c 0,18,19
 722 -368 722 -368 722 -298 c 0,20,21
 722 -235 722 -235 631 -187 c 0,22,23
 610 -176 610 -176 623 -157 c 2,24,-1
 721 -27 l 1,25,26
 717 -27 717 -27 712 -27 c 0,27,28
 497 -27 497 -27 356 103 c 128,-1,29
 215 233 215 233 215 458 c 0,30,31
 215 813 215 813 505.5 1099 c 128,-1,32
 796 1385 796 1385 1149 1385 c 0,33,34
 1296 1385 1296 1385 1387.5 1363.5 c 128,-1,35
 1479 1342 1479 1342 1573 1327 c 1,36,37
 1558 1169 1558 1169 1514 1019 c 1,38,39
 1506 1002 1506 1002 1474.5 1002 c 128,-1,40
 1443 1002 1443 1002 1444 1014 c 0,41,42
 1452 1074 1452 1074 1452 1092 c 0,43,44
 1452 1194 1452 1194 1377 1254 c 128,-1,45
 1302 1314 1302 1314 1134 1314 c 0,46,47
 816 1314 816 1314 597 1041 c 128,-1,48
 378 768 378 768 378 459 c 0,49,50
 378 283 378 283 480 165.5 c 128,-1,51
 582 48 582 48 755 48 c 0,52,53
 930 48 930 48 1048 103 c 128,-1,54
 1166 158 1166 158 1214 218.5 c 128,-1,55
 1262 279 1262 279 1285 317 c 0,56,57
 1292 327 1292 327 1321 327 c 128,-1,58
 1350 327 1350 327 1350 307.5 c 128,-1,59
 1350 288 1350 288 1279 176 c 128,-1,60
 1208 64 1208 64 1183 36 c 1,0,1
EndSplineSet
Ligature2: "'ccmp' Glyph Composition/Decomposition in Latin single" C uni0327
LCarets2: 1 0 
EndChar

StartChar: multiply
Encoding: 215 215 150
Width: 973
GlyphClass: 2
Flags: W
LayerCount: 2
Fore
SplineSet
924 721 m 1,0,-1
 621 412 l 1,1,-1
 924 104 l 1,2,-1
 848 23 l 1,3,-1
 543 334 l 1,4,-1
 240 23 l 1,5,-1
 164 104 l 1,6,-1
 465 412 l 1,7,-1
 164 715 l 1,8,-1
 240 797 l 1,9,-1
 543 489 l 1,10,-1
 848 801 l 1,11,-1
 924 721 l 1,0,-1
EndSplineSet
Comment: "last+AD0A-11" 
Colour: ffffff
EndChar

StartChar: Oslash
Encoding: 216 216 151
Width: 1478
GlyphClass: 2
Flags: W
AnchorPoint: "above" 1084 1415 basechar 0
LayerCount: 2
Fore
SplineSet
1544 1376 m 2,0,-1
 1417 1240 l 1,1,-1
 1423 1232 l 2,2,3
 1534 1097 1534 1097 1534 886 c 0,4,5
 1534 536 1534 536 1249 244 c 0,6,7
 984 -27 984 -27 672 -27 c 0,8,9
 486 -27 486 -27 349 91 c 1,10,-1
 186 -84 l 2,11,12
 183 -87 183 -87 179 -87 c 0,13,14
 166 -87 166 -87 147 -68 c 0,15,16
 128 -50 128 -50 128 -37 c 0,17,18
 128 -34 128 -34 130 -32 c 2,19,-1
 298 148 l 1,20,21
 217 264 217 264 217 441 c 0,22,23
 217 831 217 831 543 1143 c 0,24,25
 797 1385 797 1385 1079 1385 c 0,26,27
 1251 1385 1251 1385 1363 1294 c 1,28,-1
 1488 1427 l 2,29,30
 1490 1429 1490 1429 1493 1429 c 0,31,32
 1506 1429 1506 1429 1526 1410 c 0,33,34
 1545 1394 1545 1394 1545 1381 c 0,35,36
 1545 1377 1545 1377 1544 1376 c 2,0,-1
1274 1198 m 1,37,38
 1181 1313 1181 1313 1039 1315 c 0,39,40
 884 1315 884 1315 740 1199 c 0,41,42
 563 1057 563 1057 465 844 c 0,43,44
 380 653 380 653 380 464 c 0,45,46
 380 361 380 361 413 273 c 1,47,-1
 1274 1198 l 1,37,38
1371 886 m 0,48,49
 1371 1023 1371 1023 1316 1131 c 1,50,-1
 450 201 l 1,51,52
 498 125 498 125 577 82 c 0,53,54
 643 46 643 46 707 46 c 0,55,56
 918 46 918 46 1081 205 c 0,57,58
 1219 342 1219 342 1300 552 c 0,59,60
 1371 734 1371 734 1371 886 c 0,48,49
EndSplineSet
EndChar

StartChar: eth
Encoding: 240 240 175
Width: 827
GlyphClass: 2
Flags: W
AnchorPoint: "above" 564 1545 basechar 0
LayerCount: 2
Fore
SplineSet
686 627 m 0,0,1
 686 768 686 768 553 768 c 0,2,3
 453 768 453 768 335 580 c 128,-1,4
 217 392 217 392 217 215 c 0,5,6
 217 57 217 57 358 57 c 0,7,8
 460 57 460 57 573 249 c 128,-1,9
 686 441 686 441 686 627 c 0,0,1
817 645 m 0,10,11
 817 340 817 340 685 156.5 c 128,-1,12
 553 -27 553 -27 336 -27 c 0,13,14
 96 -27 96 -27 96 303 c 0,15,16
 96 522 96 522 249 687 c 128,-1,17
 402 852 402 852 567 852 c 0,18,19
 607 852 607 852 633 844 c 1,20,21
 573 963 573 963 463 1053 c 1,22,-1
 170 864 l 2,23,24
 166 862 166 862 163 862 c 0,25,26
 149 862 149 862 117 967 c 0,27,28
 109 995 109 995 115 995 c 0,29,30
 117 995 117 995 148.5 977 c 128,-1,31
 180 959 180 959 204 959 c 128,-1,32
 228 959 228 959 246 971 c 2,33,-1
 422 1085 l 1,34,35
 312 1168 312 1168 125 1245 c 0,36,37
 117 1248 117 1248 117 1263.5 c 128,-1,38
 117 1279 117 1279 132 1294.5 c 128,-1,39
 147 1310 147 1310 156 1307 c 0,40,41
 362 1238 362 1238 508 1141 c 1,42,-1
 809 1339 l 2,43,44
 813 1341 813 1341 816 1341 c 0,45,46
 835 1341 835 1341 873 1258 c 0,47,48
 891 1219 891 1219 881 1219 c 1,49,50
 875 1219 875 1219 836.5 1231 c 128,-1,51
 798 1243 798 1243 777 1243 c 128,-1,52
 756 1243 756 1243 743 1235 c 2,53,-1
 553 1112 l 1,54,55
 817 914 817 914 817 645 c 0,10,11
EndSplineSet
Substitution2: "Single Substitution untagged lookup-1" eth.alt
Substitution2: "'ss01' Style Set 1 in Latin lookup 12" eth.nordic
Substitution2: "'locl' Localized Forms in Latin lookup 8" eth.nordic
Comment: "last+AD0A-55" 
Colour: ffffff
EndChar

StartChar: oslash
Encoding: 248 248 183
Width: 838
GlyphClass: 2
Flags: W
AnchorPoint: "below" 327 -75 basechar 0
AnchorPoint: "above" 594 900 basechar 0
LayerCount: 2
Fore
SplineSet
757 922 m 0,0,1
 775 922 775 922 794 903 c 0,2,3
 802 895 802 895 802 889 c 0,4,5
 802 886 802 886 801 885 c 2,6,-1
 738 789 l 1,7,8
 818 706 818 706 819 537 c 2,9,-1
 816 467 l 2,10,11
 798 303 798 303 693 163 c 0,12,13
 552 -27 552 -27 338 -27 c 0,14,15
 275 -27 275 -27 226 1 c 1,16,-1
 158 -103 l 2,17,18
 154 -109 154 -109 146 -109 c 0,19,20
 128 -109 128 -109 112 -90 c 0,21,22
 105 -82 105 -82 105 -76 c 1,23,-1
 107 -70 l 1,24,-1
 178 39 l 1,25,26
 96 127 96 127 96 305 c 0,27,28
 96 501 96 501 247 676 c 0,29,30
 399 852 399 852 578 852 c 0,31,32
 640 852 640 852 689 826 c 1,33,-1
 749 918 l 1,34,35
 750 922 750 922 757 922 c 0,0,1
346 68 m 0,36,37
 433 68 433 68 538 196 c 0,38,39
 639 318 639 318 685 464 c 0,40,41
 707 534 707 534 707 588 c 0,42,43
 707 664 707 664 687 709 c 1,44,-1
 280 84 l 1,45,46
 308 68 308 68 346 68 c 0,36,37
578 768 m 0,47,48
 483 768 483 768 377 636 c 0,49,50
 277 510 277 510 233 357 c 0,51,52
 213 287 213 287 213 231 c 0,53,54
 213 169 213 169 236 128 c 1,55,-1
 643 756 l 1,56,57
 619 768 619 768 578 768 c 0,47,48
EndSplineSet
EndChar

StartChar: thorn
Encoding: 254 254 189
Width: 838
GlyphClass: 2
Flags: W
AnchorPoint: "above" 612 1545 basechar 0
LayerCount: 2
Back
SplineSet
108 -24 m 2,18,-1
 351 1038 l 2,19,20
EndSplineSet
Fore
SplineSet
838 682 m 0,0,1
 838 598 838 598 800.5 476.5 c 128,-1,2
 763 355 763 355 649 235 c 128,-1,3
 535 115 535 115 419.5 45 c 128,-1,4
 304 -25 304 -25 229 -25 c 1,5,-1
 154 -410 l 2,6,7
 147 -448 147 -448 117.5 -482.5 c 128,-1,8
 88 -517 88 -517 5 -538 c 128,-1,9
 -78 -559 -78 -559 -86 -559 c 256,10,11
 -96 -559 -96 -559 -102 -538 c 0,12,13
 -105 -528 -105 -528 -105 -522 c 0,14,15
 -105 -514 -105 -514 -100 -512 c 0,16,17
 -59 -500 -59 -500 -14 -461 c 128,-1,18
 31 -422 31 -422 39 -379 c 2,19,-1
 337 1187 l 2,20,21
 346 1234 346 1234 346 1262 c 0,22,23
 346 1359 346 1359 259 1359 c 0,24,25
 244 1359 244 1359 244 1385.5 c 128,-1,26
 244 1412 244 1412 259 1412 c 0,27,28
 327 1412 327 1412 407 1448 c 128,-1,29
 487 1484 487 1484 493 1484 c 0,30,31
 508 1484 508 1484 505 1466 c 2,32,-1
 348 612 l 1,33,34
 489 852 489 852 666 852 c 0,35,36
 838 852 838 852 838 682 c 0,0,1
705 672 m 0,37,38
 705 782 705 782 610 782 c 0,39,40
 536 782 536 782 436.5 669.5 c 128,-1,41
 337 557 337 557 315 438 c 2,42,-1
 238 31 l 1,43,44
 336 31 336 31 483.5 172.5 c 128,-1,45
 631 314 631 314 668 449.5 c 128,-1,46
 705 585 705 585 705 672 c 0,37,38
EndSplineSet
Substitution2: "'ss19' Latin to Gothic transliteration subtable" u10338
Substitution2: "'ss01' Style Set 1 in Latin lookup 12" thorn.nordic
Substitution2: "'locl' Localized Forms in Latin lookup 8" thorn.nordic
Comment: "last+AD0A-46" 
Colour: ffffff
EndChar

StartChar: Aogonek
Encoding: 260 260 195
Width: 1108
GlyphClass: 2
Flags: W
LayerCount: 2
Fore
SplineSet
824 629 m 2,0,-1
 886 1159 l 2,1,2
 887 1168 887 1168 874.5 1168 c 128,-1,3
 862 1168 862 1168 856 1159 c 2,4,-1
 503 629 l 1,5,6
 495 619 495 619 495 609.5 c 128,-1,7
 495 600 495 600 514 600 c 2,8,-1
 789 600 l 2,9,10
 821 600 821 600 824 629 c 2,0,-1
909 186 m 2,11,12
 908 179 908 179 908 165 c 0,13,14
 908 69 908 69 1052 69 c 0,15,16
 1060 69 1060 69 1060 48 c 128,-1,17
 1060 27 1060 27 1048.5 10 c 128,-1,18
 1037 -7 1037 -7 1032 -7 c 1,19,20
 952 -1 952 -1 842 -0 c 1,21,22
 628 -141 628 -141 628 -271.5 c 128,-1,23
 628 -402 628 -402 755 -402 c 0,24,25
 801 -402 801 -402 866 -373 c 1,26,27
 881 -376 881 -376 881 -390 c 0,28,29
 881 -396 881 -396 880 -398 c 0,30,31
 806 -488 806 -488 673 -488 c 0,32,33
 494 -488 494 -488 494 -310 c 0,34,35
 494 -163 494 -163 756 -0 c 1,36,37
 671 -1 671 -1 607 -7 c 1,38,39
 599 -7 599 -7 599.5 13.5 c 128,-1,40
 600 34 600 34 611 51.5 c 128,-1,41
 622 69 622 69 629 69 c 0,42,43
 710 69 710 69 738 99.5 c 128,-1,44
 766 130 766 130 773 186 c 2,45,-1
 810 496 l 2,46,47
 814 531 814 531 782 531 c 2,48,-1
 472 531 l 2,49,50
 441 531 441 531 424 506 c 2,51,-1
 214 182 l 2,52,53
 191 147 191 147 191 124 c 0,54,55
 191 69 191 69 323 69 c 0,56,57
 330 69 330 69 330 48 c 128,-1,58
 330 27 330 27 319 10 c 128,-1,59
 308 -7 308 -7 302 -7 c 1,60,61
 216 0 216 0 89 0 c 128,-1,62
 -38 0 -38 0 -124 -7 c 1,63,64
 -132 -7 -132 -7 -132 13 c 128,-1,65
 -132 33 -132 33 -121 51 c 128,-1,66
 -110 69 -110 69 -104 69 c 0,67,68
 -28 69 -28 69 22 91 c 128,-1,69
 72 113 72 113 132 201 c 2,70,-1
 806 1199 l 2,71,72
 822 1222 822 1222 822 1237 c 0,73,74
 822 1244 822 1244 814 1255 c 128,-1,75
 806 1266 806 1266 806 1273 c 0,76,77
 806 1283 806 1283 831 1293 c 0,78,79
 929 1332 929 1332 976.5 1358.5 c 128,-1,80
 1024 1385 1024 1385 1039.5 1385 c 128,-1,81
 1055 1385 1055 1385 1055 1367 c 0,82,83
 1055 1360 1055 1360 1046.5 1322 c 128,-1,84
 1038 1284 1038 1284 1026 1179 c 2,85,-1
 909 186 l 2,11,12
EndSplineSet
Ligature2: "'ccmp' Glyph Composition/Decomposition in Latin single" A uni0328
LCarets2: 1 0 
EndChar

StartChar: aogonek
Encoding: 261 261 196
Width: 918
GlyphClass: 2
Flags: W
AnchorPoint: "above" 612 900 basechar 0
LayerCount: 2
Fore
SplineSet
680 -398 m 0,0,1
 606 -488 606 -488 473 -488 c 0,2,3
 294 -488 294 -488 294 -310 c 0,4,5
 294 -165 294 -165 549 -5 c 1,6,7
 535 15 535 15 535 52 c 0,8,9
 535 108 535 108 559 172 c 2,10,-1
 602 287 l 1,11,-1
 590 291 l 1,12,13
 352 -27 352 -27 186 -27 c 0,14,15
 126 -27 126 -27 94.5 21 c 128,-1,16
 63 69 63 69 63 141 c 0,17,18
 63 352 63 352 236.5 598 c 128,-1,19
 410 844 410 844 604 844 c 0,20,21
 676 844 676 844 737 788 c 1,22,-1
 761 858 l 2,23,24
 769 882 769 882 824.5 882 c 128,-1,25
 880 882 880 882 880 863 c 0,26,27
 880 861 880 861 879 858 c 2,28,-1
 690 203 l 2,29,30
 680 168 680 168 680 144 c 0,31,32
 680 103 680 103 712 103 c 0,33,34
 745 103 745 103 842 197 c 0,35,36
 851 206 851 206 870 186 c 0,37,38
 883 172 883 172 884 164 c 0,39,40
 884 160 884 160 881 156 c 0,41,42
 815 75 815 75 735 24 c 0,43,44
 660 -24 660 -24 603 -27 c 1,45,46
 428 -154 428 -154 428 -272 c 0,47,48
 428 -402 428 -402 555 -402 c 0,49,50
 601 -402 601 -402 666 -373 c 1,51,52
 681 -376 681 -376 681 -390 c 0,53,54
 681 -396 681 -396 680 -398 c 0,0,1
664 543 m 2,55,-1
 709 694 l 1,56,57
 666 778 666 778 578 778 c 0,58,59
 442 778 442 778 326.5 558 c 128,-1,60
 211 338 211 338 211 176 c 0,61,62
 211 82 211 82 270 82 c 0,63,64
 325 82 325 82 425 182.5 c 128,-1,65
 525 283 525 283 581.5 369 c 128,-1,66
 638 455 638 455 664 543 c 2,55,-1
EndSplineSet
Ligature2: "'ccmp' Glyph Composition/Decomposition in Latin single" a uni0328
LCarets2: 1 0 
EndChar

StartChar: eogonek
Encoding: 281 281 216
Width: 696
GlyphClass: 2
Flags: W
AnchorPoint: "above" 602 900 basechar 0
LayerCount: 2
Fore
SplineSet
580 711 m 0,0,1
 580 772 580 772 526 772 c 0,2,3
 452 772 452 772 379.5 669.5 c 128,-1,4
 307 567 307 567 260 420 c 1,5,6
 383 446 383 446 481.5 524 c 128,-1,7
 580 602 580 602 580 711 c 0,0,1
723 737 m 0,8,9
 723 602 723 602 559.5 493 c 128,-1,10
 396 384 396 384 242 356 c 1,11,12
 227 281 227 281 227 238 c 0,13,14
 227 72 227 72 338 72 c 0,15,16
 378 72 378 72 422 93 c 128,-1,17
 466 114 466 114 563 197 c 0,18,19
 570 203 570 203 581.5 197.5 c 128,-1,20
 593 192 593 192 594.5 180.5 c 128,-1,21
 596 169 596 169 592 164 c 0,22,23
 502 54 502 54 410.5 1.5 c 128,-1,24
 319 -51 319 -51 254.5 -120.5 c 128,-1,25
 190 -190 190 -190 190 -272 c 0,26,27
 190 -402 190 -402 317 -402 c 0,28,29
 363 -402 363 -402 428 -373 c 1,30,31
 443 -376 443 -376 443 -390 c 0,32,33
 443 -396 443 -396 442 -398 c 0,34,35
 368 -488 368 -488 235 -488 c 0,36,37
 56 -488 56 -488 56 -310 c 0,38,39
 56 -175 56 -175 278 -26 c 1,40,41
 96 -14 96 -14 96 215 c 0,42,43
 96 406 96 406 256 629 c 128,-1,44
 416 852 416 852 592 852 c 0,45,46
 723 852 723 852 723 737 c 0,8,9
EndSplineSet
Substitution2: "'ss15' Ogonek centered on e-1" eogonek.alt
Ligature2: "'ccmp' Glyph Composition/Decomposition in Latin single" e uni0328
LCarets2: 1 0 
EndChar

StartChar: Gcommaaccent
Encoding: 290 290 225
Width: 1476
GlyphClass: 2
Flags: W
LayerCount: 2
Fore
SplineSet
1245 133 m 2,0,1
 1239 112 1239 112 1239 96.5 c 128,-1,2
 1239 81 1239 81 1256.5 78 c 128,-1,3
 1274 75 1274 75 1274 63 c 0,4,5
 1274 31 1274 31 1252 31 c 0,6,7
 1215 31 1215 31 1075 11 c 128,-1,8
 935 -9 935 -9 870 -18 c 0,9,10
 828 -24 828 -24 778 -26 c 1,11,-1
 737 -80 l 2,12,13
 719 -103 719 -103 747 -125 c 0,14,15
 823 -186 823 -186 823 -256.5 c 128,-1,16
 823 -327 823 -327 757 -375.5 c 128,-1,17
 691 -424 691 -424 614 -424 c 0,18,19
 512 -424 512 -424 512 -358 c 0,20,21
 512 -309 512 -309 563 -309 c 0,22,23
 583 -309 583 -309 613 -339 c 128,-1,24
 643 -369 643 -369 655 -369 c 0,25,26
 712 -368 712 -368 712 -298 c 0,27,28
 712 -235 712 -235 621 -187 c 0,29,30
 600 -176 600 -176 613 -157 c 2,31,-1
 711 -27 l 1,32,33
 497 -24 497 -24 358 104 c 0,34,35
 217 234 217 234 217 454 c 0,36,37
 217 796 217 796 503.5 1090.5 c 128,-1,38
 790 1385 790 1385 1130 1385 c 0,39,40
 1300 1385 1300 1385 1428 1356 c 128,-1,41
 1556 1327 1556 1327 1573 1327 c 1,42,43
 1573 1222 1573 1222 1514 1019 c 0,44,45
 1509 1001 1509 1001 1475.5 1001 c 128,-1,46
 1442 1001 1442 1001 1444 1014 c 0,47,48
 1449 1045 1449 1045 1449 1076 c 0,49,50
 1449 1200 1449 1200 1359 1257 c 128,-1,51
 1269 1314 1269 1314 1103 1314 c 0,52,53
 804 1314 804 1314 592 1046.5 c 128,-1,54
 380 779 380 779 380 475 c 0,55,56
 380 302 380 302 483.5 175 c 0,57,58
 588 48 588 48 780 48 c 0,59,60
 1086 48 1086 48 1120 173 c 2,61,-1
 1173 363 l 2,62,63
 1182 395 1182 395 1182 412 c 0,64,65
 1182 454 1182 454 1139 466 c 128,-1,66
 1096 478 1096 478 978 478 c 0,67,68
 971 478 971 478 971 498.5 c 128,-1,69
 971 519 971 519 982.5 536.5 c 128,-1,70
 994 554 994 554 1001 554 c 1,71,72
 1076 549 1076 549 1261 549 c 128,-1,73
 1446 549 1446 549 1507 554 c 1,74,75
 1515 554 1515 554 1515 534.5 c 128,-1,76
 1515 515 1515 515 1503 496.5 c 128,-1,77
 1491 478 1491 478 1484 478 c 0,78,79
 1390 478 1390 478 1360 456.5 c 128,-1,80
 1330 435 1330 435 1310 363 c 2,81,-1
 1245 133 l 2,0,1
EndSplineSet
Ligature2: "'ccmp' Glyph Composition/Decomposition in Latin single" G uni0327
LCarets2: 1 0 
EndChar

StartChar: hbar
Encoding: 295 295 230
Width: 879
GlyphClass: 2
Flags: W
LayerCount: 2
Fore
SplineSet
870 618 m 0,0,1
 870 436 870 436 763 204.5 c 128,-1,2
 656 -27 656 -27 496 -27 c 0,3,4
 448 -27 448 -27 414.5 2.5 c 128,-1,5
 381 32 381 32 381 61 c 0,6,7
 381 115 381 115 400 138.5 c 128,-1,8
 419 162 419 162 444 162 c 0,9,10
 507 162 507 162 518 110.5 c 128,-1,11
 529 59 529 59 562 59 c 128,-1,12
 595 59 595 59 633 129.5 c 128,-1,13
 671 200 671 200 702 331.5 c 128,-1,14
 733 463 733 463 733 569 c 0,15,16
 733 743 733 743 657 743 c 0,17,18
 540 743 540 743 344 461 c 0,19,20
 294 389 294 389 252 221 c 2,21,-1
 197 0 l 2,22,23
 190 -27 190 -27 135 -27 c 0,24,25
 76 -27 76 -27 76 -4 c 2,26,-1
 76 0 l 1,27,-1
 320 1048 l 1,28,-1
 150 1048 l 2,29,30
 143 1048 143 1048 143 1066 c 128,-1,31
 143 1084 143 1084 155 1113 c 128,-1,32
 167 1142 167 1142 178 1142 c 2,33,-1
 341 1142 l 1,34,-1
 355 1201 l 2,35,36
 371 1270 371 1270 371 1304 c 0,37,38
 371 1377 371 1377 294 1377 c 0,39,40
 279 1377 279 1377 279 1403 c 128,-1,41
 279 1429 279 1429 294 1429 c 0,42,43
 370 1429 370 1429 445.5 1456.5 c 128,-1,44
 521 1484 521 1484 525 1484 c 0,45,46
 542 1484 542 1484 538 1466 c 2,47,-1
 463 1142 l 1,48,-1
 629 1142 l 2,49,50
 635 1142 635 1142 635 1127 c 128,-1,51
 635 1112 635 1112 621.5 1080 c 128,-1,52
 608 1048 608 1048 596 1048 c 2,53,-1
 442 1048 l 1,54,-1
 326 545 l 1,55,-1
 336 535 l 1,56,57
 524 852 524 852 707 852 c 0,58,59
 870 852 870 852 870 618 c 0,0,1
EndSplineSet
Comment: "last+AD0A-59" 
Colour: ffffff
EndChar

StartChar: Iogonek
Encoding: 302 302 237
Width: 729
GlyphClass: 2
Flags: W
LayerCount: 2
Fore
SplineSet
407 186 m 2,0,1
 401 166 401 166 401 152 c 0,2,3
 401 69 401 69 558 69 c 0,4,5
 565 69 565 69 565 47.5 c 128,-1,6
 565 26 565 26 554 9.5 c 128,-1,7
 543 -7 543 -7 536 -7 c 1,8,9
 467 -1 467 -1 345 -0 c 1,10,11
 132 -141 132 -141 131.5 -271.5 c 128,-1,12
 131 -402 131 -402 258 -402 c 0,13,14
 304 -402 304 -402 369 -373 c 1,15,16
 384 -376 384 -376 384 -390 c 0,17,18
 384 -396 384 -396 383 -398 c 0,19,20
 309 -488 309 -488 176 -488 c 0,21,22
 -3 -488 -3 -488 -3 -310 c 0,23,24
 -3 -163 -3 -163 260 -0 c 1,25,26
 109 0 109 0 29 -7 c 1,27,28
 21 -7 21 -7 21 13 c 128,-1,29
 21 33 21 33 32 51 c 128,-1,30
 43 69 43 69 49 69 c 0,31,32
 137 69 137 69 189 90.5 c 128,-1,33
 241 112 241 112 262 186 c 2,34,-1
 545 1172 l 1,35,36
 550 1194 550 1194 550 1207 c 0,37,38
 550 1287 550 1287 394 1287 c 0,39,40
 386 1287 386 1287 386 1308 c 128,-1,41
 386 1329 386 1329 397 1346 c 128,-1,42
 408 1363 408 1363 414 1363 c 1,43,44
 460 1358 460 1358 669 1358 c 128,-1,45
 878 1358 878 1358 924 1363 c 1,46,47
 932 1363 932 1363 932 1342 c 128,-1,48
 932 1321 932 1321 921 1304 c 128,-1,49
 910 1287 910 1287 904 1287 c 0,50,51
 790 1287 790 1287 748 1259.5 c 128,-1,52
 706 1232 706 1232 689 1172 c 2,53,-1
 407 186 l 2,0,1
EndSplineSet
Ligature2: "'ccmp' Glyph Composition/Decomposition in Latin single" I uni0328
LCarets2: 1 0 
EndChar

StartChar: iogonek
Encoding: 303 303 238
Width: 528
GlyphClass: 2
Flags: W
LayerCount: 2
Fore
SplineSet
320 -398 m 0,0,1
 246 -488 246 -488 113 -488 c 0,2,3
 -66 -488 -66 -488 -66 -310 c 0,4,5
 -66 -171 -66 -171 167 -19 c 1,6,7
 141 -1 141 -1 141 60 c 0,8,9
 141 98 141 98 152 137 c 2,10,-1
 289 625 l 2,11,12
 294 643 294 643 294 661 c 0,13,14
 294 711 294 711 269.5 711 c 128,-1,15
 245 711 245 711 152 623 c 0,16,17
 143 614 143 614 124 634 c 0,18,19
 111 648 111 648 111 657 c 0,20,21
 111 660 111 660 113 663 c 0,22,23
 150 722 150 722 238.5 787 c 128,-1,24
 327 852 327 852 385 852 c 0,25,26
 441 852 441 852 441 766 c 0,27,28
 441 729 441 729 430 690 c 2,29,-1
 293 203 l 2,30,31
 282 164 282 164 282 142 c 0,32,33
 282 102 282 102 310.5 102 c 128,-1,34
 339 102 339 102 442 195 c 0,35,36
 451 203 451 203 469 186 c 0,37,38
 483 173 483 173 483 164 c 0,39,40
 483 161 483 161 481 158 c 0,41,42
 461 123 461 123 363 48 c 0,43,44
 310 7 310 7 265 -11 c 1,45,46
 68 -146 68 -146 68 -272 c 0,47,48
 68 -402 68 -402 195 -402 c 0,49,50
 241 -402 241 -402 306 -373 c 1,51,52
 321 -376 321 -376 321 -390 c 0,53,54
 321 -396 321 -396 320 -398 c 0,0,1
540 1135 m 0,55,56
 540 1077 540 1077 506.5 1043.5 c 128,-1,57
 473 1010 473 1010 428 1010 c 0,58,59
 341 1010 341 1010 341 1100 c 0,60,61
 341 1152 341 1152 376 1188.5 c 128,-1,62
 411 1225 411 1225 455 1225 c 0,63,64
 540 1224 540 1224 540 1135 c 0,55,56
EndSplineSet
Ligature2: "'ccmp' Glyph Composition/Decomposition in Latin single" i uni0328
LCarets2: 1 0 
EndChar

StartChar: kgreenlandic
Encoding: 312 312 247
Width: 995
GlyphClass: 2
Flags: W
LayerCount: 2
Fore
SplineSet
900 50 m 0,0,1
 800 -34 800 -34 714 -34 c 256,2,3
 655 -34 655 -34 615.5 -4.5 c 128,-1,4
 576 25 576 25 552 104 c 2,5,-1
 517 221 l 2,6,7
 484 332 484 332 403 399 c 0,8,9
 380 418 380 418 358 418 c 128,-1,10
 336 418 336 418 330 391 c 2,11,-1
 277 139 l 2,12,13
 275 129 275 129 275 119 c 0,14,15
 275 59 275 59 366 59 c 0,16,17
 376 59 376 59 376 40 c 128,-1,18
 376 21 376 21 369.5 7.5 c 128,-1,19
 363 -6 363 -6 352 -6 c 1,20,21
 270 0 270 0 159.5 0 c 128,-1,22
 49 0 49 0 -18 -6 c 1,23,24
 -28 -6 -28 -6 -28 12 c 128,-1,25
 -28 30 -28 30 -21 44.5 c 128,-1,26
 -14 59 -14 59 -4 59 c 0,27,28
 106 59 106 59 123 139 c 2,29,-1
 245 715 l 2,30,31
 247 724 247 724 247 733 c 0,32,33
 247 795 247 795 146 795 c 0,34,35
 136 795 136 795 136 814 c 128,-1,36
 136 833 136 833 144 845.5 c 128,-1,37
 152 858 152 858 160 858 c 1,38,39
 224 854 224 854 356.5 854 c 128,-1,40
 489 854 489 854 540 858 c 1,41,42
 550 858 550 858 550 840 c 128,-1,43
 550 822 550 822 543 808.5 c 128,-1,44
 536 795 536 795 526 795 c 0,45,46
 416 795 416 795 399 715 c 2,47,-1
 363 547 l 2,48,49
 359 526 359 526 384.5 526 c 128,-1,50
 410 526 410 526 451 565 c 2,51,-1
 677 781 l 2,52,53
 770 870 770 870 882 870 c 0,54,55
 927 870 927 870 950.5 845 c 128,-1,56
 974 820 974 820 974 789 c 0,57,58
 974 737 974 737 935 703.5 c 128,-1,59
 896 670 896 670 867 670 c 256,60,61
 838 670 838 670 809.5 694.5 c 128,-1,62
 781 719 781 719 748 719 c 256,63,64
 715 719 715 719 647 657 c 2,65,-1
 526 547 l 2,66,67
 506 530 506 530 506 520 c 0,68,69
 506 510 506 510 515 498 c 2,70,-1
 542 463 l 2,71,72
 596 392 596 392 610 364 c 0,73,74
 622 338 622 338 628 317 c 2,75,-1
 680 141 l 2,76,77
 708 47 708 47 775 47 c 0,78,79
 792 47 792 47 874 88 c 0,80,81
 878 90 878 90 881 90 c 0,82,83
 905 90 905 90 905 62 c 0,84,85
 905 55 905 55 900 50 c 0,0,1
EndSplineSet
Comment: "kast+AD0A-85" 
Colour: ffffff
EndChar

StartChar: Lcommaaccent
Encoding: 315 315 250
Width: 1312
GlyphClass: 2
Flags: W
LayerCount: 2
Fore
SplineSet
1190 27 m 2,0,1
 1183 1 1183 1 1171.5 -3 c 128,-1,2
 1160 -7 1160 -7 1099 -7 c 0,3,4
 926 -8 926 -8 718 -4 c 0,5,6
 696 -4 696 -4 674 -3 c 1,7,-1
 617 -78 l 2,8,9
 599 -101 599 -101 627 -123 c 0,10,11
 703 -184 703 -184 703 -254.5 c 128,-1,12
 703 -325 703 -325 637 -373.5 c 128,-1,13
 571 -422 571 -422 494 -422 c 0,14,15
 392 -422 392 -422 392 -356 c 0,16,17
 392 -307 392 -307 443 -307 c 0,18,19
 463 -307 463 -307 493 -337 c 128,-1,20
 523 -367 523 -367 535 -367 c 0,21,22
 592 -366 592 -366 592 -296 c 0,23,24
 592 -233 592 -233 501 -185 c 0,25,26
 480 -174 480 -174 493 -155 c 2,27,-1
 608 -2 l 1,28,29
 460 0 460 0 323 0 c 0,30,31
 136 0 136 0 29 -7 c 1,32,33
 21 -7 21 -7 21 14.5 c 128,-1,34
 21 36 21 36 34 52.5 c 128,-1,35
 47 69 47 69 55 69 c 0,36,37
 152 69 152 69 196.5 89.5 c 128,-1,38
 241 110 241 110 260 177 c 2,39,-1
 547 1172 l 2,40,41
 551 1189 551 1189 551 1205 c 0,42,43
 551 1287 551 1287 392 1287 c 0,44,45
 383 1287 383 1287 383 1309.5 c 128,-1,46
 383 1332 383 1332 393.5 1347.5 c 128,-1,47
 404 1363 404 1363 410 1363 c 1,48,49
 458 1358 458 1358 671 1358 c 128,-1,50
 884 1358 884 1358 932 1363 c 1,51,52
 939 1363 939 1363 939 1342 c 128,-1,53
 939 1321 939 1321 928 1304 c 128,-1,54
 917 1287 917 1287 911 1287 c 0,55,56
 808 1287 808 1287 760.5 1267 c 128,-1,57
 713 1247 713 1247 691 1172 c 2,58,-1
 434 277 l 2,59,60
 412 200 412 200 412 159 c 0,61,62
 412 62 412 62 534 62 c 1,63,-1
 867 75 l 2,64,65
 1125 86 1125 86 1211 379 c 1,66,67
 1214 393 1214 393 1252.5 393 c 128,-1,68
 1291 393 1291 393 1291 379 c 1,69,-1
 1190 27 l 2,0,1
EndSplineSet
Ligature2: "'ccmp' Glyph Composition/Decomposition in Latin single" L uni0327
LCarets2: 1 0 
EndChar

StartChar: lcommaaccent
Encoding: 316 316 251
Width: 496
GlyphClass: 2
Flags: W
LayerCount: 2
Fore
SplineSet
258 209 m 2,0,1
 251 178 251 178 251 162 c 0,2,3
 251 113 251 113 276 113 c 0,4,5
 328 113 328 113 410 207 c 0,6,7
 412 210 412 210 416 210 c 0,8,9
 427 210 427 210 440 197 c 128,-1,10
 453 184 453 184 453 176 c 0,11,12
 453 173 453 173 451 170 c 0,13,14
 311 7 311 7 213 -21 c 1,15,-1
 168 -80 l 2,16,17
 150 -103 150 -103 178 -125 c 0,18,19
 254 -186 254 -186 254 -256.5 c 128,-1,20
 254 -327 254 -327 188 -375.5 c 128,-1,21
 122 -424 122 -424 45 -424 c 0,22,23
 -57 -424 -57 -424 -57 -358 c 0,24,25
 -57 -309 -57 -309 -6 -309 c 0,26,27
 14 -309 14 -309 44 -339 c 128,-1,28
 74 -369 74 -369 86 -369 c 0,29,30
 143 -368 143 -368 143 -298 c 0,31,32
 143 -235 143 -235 52 -187 c 0,33,34
 31 -176 31 -176 44 -157 c 2,35,-1
 147 -20 l 1,36,37
 114 0 114 0 114 80 c 0,38,39
 114 104 114 104 121 135 c 2,40,-1
 364 1197 l 2,41,42
 379 1263 379 1263 379 1295 c 0,43,44
 379 1377 379 1377 302 1377 c 0,45,46
 287 1377 287 1377 287 1403 c 128,-1,47
 287 1429 287 1429 302 1429 c 0,48,49
 375 1429 375 1429 451.5 1456.5 c 128,-1,50
 528 1484 528 1484 534 1484 c 0,51,52
 550 1484 550 1484 546 1470 c 2,53,-1
 258 209 l 2,0,1
EndSplineSet
Ligature2: "'ccmp' Glyph Composition/Decomposition in Latin single" l uni0327
LCarets2: 1 0 
EndChar

StartChar: Eng
Encoding: 330 330 265
Width: 1539
GlyphClass: 2
Flags: W
LayerCount: 2
Fore
SplineSet
1232 4 m 18,0,1
 1190 -141 1190 -141 1134.5 -246.5 c 128,-1,2
 1079 -352 1079 -352 993.5 -425 c 128,-1,3
 908 -498 908 -498 742 -498 c 0,4,5
 718 -498 718 -498 698 -477 c 128,-1,6
 678 -456 678 -456 678 -423 c 256,7,8
 678 -404 678 -404 700 -388.5 c 128,-1,9
 722 -373 722 -373 751 -373 c 0,10,11
 779 -373 779 -373 811.5 -399 c 128,-1,12
 844 -425 844 -425 858 -424 c 0,13,14
 931 -424 931 -424 1008.5 -332.5 c 128,-1,15
 1086 -241 1086 -241 1121 -124 c 2,16,-1
 1147 -37 l 2,17,18
 1157 -4 1157 -4 1157 15 c 128,-1,19
 1157 34 1157 34 1135 83 c 10,20,-1
 636 1117 l 2,21,22
 626 1137 626 1137 610 1137 c 0,23,24
 595 1137 595 1137 587 1106 c 2,25,-1
 325 186 l 2,26,27
 317 158 317 158 317 141 c 0,28,29
 317 69 317 69 450 69 c 0,30,31
 458 69 458 69 458 48 c 128,-1,32
 458 27 458 27 447 10 c 128,-1,33
 436 -7 436 -7 430 -7 c 1,34,35
 344 0 344 0 229.5 0 c 128,-1,36
 115 0 115 0 29 -7 c 1,37,38
 21 -7 21 -7 21 13 c 128,-1,39
 21 33 21 33 32 51 c 128,-1,40
 43 69 43 69 49 69 c 0,41,42
 139 69 139 69 187 90 c 128,-1,43
 235 111 235 111 256 186 c 10,44,-1
 520 1114 l 2,45,46
 534 1163 534 1163 534 1212 c 0,47,48
 534 1260 534 1260 486 1277 c 0,49,50
 456 1287 456 1287 390 1287 c 0,51,52
 382 1287 382 1287 382 1308 c 128,-1,53
 382 1329 382 1329 393 1346 c 128,-1,54
 404 1363 404 1363 410 1363 c 0,55,56
 426 1363 426 1363 540 1358 c 0,57,58
 642 1354 642 1354 652 1354 c 0,59,60
 679 1354 679 1354 698 1312 c 2,61,-1
 1188 288 l 2,62,63
 1201 260 1201 260 1218 260 c 0,64,65
 1232 260 1232 260 1241 290 c 2,66,-1
 1498 1172 l 2,67,68
 1505 1196 1505 1196 1505 1216 c 0,69,70
 1505 1287 1505 1287 1356 1287 c 0,71,72
 1349 1287 1349 1287 1349 1307 c 128,-1,73
 1349 1327 1349 1327 1361 1345 c 128,-1,74
 1373 1363 1373 1363 1379 1363 c 1,75,76
 1426 1358 1426 1358 1572 1358 c 128,-1,77
 1718 1358 1718 1358 1765 1363 c 1,78,79
 1772 1363 1772 1363 1772 1342 c 128,-1,80
 1772 1321 1772 1321 1762 1305 c 0,81,82
 1750 1287 1750 1287 1744 1287 c 0,83,84
 1666 1287 1666 1287 1627 1267.5 c 128,-1,85
 1588 1248 1588 1248 1566 1172 c 10,86,-1
 1232 4 l 18,0,1
EndSplineSet
Comment: "last+AD0A-86" 
Colour: ffffff
EndChar

StartChar: oe
Encoding: 339 339 274
Width: 1169
GlyphClass: 2
Flags: W
AnchorPoint: "above" 795 900 basechar 0
LayerCount: 2
Fore
SplineSet
1196 737 m 256,0,1
 1196 600 1196 600 1030 492 c 128,-1,2
 864 384 864 384 715 356 c 1,3,4
 700 281 700 281 700 238 c 0,5,6
 700 72 700 72 811 72 c 256,7,8
 874 72 874 72 935 116 c 128,-1,9
 996 160 996 160 1036 197 c 0,10,11
 1039 200 1039 200 1044 200 c 0,12,13
 1068 200 1068 200 1068 173 c 0,14,15
 1068 168 1068 168 1065 164 c 0,16,17
 910 -27 910 -27 770 -27 c 256,18,19
 630 -27 630 -27 588 90 c 1,20,21
 462 -27 462 -27 322 -27 c 256,22,23
 208 -27 208 -27 152 65.5 c 128,-1,24
 96 158 96 158 96 305 c 0,25,26
 96 499 96 499 243.5 675.5 c 0,27,28
 390 852 390 852 550 852 c 256,29,30
 710 852 710 852 761 670 c 1,31,32
 913 852 913 852 1065 852 c 256,33,34
 1196 852 1196 852 1196 737 c 256,0,1
1053 711 m 256,35,36
 1053 772 1053 772 999 772 c 256,37,38
 942 772 942 772 890 717 c 128,-1,39
 838 662 838 662 798.5 582.5 c 128,-1,40
 759 503 759 503 733 420 c 1,41,42
 864 447 864 447 958.5 527.5 c 128,-1,43
 1053 608 1053 608 1053 711 c 256,35,36
666 588 m 0,44,45
 666 768 666 768 560 768 c 256,46,47
 454 768 454 768 333.5 577 c 128,-1,48
 213 386 213 386 213 231 c 0,49,50
 213 155 213 155 243.5 111.5 c 128,-1,51
 274 68 274 68 326 68 c 256,52,53
 424 68 424 68 545 256 c 128,-1,54
 666 444 666 444 666 588 c 0,44,45
EndSplineSet
Comment: "last+AD0A-53" 
Colour: ffffff
EndChar

StartChar: rcommaaccent
Encoding: 343 343 278
Width: 754
GlyphClass: 2
Flags: W
LayerCount: 2
Fore
SplineSet
832 772 m 0,0,1
 832 736 832 736 804 710 c 128,-1,2
 776 684 776 684 746 684 c 0,3,4
 710 684 710 684 693 698.5 c 128,-1,5
 676 713 676 713 646 713 c 0,6,7
 586 713 586 713 441.5 476 c 128,-1,8
 297 239 297 239 236 4 c 0,9,10
 230 -20 230 -20 195 -25 c 1,11,-1
 153 -80 l 2,12,13
 135 -103 135 -103 163 -125 c 0,14,15
 239 -186 239 -186 239 -256.5 c 128,-1,16
 239 -327 239 -327 173 -375.5 c 128,-1,17
 107 -424 107 -424 30 -424 c 0,18,19
 -72 -424 -72 -424 -72 -358 c 0,20,21
 -72 -309 -72 -309 -21 -309 c 0,22,23
 -1 -309 -1 -309 29 -339 c 128,-1,24
 59 -369 59 -369 71 -369 c 0,25,26
 128 -368 128 -368 128 -298 c 0,27,28
 128 -235 128 -235 37 -187 c 0,29,30
 16 -176 16 -176 29 -157 c 2,31,-1
 131 -22 l 1,32,33
 113 -16 113 -16 113 -2 c 0,34,35
 113 0 113 0 114 4 c 2,36,-1
 279 627 l 2,37,38
 286 653 286 653 286 662 c 0,39,40
 286 705 286 705 262 705 c 128,-1,41
 238 705 238 705 147 614 c 0,42,43
 144 611 144 611 139 611 c 0,44,45
 123 611 123 611 111 631 c 0,46,47
 107 638 107 638 107 644 c 0,48,49
 107 649 107 649 109 651 c 0,50,51
 232 785 232 785 285 818.5 c 128,-1,52
 338 852 338 852 381 852 c 0,53,54
 435 852 435 852 435 770 c 0,55,56
 435 754 435 754 401 627 c 2,57,-1
 356 459 l 1,58,-1
 366 457 l 1,59,60
 575 852 575 852 739 852 c 0,61,62
 789 852 789 852 810.5 830.5 c 128,-1,63
 832 809 832 809 832 772 c 0,0,1
EndSplineSet
Ligature2: "'ccmp' Glyph Composition/Decomposition in Latin single" r uni0327
LCarets2: 1 0 
EndChar

StartChar: Scedilla
Encoding: 350 350 285
Width: 1042
GlyphClass: 2
Flags: W
LayerCount: 2
Fore
SplineSet
991 504 m 0,0,1
 992 303 992 303 830 138 c 0,2,3
 687 -9 687 -9 509 -25 c 1,4,-1
 467 -80 l 2,5,6
 449 -103 449 -103 477 -125 c 0,7,8
 553 -186 553 -186 553 -256.5 c 128,-1,9
 553 -327 553 -327 487 -375.5 c 128,-1,10
 421 -424 421 -424 344 -424 c 0,11,12
 242 -424 242 -424 242 -358 c 0,13,14
 242 -309 242 -309 293 -309 c 0,15,16
 313 -309 313 -309 343 -339 c 128,-1,17
 373 -369 373 -369 385 -369 c 0,18,19
 442 -368 442 -368 442 -298 c 0,20,21
 442 -235 442 -235 351 -187 c 0,22,23
 330 -176 330 -176 343 -157 c 2,24,-1
 441 -27 l 1,25,26
 344 -25 344 -25 286 -7 c 0,27,28
 222 13 222 13 116 73 c 1,29,-1
 116 145 l 1,30,31
 127 318 127 318 151 365 c 0,32,33
 159 381 159 381 190 381 c 0,34,35
 220 381 220 381 221 374 c 1,36,37
 214 336 214 336 214 307 c 0,38,39
 214 178 214 178 299 113 c 128,-1,40
 384 48 384 48 522 48 c 0,41,42
 636 48 636 48 728.5 154.5 c 128,-1,43
 821 261 821 261 821 385 c 0,44,45
 821 541 821 541 668 607 c 2,46,-1
 490 683 l 2,47,48
 338 747 338 747 337.5 933.5 c 128,-1,49
 337 1120 337 1120 491.5 1252.5 c 128,-1,50
 646 1385 646 1385 839 1385 c 0,51,52
 946 1385 946 1385 1028 1365 c 128,-1,53
 1110 1345 1110 1345 1133 1345 c 1,54,55
 1131 1248 1131 1248 1098 1081 c 1,56,57
 1093 1062 1093 1062 1060.5 1062 c 128,-1,58
 1028 1062 1028 1062 1026 1079 c 1,59,-1
 1025 1135 l 1,60,61
 1007 1318 1007 1318 801 1318 c 0,62,63
 670 1318 670 1318 579 1223 c 128,-1,64
 488 1128 488 1128 488 996 c 0,65,66
 488 890 488 890 618 833 c 1,67,-1
 860 730 l 2,68,69
 991 674 991 674 991 504 c 0,0,1
EndSplineSet
Ligature2: "'ccmp' Glyph Composition/Decomposition in Latin single" S uni0327
LCarets2: 1 0 
EndChar

StartChar: scedilla
Encoding: 351 351 286
Width: 524
GlyphClass: 2
Flags: W
LayerCount: 2
Fore
SplineSet
543 731 m 0,0,1
 543 708 543 708 524 690 c 128,-1,2
 505 672 505 672 487 672 c 0,3,4
 435 672 435 672 415.5 730 c 128,-1,5
 396 788 396 788 334 788 c 0,6,7
 299 788 299 788 276.5 750 c 128,-1,8
 254 712 254 712 254 678 c 0,9,10
 254 608 254 608 351.5 467 c 128,-1,11
 449 326 449 326 449 236 c 0,12,13
 450 124 450 124 362 48 c 0,14,15
 287 -17 287 -17 190 -26 c 1,16,-1
 148 -80 l 2,17,18
 130 -103 130 -103 158 -125 c 0,19,20
 234 -186 234 -186 234 -256.5 c 128,-1,21
 234 -327 234 -327 168 -375.5 c 128,-1,22
 102 -424 102 -424 25 -424 c 0,23,24
 -77 -424 -77 -424 -77 -358 c 0,25,26
 -77 -309 -77 -309 -26 -309 c 0,27,28
 -6 -309 -6 -309 24 -339 c 128,-1,29
 54 -369 54 -369 66 -369 c 0,30,31
 123 -368 123 -368 123 -298 c 0,32,33
 123 -235 123 -235 32 -187 c 0,34,35
 11 -176 11 -176 24 -157 c 2,36,-1
 125 -23 l 1,37,38
 92 -16 92 -16 64 8 c 0,39,40
 24 44 24 44 23 82 c 0,41,42
 23 118 23 118 37.5 140 c 128,-1,43
 52 162 52 162 78 162 c 0,44,45
 144 162 144 162 170.5 108.5 c 128,-1,46
 197 55 197 55 256 55 c 0,47,48
 338 55 338 55 338 176 c 0,49,50
 338 240 338 240 248 366 c 128,-1,51
 158 492 158 492 158 592 c 0,52,53
 158 697 158 697 223 774.5 c 128,-1,54
 288 852 288 852 412 852 c 0,55,56
 464 852 464 852 503.5 812 c 128,-1,57
 543 772 543 772 543 731 c 0,0,1
EndSplineSet
Ligature2: "'ccmp' Glyph Composition/Decomposition in Latin single" s uni0327
LCarets2: 1 0 
EndChar

StartChar: Tcommaaccent
Encoding: 354 354 289
Width: 1275
GlyphClass: 2
Flags: W
LayerCount: 2
Fore
SplineSet
699 186 m 2,0,1
 694 169 694 169 694 149 c 0,2,3
 694 69 694 69 851 69 c 0,4,5
 858 69 858 69 858 47.5 c 128,-1,6
 858 26 858 26 847.5 9.5 c 128,-1,7
 837 -7 837 -7 831 -7 c 0,8,9
 760 -1 760 -1 633 -0 c 1,10,-1
 574 -77 l 2,11,12
 556 -100 556 -100 584 -122 c 0,13,14
 660 -183 660 -183 660 -253.5 c 128,-1,15
 660 -324 660 -324 594 -372.5 c 128,-1,16
 528 -421 528 -421 451 -421 c 0,17,18
 349 -421 349 -421 349 -355 c 0,19,20
 349 -306 349 -306 400 -306 c 0,21,22
 420 -306 420 -306 450 -336 c 128,-1,23
 480 -366 480 -366 492 -366 c 0,24,25
 549 -366 549 -366 549 -296 c 0,26,27
 549 -233 549 -233 458 -184 c 0,28,29
 437 -173 437 -173 450 -154 c 2,30,-1
 566 -0 l 1,31,32
 390 0 390 0 304 -7 c 0,33,34
 296 -7 296 -7 296 14 c 128,-1,35
 296 35 296 35 307 52 c 128,-1,36
 318 69 318 69 324 69 c 0,37,38
 440 69 440 69 489.5 97 c 128,-1,39
 539 125 539 125 556 186 c 2,40,-1
 857 1240 l 2,41,42
 862 1258 862 1258 862 1263 c 0,43,44
 862 1282 862 1282 825 1282 c 2,45,-1
 687 1282 l 2,46,47
 432 1282 432 1282 353 1006 c 0,48,49
 349 992 349 992 313 992 c 128,-1,50
 277 992 277 992 275 1006 c 1,51,-1
 367 1327 l 2,52,53
 376 1358 376 1358 445 1358 c 0,54,55
 557 1358 557 1358 688 1356 c 128,-1,56
 819 1354 819 1354 936 1354 c 128,-1,57
 1053 1354 1053 1354 1188.5 1356 c 128,-1,58
 1324 1358 1324 1358 1474 1358 c 0,59,60
 1546 1358 1546 1358 1546 1338 c 1,61,-1
 1449 1006 l 2,62,63
 1445 992 1445 992 1405.5 992 c 128,-1,64
 1366 992 1366 992 1369 1006 c 0,65,66
 1384 1076 1384 1076 1384 1104 c 0,67,68
 1384 1282 1384 1282 1188 1282 c 2,69,-1
 1054 1282 l 2,70,71
 1013 1282 1013 1282 1002 1245 c 2,72,-1
 699 186 l 2,0,1
EndSplineSet
Ligature2: "'ccmp' Glyph Composition/Decomposition in Latin single" T uni0327
LCarets2: 1 0 
EndChar

StartChar: tbar
Encoding: 359 359 294
Width: 604
GlyphClass: 2
Flags: W
LayerCount: 2
Fore
SplineSet
276 225 m 2,0,1
 264 183 264 183 264 154 c 0,2,3
 264 102 264 102 299 102 c 0,4,5
 362 102 362 102 522 301 c 0,6,7
 524 304 524 304 528 304 c 0,8,9
 544 304 544 304 556 282 c 0,10,11
 563 269 563 269 557 260 c 0,12,13
 441 98 441 98 364.5 35.5 c 128,-1,14
 288 -27 288 -27 208 -27 c 0,15,16
 168 -27 168 -27 145 3.5 c 128,-1,17
 122 34 122 34 122 76 c 0,18,19
 122 120 122 120 130 148 c 2,20,-1
 239 524 l 1,21,-1
 82 524 l 2,22,23
 74 524 74 524 74 544 c 128,-1,24
 74 564 74 564 85.5 583 c 128,-1,25
 97 602 97 602 105 602 c 2,26,-1
 261 602 l 1,27,-1
 298 730 l 1,28,-1
 142 730 l 2,29,30
 130 730 130 730 130 749 c 0,31,32
 130 785 130 785 152 789 c 2,33,-1
 319 818 l 1,34,-1
 422 1021 l 2,35,36
 428 1033 428 1033 452 1033 c 0,37,38
 491 1033 491 1033 492 1014 c 0,39,40
 492 1011 492 1011 491 1008 c 2,41,-1
 442 808 l 1,42,-1
 666 808 l 2,43,44
 674 808 674 808 674 788 c 128,-1,45
 674 768 674 768 664 749 c 128,-1,46
 654 730 654 730 645 730 c 10,47,-1
 421 730 l 1,48,-1
 384 602 l 1,49,-1
 598 602 l 2,50,51
 606 602 606 602 606 583.5 c 128,-1,52
 606 565 606 565 594.5 544.5 c 128,-1,53
 583 524 583 524 573 524 c 10,54,-1
 362 524 l 1,55,-1
 276 225 l 2,0,1
EndSplineSet
Comment: "last+AD0A-55" 
Colour: ffffff
EndChar

StartChar: longs
Encoding: 383 383 318
Width: 496
GlyphClass: 2
Flags: W
LayerCount: 2
Fore
SplineSet
201 -111 m 18,0,1
 179 -226 179 -226 141.5 -325.5 c 128,-1,2
 104 -425 104 -425 31.5 -488 c 128,-1,3
 -41 -551 -41 -551 -154 -551 c 0,4,5
 -218 -551 -218 -551 -261.5 -514.5 c 128,-1,6
 -305 -478 -305 -478 -305 -446 c 256,7,8
 -305 -414 -305 -414 -285 -390.5 c 128,-1,9
 -265 -367 -265 -367 -242 -367 c 0,10,11
 -184 -367 -184 -367 -156 -417 c 128,-1,12
 -128 -467 -128 -467 -90 -467 c 256,13,14
 -52 -467 -52 -467 -9 -411.5 c 128,-1,15
 34 -356 34 -356 45 -297 c 2,16,-1
 258 807 l 18,17,18
 341 1236 341 1236 456 1350 c 128,-1,19
 571 1464 571 1464 743 1464 c 0,20,21
 829 1464 829 1464 880.5 1416.5 c 128,-1,22
 932 1369 932 1369 932 1298 c 0,23,24
 932 1202 932 1202 866 1202 c 0,25,26
 842 1202 842 1202 816.5 1220 c 128,-1,27
 791 1238 791 1238 791 1274 c 0,28,29
 792 1395 792 1395 688 1395 c 0,30,31
 598 1395 598 1395 540.5 1316 c 128,-1,32
 483 1237 483 1237 458 1161.5 c 128,-1,33
 433 1086 433 1086 379 807 c 10,34,-1
 201 -111 l 18,0,1
EndSplineSet
AlternateSubs2: "'salt' Stylistic Alternatives lookup 24-1" uniF127
Comment: "last+AD0A-34" 
Colour: ffffff
EndChar

StartChar: uni0185
Encoding: 389 389 1012
Width: 852
Flags: W
AnchorPoint: "above" 630 1545 basechar 0
LayerCount: 2
Fore
SplineSet
850 659 m 0,0,1
 850 406 850 406 670 189.5 c 128,-1,2
 490 -27 490 -27 242 -27 c 0,3,4
 97 -27 97 -27 97 133 c 0,5,6
 97 173 97 173 109 225 c 2,7,-1
 273 932 l 2,8,9
 289 1001 289 1001 289 1031 c 0,10,11
 289 1110 289 1110 211 1110 c 0,12,13
 196 1110 196 1110 196 1136 c 128,-1,14
 196 1162 196 1162 211 1162 c 0,15,16
 266 1162 266 1162 348 1189.5 c 128,-1,17
 430 1217 430 1217 443 1217 c 0,18,19
 455 1216 455 1216 455 1204 c 0,20,21
 455 1197 455 1197 453 1190 c 2,22,-1
 317 598 l 1,23,-1
 338 592 l 1,24,25
 536 852 536 852 684 852 c 0,26,27
 850 852 850 852 850 659 c 0,0,1
707 602 m 0,28,29
 707 754 707 754 623 754 c 0,30,31
 527 754 527 754 409.5 594 c 128,-1,32
 292 434 292 434 259.5 331.5 c 128,-1,33
 227 229 227 229 227 163 c 0,34,35
 227 45 227 45 326 45 c 0,36,37
 468 45 468 45 587.5 242.5 c 128,-1,38
 707 440 707 440 707 602 c 0,28,29
EndSplineSet
EndChar

StartChar: uni0186
Encoding: 390 390 962
Width: 1374
Flags: W
TeX: 117 0
AnchorPoint: "above" 836 1415 basechar 0
LayerCount: 2
Fore
SplineSet
1311 900 m 256,0,1
 1311 545 1311 545 1020.5 259 c 128,-1,2
 730 -27 730 -27 377 -27 c 256,3,4
 230 -27 230 -27 138.5 -5.5 c 128,-1,5
 47 16 47 16 -47 31 c 1,6,7
 -32 189 -32 189 12 339 c 0,8,9
 20 356 20 356 51.5 356 c 128,-1,10
 83 356 83 356 82 344 c 0,11,12
 74 284 74 284 74 266 c 0,13,14
 74 44 74 44 392 44 c 256,15,16
 710 44 710 44 929 317 c 128,-1,17
 1148 590 1148 590 1148 899 c 256,18,19
 1148 1080 1148 1080 1043.5 1195 c 128,-1,20
 939 1310 939 1310 771 1310 c 256,21,22
 470 1310 470 1310 311 1136 c 2,23,-1
 241 1041 l 2,24,25
 234 1031 234 1031 205 1031 c 0,26,27
 176 1030 176 1030 176 1050 c 256,28,29
 176 1070 176 1070 247 1182 c 128,-1,30
 318 1294 318 1294 343 1322 c 1,31,32
 377 1327 377 1327 425 1339 c 0,33,34
 599 1385 599 1385 814 1385 c 256,35,36
 1029 1385 1029 1385 1170 1255 c 128,-1,37
 1311 1125 1311 1125 1311 900 c 256,0,1
EndSplineSet
Comment: "last+AD0A-36" 
Colour: ffffff
EndChar

StartChar: uni0187
Encoding: 391 391 1029
Width: 1476
Flags: W
AnchorPoint: "above" 1152 1415 basechar 0
LayerCount: 2
Fore
SplineSet
1350 308 m 256,0,1
 1350 288 1350 288 1279 176 c 128,-1,2
 1208 64 1208 64 1183 36 c 1,3,4
 1149 31 1149 31 1101 19 c 0,5,6
 927 -27 927 -27 712 -27 c 256,7,8
 497 -27 497 -27 356 103 c 128,-1,9
 215 233 215 233 215 458 c 0,10,11
 215 813 215 813 505.5 1099 c 128,-1,12
 796 1385 796 1385 1130 1385 c 0,13,14
 1303 1385 1303 1385 1428 1356 c 2,15,-1
 1471 1346 l 1,16,17
 1521 1435 1521 1435 1556 1467.5 c 128,-1,18
 1591 1500 1591 1500 1653 1538 c 128,-1,19
 1715 1576 1715 1576 1796 1576 c 0,20,21
 1843 1576 1843 1576 1870 1552 c 128,-1,22
 1897 1528 1897 1528 1897 1500 c 0,23,24
 1897 1468 1897 1468 1871 1444.5 c 128,-1,25
 1845 1421 1845 1421 1810 1421 c 0,26,27
 1767 1421 1767 1421 1735.5 1457.5 c 128,-1,28
 1704 1494 1704 1494 1681 1494 c 0,29,30
 1633 1494 1633 1494 1606 1454.5 c 128,-1,31
 1579 1415 1579 1415 1559 1338 c 128,-1,32
 1539 1261 1539 1261 1527.5 1155 c 128,-1,33
 1516 1049 1516 1049 1512 1019 c 1,34,35
 1506 1001 1506 1001 1475 1001 c 128,-1,36
 1444 1001 1444 1001 1444 1014 c 1,37,38
 1449 1054 1449 1054 1449 1076 c 24,39,40
 1449 1314 1449 1314 1103 1314 c 256,41,42
 830 1314 830 1314 604 1050 c 128,-1,43
 378 786 378 786 378 459 c 0,44,45
 378 283 378 283 480 165.5 c 128,-1,46
 582 48 582 48 755 48 c 0,47,48
 930 48 930 48 1048 103 c 128,-1,49
 1166 158 1166 158 1214 219 c 0,50,51
 1230 239 1230 239 1285 317 c 0,52,53
 1292 327 1292 327 1321 327.5 c 128,-1,54
 1350 328 1350 328 1350 308 c 256,0,1
EndSplineSet
EndChar

StartChar: uni018A
Encoding: 394 394 1014
Width: 1514
Flags: W
AnchorPoint: "above" 978 1415 basechar 0
LayerCount: 2
Fore
SplineSet
1566 904 m 0,0,1
 1566 577 1566 577 1299.5 285 c 128,-1,2
 1033 -7 1033 -7 672 -7 c 9,3,4
 400 0 400 0 281 0 c 128,-1,5
 162 0 162 0 29 -7 c 1,6,7
 21 -7 21 -7 21 13 c 128,-1,8
 21 33 21 33 32 51 c 128,-1,9
 43 69 43 69 49 69 c 0,10,11
 141 69 141 69 179 84 c 0,12,13
 242 109 242 109 264 186 c 2,14,-1
 548 1174 l 2,15,16
 562 1221 562 1221 506 1254 c 0,17,18
 455 1284 455 1284 378 1284 c 0,19,20
 296 1284 296 1284 245 1256 c 128,-1,21
 194 1228 194 1228 188 1192 c 0,22,23
 184 1170 184 1170 210.5 1135.5 c 0,24,25
 237 1100 237 1100 237 1066 c 0,26,27
 237 1026 237 1026 212.5 1001.5 c 128,-1,28
 188 977 188 977 157 977 c 0,29,30
 116 977 116 977 101 1007 c 0,31,32
 86 1036 86 1036 86 1066 c 0,33,34
 86 1103 86 1103 107 1156.5 c 128,-1,35
 128 1210 128 1210 181 1264 c 128,-1,36
 234 1318 234 1318 298 1337.5 c 128,-1,37
 362 1357 362 1357 492 1357 c 0,38,39
 533 1357 533 1357 578.5 1355.5 c 128,-1,40
 624 1354 624 1354 668 1354 c 0,41,42
 762 1354 762 1354 853 1356 c 128,-1,43
 944 1358 944 1358 1017 1358 c 0,44,45
 1264 1358 1264 1358 1415 1239 c 128,-1,46
 1566 1120 1566 1120 1566 904 c 0,0,1
1404 880 m 0,47,48
 1404 1062 1404 1062 1280.5 1179 c 128,-1,49
 1157 1296 1157 1296 915 1296 c 0,50,51
 820 1296 820 1296 787 1289 c 128,-1,52
 754 1282 754 1282 731 1256 c 128,-1,53
 708 1230 708 1230 693 1179 c 2,54,-1
 439 298 l 2,55,56
 416 220 416 220 416 177 c 0,57,58
 416 53 416 53 621 53 c 0,59,60
 927 53 927 53 1165.5 317.5 c 128,-1,61
 1404 582 1404 582 1404 880 c 0,47,48
EndSplineSet
EndChar

StartChar: uni018B
Encoding: 395 395 1031
Width: 1299
Flags: W
LayerCount: 2
Fore
SplineSet
963 179 m 2,0,1
 957 158 957 158 957 145 c 0,2,3
 957 62 957 62 1114 62 c 0,4,5
 1121 62 1121 62 1121 40.5 c 128,-1,6
 1121 19 1121 19 1110 2.5 c 128,-1,7
 1099 -14 1099 -14 1092 -14 c 0,8,9
 1006 -7 1006 -7 862 -7 c 0,10,11
 814 -7 814 -7 750.5 -10.5 c 128,-1,12
 687 -14 687 -14 661 -14 c 0,13,14
 519 -14 519 -14 401.5 32.5 c 128,-1,15
 284 79 284 79 230 159.5 c 128,-1,16
 176 240 176 240 176 350 c 0,17,18
 176 512 176 512 312 629.5 c 128,-1,19
 448 747 448 747 783 747 c 0,20,21
 845 747 845 747 889 744 c 0,22,23
 920 742 920 742 979 741 c 1,24,-1
 1122 1239 l 18,25,26
 1134 1281 1134 1281 1093 1280 c 10,27,-1
 788 1270 l 2,28,29
 526 1261 526 1261 454 1008 c 0,30,31
 449 990 449 990 411 990 c 128,-1,32
 373 990 373 990 378 1008 c 2,33,-1
 472 1337 l 1,34,35
 489 1356 489 1356 581 1356 c 256,36,37
 673 1356 673 1356 895 1354 c 24,38,39
 1224 1350 1224 1350 1250 1351 c 0,40,41
 1357 1356 1357 1356 1480 1356 c 0,42,43
 1488 1356 1488 1356 1488 1335 c 128,-1,44
 1488 1314 1488 1314 1477 1297 c 128,-1,45
 1466 1280 1466 1280 1460 1280 c 0,46,47
 1346 1280 1346 1280 1304 1252 c 0,48,49
 1262 1225 1262 1225 1245 1165 c 2,50,-1
 963 179 l 2,0,1
328 318 m 0,51,52
 328 184 328 184 420 114.5 c 128,-1,53
 512 45 512 45 670 45 c 0,54,55
 780 45 780 45 797 104 c 2,56,-1
 899 463 l 2,57,58
 920 537 920 537 920 573 c 0,59,60
 920 683 920 683 779 683 c 0,61,62
 573 683 573 683 450.5 588.5 c 128,-1,63
 328 494 328 494 328 318 c 0,51,52
EndSplineSet
EndChar

StartChar: uni018C
Encoding: 396 396 1032
Width: 958
Flags: W
LayerCount: 2
Fore
SplineSet
710 688 m 1,0,1
 666 786 666 786 578 786 c 0,2,3
 442 786 442 786 326.5 563 c 128,-1,4
 211 340 211 340 211 180 c 0,5,6
 211 82 211 82 270 82 c 0,7,8
 340 82 340 82 469 226.5 c 128,-1,9
 598 371 598 371 668 504 c 1,10,-1
 710 688 l 1,0,1
721 209 m 2,11,12
 714 180 714 180 714 162 c 0,13,14
 714 113 714 113 739 113 c 0,15,16
 790 113 790 113 872 207 c 0,17,18
 875 210 875 210 888 205 c 128,-1,19
 901 200 901 200 909 187 c 128,-1,20
 917 174 917 174 913 170 c 0,21,22
 739 -27 739 -27 637 -27 c 0,23,24
 577 -27 577 -27 577 80 c 0,25,26
 577 106 577 106 584 135 c 2,27,-1
 624 313 l 1,28,-1
 610 324 l 1,29,30
 508 175 508 175 396.5 74 c 128,-1,31
 285 -27 285 -27 186 -27 c 0,32,33
 126 -27 126 -27 94.5 24.5 c 128,-1,34
 63 76 63 76 63 145 c 0,35,36
 63 358 63 358 236 605 c 128,-1,37
 409 852 409 852 604 852 c 0,38,39
 684 852 684 852 735 789 c 1,40,-1
 827 1200 l 2,41,42
 843 1267 843 1267 843 1296 c 0,43,44
 843 1378 843 1378 766 1378 c 0,45,46
 761 1378 761 1378 700 1376 c 0,47,48
 475 1369 475 1369 426 1151 c 0,49,50
 422 1135 422 1135 389 1135 c 0,51,52
 356 1135 356 1135 360 1151 c 2,53,-1
 425 1418 l 1,54,55
 432 1434 432 1434 492 1434 c 0,56,57
 557 1434 557 1434 643.5 1432 c 128,-1,58
 730 1430 730 1430 768 1430 c 0,59,60
 833 1430 833 1430 912.5 1457.5 c 128,-1,61
 992 1485 992 1485 997 1485 c 0,62,63
 1010 1485 1010 1485 1010 1472 c 0,64,65
 1010 1469 1010 1469 1008 1460 c 2,66,-1
 721 209 l 2,11,12
EndSplineSet
EndChar

StartChar: uni018F
Encoding: 399 399 2330
Width: 1428
Flags: W
LayerCount: 2
Fore
SplineSet
1484 886 m 3,0,1
 1484 536 1484 536 1209 254.5 c 128,-1,2
 934 -27 934 -27 622 -27 c 3,3,4
 445 -27 445 -27 306 85 c 128,-1,5
 167 197 167 197 167 441 c 3,6,7
 167 498.902 167 498.902 175.001 561.004 c 0,8,9
 179.457 596.9 179.457 596.9 231 597 c 2,10,-1
 1268 599 l 1,11,12
 1321 760.859 1321 760.859 1321 906 c 259,13,14
 1321 1078 1321 1078 1231.5 1177.9 c 128,-1,15
 1142 1277.8 1142 1277.8 995 1277.8 c 259,16,17
 875 1277.8 875 1277.8 749 1213.3 c 128,-1,18
 623 1148.8 623 1148.8 470 998.8 c 1,19,20
 457.625 987.3 457.625 987.3 423.75 1009.05 c 128,-1,21
 389.875 1030.8 389.875 1030.8 398 1040.8 c 1,22,23
 533 1205.8 533 1205.8 694.016 1295.4 c 128,-1,24
 855.032 1385 855.032 1385 1029 1385 c 3,25,26
 1248 1385 1248 1385 1366 1240.5 c 128,-1,27
 1484 1096 1484 1096 1484 886 c 3,0,1
1224.63 489.3 m 1,28,-1
 330.646 489.8 l 1,29,30
 330 472.912 330 472.912 330 456 c 256,31,32
 330 276 330 276 430.5 161 c 128,-1,33
 531 46 531 46 657 46 c 3,34,35
 868 46 868 46 1018.5 194 c 0,36,37
 1150.01 323.324 1150.01 323.324 1224.63 489.3 c 1,28,-1
EndSplineSet
EndChar

StartChar: uni0190
Encoding: 400 400 961
Width: 919
Flags: W
TeX: 117 0
AnchorPoint: "above" 684 1415 basechar 0
LayerCount: 2
Fore
SplineSet
680 104 m 0,0,1
 521 -23 521 -23 363 -23 c 0,2,3
 180 -23 180 -23 76.5 75 c 128,-1,4
 -27 173 -27 173 -27 305 c 0,5,6
 -27 449 -27 449 69 583 c 128,-1,7
 165 717 165 717 370 754 c 0,8,9
 405 760 405 760 405.5 769 c 128,-1,10
 406 778 406 778 377 795 c 0,11,12
 316 831 316 831 278.5 881 c 128,-1,13
 241 931 241 931 241 998 c 0,14,15
 241 1130 241 1130 364.5 1242.5 c 128,-1,16
 488 1355 488 1355 638 1355 c 256,17,18
 764 1355 764 1355 842 1289 c 0,19,20
 857 1276 857 1276 873.5 1259.5 c 128,-1,21
 890 1243 890 1243 905 1243 c 256,22,23
 919 1243 919 1243 937.5 1269.5 c 128,-1,24
 956 1296 956 1296 963 1320 c 0,25,26
 967 1334 967 1334 1002.5 1334 c 128,-1,27
 1038 1334 1038 1334 1038 1323 c 0,28,29
 1038 1322 1038 1322 1038 1320 c 2,30,-1
 925 928 l 2,31,32
 921 913 921 913 883.5 913 c 128,-1,33
 846 913 846 913 850 928 c 0,34,35
 871 1002 871 1002 871 1055 c 0,36,37
 871 1146 871 1146 822.5 1196.5 c 128,-1,38
 774 1247 774 1247 683 1247 c 256,39,40
 539 1247 539 1247 472 1172.5 c 128,-1,41
 405 1098 405 1098 405 986 c 256,42,43
 405 880 405 880 483 823.5 c 128,-1,44
 561 767 561 767 722 767 c 0,45,46
 737 767 737 767 725 725 c 128,-1,47
 713 683 713 683 699 686 c 0,48,49
 634 701 634 701 576 701 c 0,50,51
 366 701 366 701 248 592 c 128,-1,52
 130 483 130 483 130 304 c 256,53,54
 130 204 130 204 199.5 134.5 c 128,-1,55
 269 65 269 65 370 65 c 0,56,57
 516 65 516 65 646 150 c 0,58,59
 663 161 663 161 678.5 138.5 c 128,-1,60
 694 116 694 116 680 104 c 0,0,1
EndSplineSet
Comment: "last+AD0A-60" 
Colour: ffffff
EndChar

StartChar: uni0191
Encoding: 401 401 1024
Width: 1217
Flags: W
AnchorPoint: "above" 930 1415 basechar 0
LayerCount: 2
Fore
SplineSet
407 186 m 2,0,1
 326 -101 326 -101 158 -260 c 128,-1,2
 -10 -419 -10 -419 -180 -419 c 0,3,4
 -211 -419 -211 -419 -248 -397.5 c 128,-1,5
 -285 -376 -285 -376 -285 -330.5 c 128,-1,6
 -285 -285 -285 -285 -248 -250.5 c 128,-1,7
 -211 -216 -211 -216 -143 -216 c 256,8,9
 -89 -216 -89 -216 -56.5 -250 c 128,-1,10
 -24 -284 -24 -284 -24 -317 c 1,11,12
 58 -291 58 -291 119.5 -191.5 c 128,-1,13
 181 -92 181 -92 390 634 c 10,14,-1
 545 1172 l 2,15,16
 549 1186 549 1186 549 1205 c 0,17,18
 549 1282 549 1282 392 1282 c 0,19,20
 384 1282 384 1282 384 1301.5 c 128,-1,21
 384 1321 384 1321 395 1339.5 c 128,-1,22
 406 1358 406 1358 412 1358 c 1,23,24
 525 1354 525 1354 646.5 1354 c 128,-1,25
 768 1354 768 1354 1343 1358 c 17,26,27
 1405 1358 1405 1358 1405 1336 c 0,28,29
 1405 1331 1405 1331 1402 1320 c 2,30,-1
 1314 1010 l 2,31,32
 1310 996 1310 996 1270.5 996 c 128,-1,33
 1231 996 1231 996 1234 1010 c 0,34,35
 1245 1066 1245 1066 1245 1088 c 0,36,37
 1245 1180 1245 1180 1181 1228.5 c 128,-1,38
 1117 1277 1117 1277 1054 1280 c 0,39,40
 865 1289 865 1289 751 1289 c 0,41,42
 722 1289 722 1289 716 1267 c 2,43,-1
 567 753 l 2,44,45
 565 746 565 746 565 734 c 0,46,47
 565 716 565 716 594 716 c 2,48,-1
 749 716 l 2,49,50
 870 716 870 716 906 846 c 2,51,-1
 938 963 l 2,52,53
 942 977 942 977 975 977 c 128,-1,54
 1008 977 1008 977 1006 963 c 1,55,56
 978 890 978 890 918.5 678.5 c 128,-1,57
 859 467 859 467 844 395 c 1,58,59
 840 380 840 380 804.5 380 c 128,-1,60
 769 380 769 380 773 395 c 2,61,-1
 808 512 l 2,62,63
 815 535 815 535 815 559 c 0,64,65
 815 640 815 640 728 640 c 2,66,-1
 567 640 l 2,67,68
 535 640 535 640 527 613 c 2,69,-1
 407 186 l 2,0,1
EndSplineSet
EndChar

StartChar: florin
Encoding: 402 402 320
Width: 496
GlyphClass: 2
Flags: W
LayerCount: 2
Fore
SplineSet
201 -111 m 2,0,1
 179 -226 179 -226 141.5 -325.5 c 128,-1,2
 104 -425 104 -425 31.5 -488 c 128,-1,3
 -41 -551 -41 -551 -154 -551 c 0,4,5
 -218 -551 -218 -551 -261.5 -514.5 c 128,-1,6
 -305 -478 -305 -478 -305 -446 c 256,7,8
 -305 -414 -305 -414 -285 -390.5 c 128,-1,9
 -265 -367 -265 -367 -242 -367 c 0,10,11
 -184 -367 -184 -367 -156 -417 c 128,-1,12
 -128 -467 -128 -467 -90 -467 c 256,13,14
 -52 -468 -52 -468 -9 -412 c 0,15,16
 33 -357 33 -357 45 -297 c 2,17,-1
 245 741 l 1,18,-1
 63 741 l 2,19,20
 56 741 56 741 56 760 c 128,-1,21
 56 779 56 779 69 799 c 128,-1,22
 82 819 82 819 90 819 c 2,23,-1
 260 819 l 1,24,25
 342 1237 342 1237 456.5 1350.5 c 128,-1,26
 571 1464 571 1464 743 1464 c 0,27,28
 829 1464 829 1464 880.5 1416.5 c 128,-1,29
 932 1369 932 1369 932 1298 c 0,30,31
 932 1202 932 1202 866 1202 c 0,32,33
 842 1202 842 1202 816.5 1220 c 128,-1,34
 791 1238 791 1238 791 1274 c 0,35,36
 792 1395 792 1395 688 1395 c 0,37,38
 598 1395 598 1395 540.5 1316 c 128,-1,39
 483 1237 483 1237 458.5 1162.5 c 128,-1,40
 434 1088 434 1088 381 819 c 1,41,-1
 663 819 l 2,42,43
 670 819 670 819 670 800.5 c 128,-1,44
 670 782 670 782 656 761.5 c 128,-1,45
 642 741 642 741 635 741 c 2,46,-1
 366 741 l 1,47,-1
 201 -111 l 2,0,1
EndSplineSet
Comment: "last+AD0A-47" 
Colour: ffffff
EndChar

StartChar: uni0195
Encoding: 405 405 321
Width: 1339
GlyphClass: 2
Flags: W
LayerCount: 2
Fore
SplineSet
1330 705 m 256,0,1
 1330 582 1330 582 1246.5 395 c 128,-1,2
 1163 208 1163 208 1024.5 90.5 c 128,-1,3
 886 -27 886 -27 757 -27 c 256,4,5
 702 -27 702 -27 673.5 8.5 c 128,-1,6
 645 44 645 44 645 90 c 256,7,8
 645 132 645 132 675.5 233 c 128,-1,9
 706 334 706 334 719.5 417 c 128,-1,10
 733 500 733 500 733 569 c 256,11,12
 733 743 733 743 657 743 c 256,13,14
 542 743 542 743 344 461 c 0,15,16
 294 389 294 389 252 221 c 2,17,-1
 197 0 l 2,18,19
 190 -27 190 -27 133 -27 c 128,-1,20
 76 -27 76 -27 75 -4 c 0,21,22
 75 -2 75 -2 76 0 c 2,23,-1
 355 1201 l 2,24,25
 371 1268 371 1268 371 1304 c 0,26,27
 371 1377 371 1377 294 1377 c 0,28,29
 279 1377 279 1377 279 1403 c 128,-1,30
 279 1429 279 1429 294 1429 c 0,31,32
 364 1429 364 1429 442.5 1456.5 c 128,-1,33
 521 1484 521 1484 525 1484 c 0,34,35
 541 1484 541 1484 538 1471 c 2,36,-1
 326 545 l 1,37,-1
 336 535 l 1,38,39
 524 852 524 852 707 852 c 256,40,41
 870 852 870 852 870 618 c 256,42,43
 870 548 870 548 854 457 c 128,-1,44
 838 366 838 366 810 272 c 128,-1,45
 782 178 782 178 782 147 c 0,46,47
 782 76 782 76 864 76 c 256,48,49
 946 76 946 76 1073.5 238.5 c 128,-1,50
 1201 401 1201 401 1201 584 c 256,51,52
 1201 703 1201 703 1165 778 c 1,53,54
 1165 852 1165 852 1234 852 c 0,55,56
 1285 852 1285 852 1307.5 803.5 c 128,-1,57
 1330 755 1330 755 1330 705 c 256,0,1
EndSplineSet
Substitution2: "'ss19' Latin to Gothic transliteration subtable" u10348
LCarets2: 1 0 
Comment: "last+AD0A-57" 
Colour: ffffff
EndChar

StartChar: uni0198
Encoding: 408 408 2307
Width: 1301
Flags: W
LayerCount: 2
Fore
SplineSet
1240 69 m 0,0,1
 1253 69 1253 69 1253 46.5 c 128,-1,2
 1253 24 1253 24 1242 8.5 c 128,-1,3
 1231 -7 1231 -7 1225 -7 c 1,4,5
 1138 0 1138 0 986 0 c 256,6,7
 834 0 834 0 747 -7 c 1,8,9
 740 -7 740 -7 740 14 c 128,-1,10
 740 35 740 35 751 52 c 128,-1,11
 762 69 762 69 768 69 c 0,12,13
 870 69 870 69 870 116 c 0,14,15
 870 140.318 870 140.318 848 186 c 2,16,-1
 678 539 l 2,17,18
 653.695 589.469 653.695 589.469 617.347 617.235 c 128,-1,19
 581 645 581 645 558 645 c 3,20,21
 536.649 645 536.649 645 531 625 c 2,22,-1
 407 186 l 2,23,24
 400 161.218 400 161.218 400 146 c 0,25,26
 400 69 400 69 550 69 c 0,27,28
 557 69 557 69 557 47 c 128,-1,29
 557 25 557 25 546 9 c 128,-1,30
 535 -7 535 -7 529 -7 c 1,31,32
 442 0 442 0 278.5 0 c 256,33,34
 115 0 115 0 29 -7 c 1,35,36
 21 -7 21 -7 21 13 c 128,-1,37
 21 33 21 33 32 51 c 128,-1,38
 43 69 43 69 49 69 c 0,39,40
 172 69 172 69 210 102 c 0,41,42
 247.15 134.262 247.15 134.262 262 186 c 2,43,-1
 545 1172 l 2,44,45
 551 1192.9 551 1192.9 551 1211 c 0,46,47
 551 1287 551 1287 392 1287 c 0,48,49
 383 1287 383 1287 383 1309.5 c 128,-1,50
 383 1332 383 1332 393.5 1347.5 c 128,-1,51
 404 1363 404 1363 410 1363 c 1,52,53
 458 1358 458 1358 667 1358 c 256,54,55
 876 1358 876 1358 922 1363 c 1,56,57
 930 1363 930 1363 930 1342 c 128,-1,58
 930 1321 930 1321 919 1304 c 128,-1,59
 908 1287 908 1287 902 1287 c 0,60,61
 782 1287 782 1287 743 1256.5 c 0,62,63
 704.779 1226.61 704.779 1226.61 689 1172 c 2,64,-1
 561 729 l 2,65,66
 559 722.078 559 722.078 559 718 c 0,67,68
 559 713 559 713 569 713 c 3,69,70
 618.005 713 618.005 713 720 822.2 c 2,71,-1
 1037.23 1182 l 2,72,73
 1114.55 1271.08 1114.55 1271.08 1188.62 1311.14 c 128,-1,74
 1262.68 1351.2 1262.68 1351.2 1369 1351.2 c 3,75,76
 1457 1351.2 1457 1351.2 1507.5 1303.7 c 128,-1,77
 1558 1256.2 1558 1256.2 1558 1185.2 c 3,78,79
 1558 1089.2 1558 1089.2 1492 1089.2 c 3,80,81
 1458 1089.2 1458 1089.2 1437.5 1111.7 c 128,-1,82
 1417 1134.2 1417 1134.2 1417 1161.2 c 3,83,84
 1417 1282.2 1417 1282.2 1312 1282.2 c 3,85,86
 1210 1282.2 1210 1282.2 1103 1160.2 c 128,-1,87
 996 1038.2 996 1038.2 756 754.2 c 0,88,89
 743 741 743 741 743 728 c 259,90,91
 743 717.091 743 717.091 747 709 c 2,92,-1
 1012 173 l 18,93,94
 1043.55 109.176 1043.55 109.176 1094.5 89 c 0,95,96
 1145 69 1145 69 1240 69 c 0,0,1
EndSplineSet
EndChar

StartChar: uni0199
Encoding: 409 409 1027
Width: 893
Flags: W
AnchorPoint: "above" 668 1545 basechar 0
LayerCount: 2
Fore
SplineSet
810 709 m 0,0,1
 810 628 810 628 712 535 c 0,2,3
 632 459 632 459 485 377 c 0,4,5
 477 373 477 373 477 367 c 0,6,7
 477 359 477 359 485 348 c 2,8,-1
 633 141 l 2,9,10
 693 57 693 57 748 57 c 0,11,12
 793 57 793 57 842 106 c 0,13,14
 845 109 845 109 850 109 c 0,15,16
 866 109 866 109 873.5 101 c 128,-1,17
 881 93 881 93 881 79 c 0,18,19
 881 76 881 76 879 72 c 0,20,21
 829 -27 829 -27 717 -27 c 0,22,23
 641 -27 641 -27 600.5 -2.5 c 128,-1,24
 560 22 560 22 516 94 c 2,25,-1
 379 315 l 2,26,27
 364 340 364 340 315 340 c 0,28,29
 283 340 283 340 274 301 c 2,30,-1
 203 -4 l 2,31,32
 198 -27 198 -27 137.5 -27 c 128,-1,33
 77 -27 77 -27 82 -4 c 2,34,-1
 277 842 l 2,35,36
 362 1213 362 1213 460 1340 c 0,37,38
 571 1464 571 1464 756 1464 c 0,39,40
 844 1464 844 1464 894.5 1416.5 c 128,-1,41
 945 1369 945 1369 945 1298 c 0,42,43
 945 1202 945 1202 879 1202 c 0,44,45
 845 1202 845 1202 824.5 1224.5 c 128,-1,46
 804 1247 804 1247 804 1274 c 0,47,48
 804 1395 804 1395 699 1395 c 0,49,50
 589 1396 589 1396 529 1284 c 0,51,52
 480 1194 480 1194 399 842 c 2,53,-1
 352 639 l 1,54,-1
 365 633 l 1,55,56
 433 733 433 733 521.5 792.5 c 128,-1,57
 610 852 610 852 682 852 c 0,58,59
 750 852 750 852 780 807.5 c 128,-1,60
 810 763 810 763 810 709 c 0,0,1
677 672 m 0,61,62
 677 752 677 752 610 752 c 0,63,64
 499 752 499 752 358 575 c 0,65,66
 325 533 325 533 317 500 c 2,67,-1
 297 412 l 2,68,69
 295 404 295 404 295 398 c 0,70,71
 295 387 295 387 317 387 c 0,72,73
 440 387 440 387 558.5 483 c 128,-1,74
 677 579 677 579 677 672 c 0,61,62
EndSplineSet
EndChar

StartChar: uni019A
Encoding: 410 410 1016
Width: 496
Flags: W
AnchorPoint: "above" 460 1545 basechar 0
LayerCount: 2
Fore
SplineSet
258 209 m 2,0,1
 251 178 251 178 251 162 c 0,2,3
 251 113 251 113 276 113 c 0,4,5
 328 113 328 113 410 207 c 0,6,7
 412 210 412 210 416 210 c 0,8,9
 427 210 427 210 440 197 c 128,-1,10
 453 184 453 184 453 176 c 0,11,12
 453 173 453 173 451 170 c 0,13,14
 281 -27 281 -27 174 -27 c 0,15,16
 114 -27 114 -27 114 80 c 0,17,18
 114 104 114 104 121 135 c 2,19,-1
 251 701 l 1,20,-1
 121 701 l 2,21,22
 115 701 115 701 115 720 c 128,-1,23
 115 739 115 739 129 778 c 128,-1,24
 143 817 143 817 155 817 c 2,25,-1
 277 817 l 1,26,-1
 364 1197 l 2,27,28
 379 1263 379 1263 379 1295 c 0,29,30
 379 1377 379 1377 302 1377 c 0,31,32
 287 1377 287 1377 287 1403 c 128,-1,33
 287 1429 287 1429 302 1429 c 0,34,35
 375 1429 375 1429 451.5 1456.5 c 128,-1,36
 528 1484 528 1484 534 1484 c 0,37,38
 550 1484 550 1484 546 1470 c 2,39,-1
 397 817 l 1,40,-1
 517 817 l 2,41,42
 523 817 523 817 523 795 c 128,-1,43
 523 773 523 773 508 737 c 128,-1,44
 493 701 493 701 485 701 c 2,45,-1
 371 701 l 1,46,-1
 258 209 l 2,0,1
EndSplineSet
EndChar

StartChar: uni019D
Encoding: 413 413 960
Width: 1539
Flags: W
TeX: 117 0
LayerCount: 2
Fore
SplineSet
1232 4 m 2,0,1
 1223 -29 1223 -29 1206 -29 c 128,-1,2
 1189 -29 1189 -29 1175 0 c 2,3,-1
 636 1117 l 2,4,5
 626 1137 626 1137 611 1137 c 128,-1,6
 596 1137 596 1137 587 1106 c 2,7,-1
 273 0 l 18,8,9
 240 -117 240 -117 187 -222 c 128,-1,10
 134 -327 134 -327 46.5 -403.5 c 128,-1,11
 -41 -480 -41 -480 -210 -480 c 0,12,13
 -236 -480 -236 -480 -255 -458 c 128,-1,14
 -274 -436 -274 -436 -274 -418 c 0,15,16
 -274 -386 -274 -386 -253 -370.5 c 128,-1,17
 -232 -355 -232 -355 -207 -355 c 0,18,19
 -170 -355 -170 -355 -140 -381 c 128,-1,20
 -110 -407 -110 -407 -94 -406 c 0,21,22
 -19 -406 -19 -406 58 -313.5 c 128,-1,23
 135 -221 135 -221 169 -106 c 10,24,-1
 520 1114 l 2,25,26
 534 1163 534 1163 534 1212 c 0,27,28
 534 1260 534 1260 486 1277 c 0,29,30
 456 1287 456 1287 390 1287 c 0,31,32
 382 1287 382 1287 382 1308 c 128,-1,33
 382 1329 382 1329 393 1346 c 128,-1,34
 404 1363 404 1363 410 1363 c 0,35,36
 458 1358 458 1358 540.5 1358 c 0,37,38
 624 1358 624 1358 652 1354 c 0,39,40
 681 1349 681 1349 698 1312 c 2,41,-1
 1188 288 l 2,42,43
 1201 260 1201 260 1216.5 260 c 128,-1,44
 1232 260 1232 260 1241 290 c 2,45,-1
 1498 1172 l 2,46,47
 1505 1196 1505 1196 1505 1216 c 0,48,49
 1505 1287 1505 1287 1356 1287 c 0,50,51
 1349 1287 1349 1287 1349 1307 c 128,-1,52
 1349 1327 1349 1327 1361 1345 c 128,-1,53
 1373 1363 1373 1363 1379 1363 c 1,54,55
 1426 1358 1426 1358 1572 1358 c 128,-1,56
 1718 1358 1718 1358 1765 1363 c 1,57,58
 1772 1363 1772 1363 1772 1342 c 128,-1,59
 1772 1321 1772 1321 1762 1305 c 0,60,61
 1750 1287 1750 1287 1744 1287 c 0,62,63
 1666 1287 1666 1287 1627 1267.5 c 128,-1,64
 1588 1248 1588 1248 1566 1172 c 10,65,-1
 1232 4 l 2,0,1
EndSplineSet
Comment: "last+AD0A-64" 
Colour: ffffff
EndChar

StartChar: uni019E
Encoding: 414 414 1018
Width: 927
Flags: W
AnchorPoint: "above" 637 900 basechar 0
LayerCount: 2
Fore
SplineSet
624 -326 m 2,0,1
 614 -360 614 -360 614 -388 c 0,2,3
 614 -428 614 -428 648 -428 c 0,4,5
 679 -428 679 -428 772 -334 c 0,6,7
 775 -332 775 -332 779 -332 c 0,8,9
 791 -332 791 -332 803 -345 c 128,-1,10
 815 -358 815 -358 815 -365 c 256,11,12
 815 -372 815 -372 813 -374 c 0,13,14
 652 -556 652 -556 528 -556 c 0,15,16
 472 -556 472 -556 472 -472 c 0,17,18
 472 -430 472 -430 483 -392 c 2,19,-1
 758 582 l 2,20,21
 788 688 788 688 788 727 c 0,22,23
 788 772 788 772 758 772 c 0,24,25
 672 772 672 772 514 541 c 0,26,27
 344 293 344 293 233 2 c 0,28,29
 222 -27 222 -27 163 -27 c 0,30,31
 104 -27 104 -27 113 6 c 2,32,-1
 289 625 l 2,33,34
 295 646 295 646 295 664 c 0,35,36
 295 711 295 711 263 711 c 0,37,38
 242 711 242 711 156 625 c 0,39,40
 153 622 153 622 149 622 c 0,41,42
 137 622 137 622 125 634.5 c 128,-1,43
 113 647 113 647 113 656 c 0,44,45
 113 660 113 660 115 662 c 0,46,47
 269 852 269 852 383 852 c 0,48,49
 440 852 440 852 440 762 c 0,50,51
 440 725 440 725 411 624 c 2,52,-1
 342 383 l 1,53,-1
 350 379 l 1,54,55
 596 852 596 852 799 852 c 0,56,57
 905 852 905 852 905 727 c 0,58,59
 905 666 905 666 877 567 c 2,60,-1
 624 -326 l 2,0,1
EndSplineSet
EndChar

StartChar: Ohorn
Encoding: 416 416 1020
Width: 1478
Flags: W
LayerCount: 2
Fore
SplineSet
1534 886 m 0,0,1
 1534 536 1534 536 1259 254.5 c 128,-1,2
 984 -27 984 -27 672 -27 c 0,3,4
 495 -27 495 -27 356 85 c 128,-1,5
 217 197 217 197 217 441 c 0,6,7
 217 802 217 802 493.5 1093.5 c 128,-1,8
 770 1385 770 1385 1079 1385 c 0,9,10
 1300 1385 1300 1385 1418 1238 c 1,11,12
 1543 1238 1543 1238 1560.5 1251 c 128,-1,13
 1578 1264 1578 1264 1581 1285 c 0,14,15
 1586 1319 1586 1319 1542 1319 c 0,16,17
 1492 1319 1492 1319 1492 1362 c 256,18,19
 1492 1405 1492 1405 1518.5 1417 c 128,-1,20
 1545 1429 1545 1429 1595 1429 c 0,21,22
 1637 1429 1637 1429 1646.5 1410.5 c 128,-1,23
 1656 1392 1656 1392 1656 1368 c 0,24,25
 1656 1315 1656 1315 1629.5 1250 c 0,26,27
 1604 1185 1604 1185 1482 1185 c 2,28,-1
 1455 1185 l 1,29,30
 1534 1057 1534 1057 1534 886 c 0,0,1
1371 906 m 256,31,32
 1371 1078 1371 1078 1274.5 1195.5 c 128,-1,33
 1178 1313 1178 1313 1031 1314 c 0,34,35
 874 1314 874 1314 716.5 1181 c 128,-1,36
 559 1048 559 1048 469.5 852.5 c 0,37,38
 380 656 380 656 380 456 c 0,39,40
 380 276 380 276 480.5 161 c 128,-1,41
 581 46 581 46 707 46 c 0,42,43
 918 46 918 46 1068.5 194 c 128,-1,44
 1219 342 1219 342 1295 538 c 128,-1,45
 1371 734 1371 734 1371 906 c 256,31,32
EndSplineSet
EndChar

StartChar: uni01A2
Encoding: 418 418 2310
Width: 1890
Flags: W
LayerCount: 2
Fore
SplineSet
1371 906 m 259,0,1
 1371 1078 1371 1078 1274.5 1195.5 c 128,-1,2
 1178 1313 1178 1313 1031 1314 c 3,3,4
 874 1314 874 1314 716.5 1181 c 128,-1,5
 559 1048 559 1048 469.5 852.5 c 0,6,7
 380 656 380 656 380 456 c 259,8,9
 380 276 380 276 480.5 161 c 128,-1,10
 581 46 581 46 707 46 c 3,11,12
 918 46 918 46 1068.5 194 c 128,-1,13
 1219 342 1219 342 1295 538 c 128,-1,14
 1371 734 1371 734 1371 906 c 259,0,1
1534 886 m 259,15,16
 1534 536 1534 536 1259 254.5 c 128,-1,17
 984 -27 984 -27 672 -27 c 3,18,19
 495 -27 495 -27 356 85 c 128,-1,20
 217 197 217 197 217 441 c 259,21,22
 217 802 217 802 493.5 1093.5 c 128,-1,23
 770 1385 770 1385 1079 1385 c 3,24,25
 1258.86 1385 1258.86 1385 1370.6 1287.53 c 1,26,27
 1389.67 1304.6 1389.67 1304.6 1449.17 1330.8 c 128,-1,28
 1508.67 1357 1508.67 1357 1593.05 1357 c 3,29,30
 1752.05 1357 1752.05 1357 1852.67 1249.33 c 128,-1,31
 1953.29 1141.66 1953.29 1141.66 1916.5 1014 c 2,32,-1
 1527.5 -336 l 2,33,34
 1521.5 -356 1521.5 -356 1521.5 -370 c 0,35,36
 1521.5 -453 1521.5 -453 1678.5 -453 c 0,37,38
 1685.5 -453 1685.5 -453 1685.5 -474.5 c 128,-1,39
 1685.5 -496 1685.5 -496 1674.5 -512.5 c 128,-1,40
 1663.5 -529 1663.5 -529 1656.5 -529 c 1,41,42
 1570.5 -522 1570.5 -522 1403 -522 c 128,-1,43
 1235.5 -522 1235.5 -522 1149.5 -529 c 1,44,45
 1141.5 -529 1141.5 -529 1141.5 -509 c 128,-1,46
 1141.5 -489 1141.5 -489 1152.5 -471 c 128,-1,47
 1163.5 -453 1163.5 -453 1169.5 -453 c 0,48,49
 1257.5 -453 1257.5 -453 1309.5 -431.5 c 128,-1,50
 1361.5 -410 1361.5 -410 1382.5 -336 c 2,51,-1
 1772.5 1014 l 2,52,53
 1803.32 1120.69 1803.32 1120.69 1741.69 1203.35 c 128,-1,54
 1680.05 1286 1680.05 1286 1596.05 1286 c 3,55,56
 1532.67 1286 1532.67 1286 1488.76 1274.38 c 128,-1,57
 1444.85 1262.76 1444.85 1262.76 1415 1241.72 c 1,58,59
 1415.5 1241.11 1415.5 1241.11 1416 1240.5 c 0,60,61
 1534 1096 1534 1096 1534 886 c 259,15,16
EndSplineSet
EndChar

StartChar: uni01A4
Encoding: 420 420 1017
Width: 1184
Flags: W
AnchorPoint: "above" 924 1415 basechar 0
LayerCount: 2
Fore
SplineSet
1327 1081 m 0,0,1
 1327 868 1327 868 1141.5 728.5 c 128,-1,2
 956 589 956 589 731 589 c 0,3,4
 660 589 660 589 552 602 c 0,5,6
 527 605 527 605 521 583 c 2,7,-1
 409 186 l 2,8,9
 403 165 403 165 403 148 c 0,10,11
 403 69 403 69 560 69 c 0,12,13
 567 69 567 69 567 48 c 128,-1,14
 567 27 567 27 556 10 c 128,-1,15
 545 -7 545 -7 539 -7 c 1,16,17
 453 0 453 0 285 0 c 128,-1,18
 117 0 117 0 31 -7 c 1,19,20
 23 -7 23 -7 23 14 c 128,-1,21
 23 35 23 35 34 52 c 128,-1,22
 45 69 45 69 51 69 c 0,23,24
 141 69 141 69 192.5 93 c 128,-1,25
 244 117 244 117 264 186 c 10,26,-1
 548 1174 l 2,27,28
 562 1221 562 1221 506 1254 c 0,29,30
 455 1284 455 1284 378 1284 c 0,31,32
 296 1284 296 1284 245 1256 c 128,-1,33
 194 1228 194 1228 188 1192 c 0,34,35
 184 1170 184 1170 210.5 1135.5 c 0,36,37
 237 1100 237 1100 237 1066 c 0,38,39
 237 1026 237 1026 212.5 1001.5 c 128,-1,40
 188 977 188 977 157 977 c 0,41,42
 116 977 116 977 101 1007 c 0,43,44
 86 1036 86 1036 86 1066 c 0,45,46
 86 1103 86 1103 107 1156.5 c 128,-1,47
 128 1210 128 1210 181 1264 c 128,-1,48
 234 1318 234 1318 298 1337.5 c 128,-1,49
 362 1357 362 1357 492 1357 c 0,50,51
 533 1357 533 1357 572.5 1355.5 c 128,-1,52
 612 1354 612 1354 656 1354 c 0,53,54
 785 1354 785 1354 838.5 1356 c 128,-1,55
 892 1358 892 1358 969 1358 c 0,56,57
 1128 1358 1128 1358 1227.5 1283 c 128,-1,58
 1327 1208 1327 1208 1327 1081 c 0,0,1
1165 1068 m 0,59,60
 1165 1171 1165 1171 1089 1233.5 c 128,-1,61
 1013 1296 1013 1296 869 1296 c 256,62,63
 725 1296 725 1296 716 1265 c 2,64,-1
 554 698 l 2,65,66
 548 675 548 675 567 671 c 0,67,68
 631 658 631 658 687 658 c 0,69,70
 892 658 892 658 1028.5 772 c 128,-1,71
 1165 886 1165 886 1165 1068 c 0,59,60
EndSplineSet
EndChar

StartChar: uni01A9
Encoding: 425 425 1036
Width: 1296
Flags: W
LayerCount: 2
Fore
SplineSet
1097 23 m 2,0,1
 1088 -7 1088 -7 1062 -7 c 1,2,3
 818 0 818 0 575.5 0 c 128,-1,4
 333 0 333 0 82 -7 c 1,5,6
 46 -7 46 -7 52 13.5 c 128,-1,7
 58 34 58 34 80 53 c 2,8,-1
 661 552 l 2,9,10
 699 585 699 585 704.5 603 c 128,-1,11
 710 621 710 621 699 645 c 2,12,-1
 408 1291 l 2,13,14
 404 1301 404 1301 408 1314 c 0,15,16
 421 1358 421 1358 460 1358 c 257,17,18
 595 1354 595 1354 802.5 1354 c 128,-1,19
 1010 1354 1010 1354 1338 1358 c 1,20,21
 1400 1358 1400 1358 1404 1338 c 0,22,23
 1404 1336 1404 1336 1402 1327 c 2,24,-1
 1311 1010 l 2,25,26
 1306 993 1306 993 1269 993 c 128,-1,27
 1232 993 1232 993 1236 1010 c 0,28,29
 1275 1146 1275 1146 1216 1212 c 0,30,31
 1156 1278 1156 1278 1056 1282 c 2,32,-1
 680 1296 l 2,33,34
 618 1298 618 1298 642 1247 c 2,35,-1
 881 713 l 2,36,37
 894 683 894 683 889.5 666.5 c 128,-1,38
 885 650 885 650 856 625 c 2,39,-1
 263 113 l 2,40,41
 212 69 212 69 283 69 c 2,42,-1
 775 69 l 2,43,44
 882 69 882 69 978 134.5 c 128,-1,45
 1074 200 1074 200 1114 340 c 0,46,47
 1119 357 1119 357 1156 357 c 128,-1,48
 1193 357 1193 357 1188 340 c 2,49,-1
 1097 23 l 2,0,1
EndSplineSet
EndChar

StartChar: uni01AA
Encoding: 426 426 2328
Width: 576
Flags: W
LayerCount: 2
Fore
SplineSet
302.352 -297 m 2,0,1
 297.535 -320.111 297.535 -320.111 297.535 -342.5 c 259,2,3
 297.535 -382.543 297.535 -382.543 315.936 -424.771 c 128,-1,4
 334.335 -467 334.335 -467 368.667 -467 c 259,5,6
 406.667 -467 406.667 -467 454.868 -417 c 128,-1,7
 503.069 -367 503.069 -367 561.069 -367 c 3,8,9
 579.512 -367 579.512 -367 589.623 -381.639 c 0,10,11
 599.509 -396.276 599.509 -396.276 599.509 -412.214 c 259,12,13
 599.509 -428.151 599.509 -428.151 587.594 -454.326 c 128,-1,14
 575.679 -480.5 575.679 -480.5 519.203 -515.75 c 128,-1,15
 462.729 -551 462.729 -551 398.729 -551 c 3,16,17
 285.729 -551 285.729 -551 238.683 -488 c 0,18,19
 194.196 -427.714 194.196 -427.714 194.196 -334 c 259,20,21
 194.196 -238.336 194.196 -238.336 221.5 -111 c 2,22,-1
 414.396 807 l 2,23,24
 425.977 862.109 425.977 862.109 435.486 909.265 c 1,25,26
 389.232 905 389.232 905 338.625 905 c 3,27,28
 193.65 905 193.65 905 108.625 988.75 c 128,-1,29
 23.6006 1072.5 23.6006 1072.5 23.6006 1187.5 c 0,30,31
 23.6006 1307.5 23.6006 1307.5 108.471 1385.75 c 128,-1,32
 193.342 1464 193.342 1464 315.842 1464 c 3,33,34
 398.36 1464 398.36 1464 459.879 1436.79 c 128,-1,35
 521.396 1409.57 521.396 1409.57 554.116 1354.7 c 128,-1,36
 586.835 1299.82 586.835 1299.82 586.835 1189 c 3,37,38
 586.835 1113.66 586.835 1113.66 571.923 1010.3 c 1,39,40
 666.021 1028.34 666.021 1028.34 747.601 1072.5 c 1,41,42
 758.301 1076.4 758.301 1076.4 771.801 1048 c 0,43,44
 778.757 1033.42 778.757 1033.42 778.757 1024.45 c 3,45,46
 778.757 1015.95 778.757 1015.95 772.601 1012.5 c 1,47,48
 702.101 975 702.101 975 592.851 940 c 0,49,50
 576.462 934.75 576.462 934.75 559.269 930.287 c 1,51,52
 549.179 872.289 549.179 872.289 535.396 807 c 2,53,-1
 302.352 -297 l 2,0,1
452.229 994.526 m 1,54,55
 462.031 1046.11 462.031 1046.11 470.819 1099.5 c 128,-1,56
 479.607 1152.88 479.607 1152.88 479.607 1191 c 3,57,58
 479.607 1266 479.607 1266 452.354 1330.5 c 128,-1,59
 425.101 1395 425.101 1395 342.964 1395 c 3,60,61
 260.464 1395 260.464 1395 204.481 1329.75 c 128,-1,62
 148.5 1264.5 148.5 1264.5 148.5 1182 c 0,63,64
 148.5 1095 148.5 1095 198.051 1042.5 c 128,-1,65
 247.601 990 247.601 990 345.101 990 c 3,66,67
 398.505 990 398.505 990 452.229 994.526 c 1,54,55
EndSplineSet
EndChar

StartChar: uni01AB
Encoding: 427 427 2308
Width: 604
Flags: W
LayerCount: 2
Fore
SplineSet
276 225 m 2,0,1
 264 183 264 183 264 154 c 0,2,3
 264 102 264 102 299 102 c 0,4,5
 362 102 362 102 522 301 c 0,6,7
 524 304 524 304 528 304 c 0,8,9
 545.344 304 545.344 304 556 282 c 0,10,11
 559.032 275.44 559.032 275.44 559.032 269.099 c 3,12,13
 559.032 265.422 559.032 265.422 558.06 261.82 c 0,14,15
 541.562 203.546 541.562 203.546 521 136.125 c 0,16,17
 469 -34.375 469 -34.375 359.5 -153.875 c 128,-1,18
 250 -273.375 250 -273.375 83 -273.375 c 0,19,20
 51 -273.375 51 -273.375 30 -247.875 c 128,-1,21
 9 -222.375 9 -222.375 9 -197.375 c 0,22,23
 9 -168.375 9 -168.375 35.5 -153.375 c 128,-1,24
 62 -138.375 62 -138.375 91 -138.375 c 0,25,26
 122 -138.375 122 -138.375 150 -162.875 c 128,-1,27
 178 -187.375 178 -187.375 201 -187.375 c 0,28,29
 270 -187.375 270 -187.375 319.5 -121.375 c 128,-1,30
 369 -55.375 369 -55.375 386 19.625 c 2,31,-1
 396.141 63.9543 l 1,32,33
 379.556 47.8003 379.556 47.8003 364.5 35.5 c 0,34,35
 288 -27 288 -27 208 -27 c 0,36,37
 168 -27 168 -27 145 3.5 c 128,-1,38
 122 34 122 34 122 76 c 0,39,40
 122 120 122 120 130 148 c 2,41,-1
 298 730 l 1,42,-1
 142 730 l 2,43,44
 130 730 130 730 130 749 c 0,45,46
 130 785 130 785 152 789 c 2,47,-1
 319 818 l 1,48,-1
 422 1021 l 2,49,50
 428 1033 428 1033 452 1033 c 3,51,52
 492 1033 492 1033 492 1014 c 3,53,54
 492 1012 492 1012 491 1008 c 2,55,-1
 442 808 l 1,56,-1
 666 808 l 2,57,58
 674 808 674 808 674 787.5 c 128,-1,59
 674 767 674 767 663 748.5 c 128,-1,60
 652 730 652 730 645 730 c 2,61,-1
 421 730 l 1,62,-1
 276 225 l 2,0,1
EndSplineSet
EndChar

StartChar: uni01AC
Encoding: 428 428 1040
Width: 1275
Flags: W
LayerCount: 2
Fore
SplineSet
699 186 m 2,0,1
 694 169 694 169 694 149 c 0,2,3
 694 69 694 69 851 69 c 0,4,5
 858 69 858 69 858 47.5 c 128,-1,6
 858 26 858 26 847.5 9.5 c 128,-1,7
 837 -7 837 -7 831 -7 c 1,8,9
 743 0 743 0 566.5 0 c 128,-1,10
 390 0 390 0 304 -7 c 1,11,12
 296 -7 296 -7 296 14 c 128,-1,13
 296 35 296 35 307 52 c 128,-1,14
 318 69 318 69 324 69 c 0,15,16
 440 69 440 69 489.5 97 c 128,-1,17
 539 125 539 125 556 186 c 10,18,-1
 857 1240 l 2,19,20
 862 1258 862 1258 862 1263 c 0,21,22
 862 1282 862 1282 825 1282 c 2,23,-1
 568 1282 l 18,24,25
 475 1282 475 1282 413 1243 c 0,26,27
 377 1221 377 1221 368 1190 c 0,28,29
 362 1168 362 1168 387 1130 c 0,30,31
 413 1091 413 1091 400 1047 c 0,32,33
 388 1004 388 1004 348 984 c 0,34,35
 330 975 330 975 313 975 c 0,36,37
 262 975 262 975 253 1033 c 0,38,39
 249 1060 249 1060 258 1091 c 0,40,41
 290 1199 290 1199 388 1277 c 0,42,43
 438 1317 438 1317 494 1335 c 0,44,45
 555 1355 555 1355 690 1355 c 0,46,47
 744 1355 744 1355 815 1354.5 c 128,-1,48
 886 1354 886 1354 946 1354 c 0,49,50
 1053 1354 1053 1354 1188.5 1356 c 128,-1,51
 1324 1358 1324 1358 1474 1358 c 0,52,53
 1546 1358 1546 1358 1546 1338 c 2,54,-1
 1449 1006 l 2,55,56
 1445 992 1445 992 1405.5 992 c 128,-1,57
 1366 992 1366 992 1369 1006 c 0,58,59
 1384 1076 1384 1076 1384 1104 c 0,60,61
 1384 1282 1384 1282 1188 1282 c 2,62,-1
 1054 1282 l 2,63,64
 1013 1282 1013 1282 1002 1245 c 2,65,-1
 699 186 l 2,0,1
EndSplineSet
EndChar

StartChar: uni01AD
Encoding: 429 429 2309
Width: 479
Flags: W
LayerCount: 2
Fore
SplineSet
900 1045.2 m 0,0,1
 900 949.2 900 949.2 834 949.2 c 0,2,3
 800 949.2 800 949.2 779.5 970.7 c 128,-1,4
 759 992.2 759 992.2 759 1021.2 c 0,5,6
 759 1142.2 759 1142.2 688 1142.2 c 259,7,8
 610 1142.2 610 1142.2 558.741 1075.52 c 128,-1,9
 507.482 1008.85 507.482 1008.85 444.39 808 c 1,10,-1
 666 808 l 2,11,12
 674 808 674 808 674 787.5 c 128,-1,13
 674 767 674 767 663 748.5 c 128,-1,14
 652 730 652 730 645 730 c 2,15,-1
 421 730 l 1,16,-1
 276 225 l 2,17,18
 264 183.207 264 183.207 264 154 c 0,19,20
 264 102 264 102 299 102 c 0,21,22
 389.333 102 389.333 102 522 301 c 0,23,24
 524 304 524 304 528 304 c 0,25,26
 544 304 544 304 556 282 c 0,27,28
 563 269 563 269 557 260 c 0,29,30
 458.569 112.354 458.569 112.354 364.5 35.5 c 0,31,32
 288 -27 288 -27 208 -27 c 0,33,34
 168 -27 168 -27 145 3.5 c 128,-1,35
 122 34 122 34 122 76 c 0,36,37
 122 120.286 122 120.286 130 148 c 2,38,-1
 257.351 589.18 l 2,39,40
 276.186 654.431 276.186 654.431 301 730 c 1,41,-1
 142 730 l 2,42,43
 130 730 130 730 130 749 c 0,44,45
 130 785.214 130 785.214 152 789 c 2,46,-1
 332.847 820.121 l 1,47,48
 420.219 1058.55 420.219 1058.55 510.109 1134.88 c 128,-1,49
 600 1211.2 600 1211.2 717 1211.2 c 259,50,51
 797 1211.2 797 1211.2 848.5 1161.7 c 128,-1,52
 900 1112.2 900 1112.2 900 1045.2 c 0,0,1
EndSplineSet
EndChar

StartChar: uni01AE
Encoding: 430 430 1037
Width: 1431
Flags: W
LayerCount: 2
Fore
SplineSet
721 260 m 17,0,1
 614 -113 614 -113 620.5 -203 c 128,-1,2
 627 -293 627 -293 690 -317 c 1,3,4
 709 -284 709 -284 759.5 -250 c 128,-1,5
 810 -216 810 -216 870 -216 c 256,6,7
 917 -216 917 -216 939.5 -241 c 128,-1,8
 962 -266 962 -266 953 -298 c 256,9,10
 936 -358 936 -358 889 -388.5 c 128,-1,11
 842 -419 842 -419 788 -419 c 256,12,13
 679 -419 679 -419 614 -352 c 128,-1,14
 549 -285 549 -285 514 -184 c 128,-1,15
 479 -83 479 -83 684 634 c 1,16,-1
 857 1240 l 2,17,18
 862 1258 862 1258 862 1263 c 0,19,20
 862 1282 862 1282 825 1282 c 2,21,-1
 680 1282 l 2,22,23
 432 1283 432 1283 352 1006 c 0,24,25
 348 992 348 992 312 992 c 128,-1,26
 276 992 276 992 274 1006 c 1,27,-1
 366 1327 l 2,28,29
 374 1358 374 1358 444 1358 c 0,30,31
 636 1358 636 1358 727.5 1356 c 128,-1,32
 819 1354 819 1354 956 1354 c 128,-1,33
 1093 1354 1093 1354 1193.5 1356 c 128,-1,34
 1294 1358 1294 1358 1474 1358 c 0,35,36
 1546 1358 1546 1358 1546 1338 c 2,37,-1
 1450 1006 l 2,38,39
 1446 992 1446 992 1407 992 c 128,-1,41
 1368 992 1368 992 1370 1006 c 0,42,43
 1384 1076 1384 1076 1384 1104 c 0,44,45
 1384 1282 1384 1282 1188 1282 c 2,46,-1
 1054 1282 l 2,47,48
 1013 1282 1013 1282 1002 1245 c 2,49,-1
 721 260 l 17,0,1
EndSplineSet
EndChar

StartChar: Uhorn
Encoding: 431 431 1022
Width: 1482
Flags: W
AnchorPoint: "above" 1118 1415 basechar 0
LayerCount: 2
Fore
SplineSet
1456 890 m 18,0,1
 1346 503 1346 503 1273 346 c 128,-1,2
 1200 189 1200 189 1047 81 c 128,-1,3
 894 -27 894 -27 665 -27 c 0,4,5
 482 -27 482 -27 388.5 42.5 c 128,-1,6
 295 112 295 112 295 263 c 0,7,8
 295 368 295 368 344 539 c 2,9,-1
 525 1172 l 2,10,11
 533 1200 533 1200 533 1218 c 0,12,13
 533 1262 533 1262 497.5 1274.5 c 128,-1,14
 462 1287 462 1287 392 1287 c 0,15,16
 383 1287 383 1287 383 1309.5 c 128,-1,17
 383 1332 383 1332 393.5 1347.5 c 128,-1,18
 404 1363 404 1363 410 1363 c 1,19,20
 458 1358 458 1358 655 1358 c 128,-1,21
 852 1358 852 1358 898 1363 c 1,22,23
 905 1363 905 1363 905 1341.5 c 128,-1,24
 905 1320 905 1320 894 1303.5 c 128,-1,25
 883 1287 883 1287 877 1287 c 0,26,27
 750 1287 750 1287 718 1256 c 128,-1,28
 686 1225 686 1225 671 1172 c 10,29,-1
 531 687 l 2,30,31
 442 379 442 379 442 268 c 0,32,33
 442 165 442 165 512.5 107 c 0,34,35
 584 49 584 49 710 49 c 256,36,37
 910 49 910 49 1039 153 c 128,-1,38
 1168 257 1168 257 1234 487 c 2,39,-1
 1431 1172 l 2,40,41
 1437 1193 1437 1193 1437 1213 c 0,42,43
 1437 1287 1437 1287 1299 1287 c 0,44,45
 1292 1287 1292 1287 1292 1308 c 128,-1,46
 1292 1329 1292 1329 1303 1346 c 128,-1,47
 1314 1363 1314 1363 1320 1363 c 9,48,49
 1473 1358 1473 1358 1626 1358 c 24,50,51
 1751 1358 1751 1358 1768.5 1371 c 128,-1,52
 1786 1384 1786 1384 1789 1405 c 0,53,54
 1794 1439 1794 1439 1750 1439 c 0,55,56
 1700 1439 1700 1439 1700 1482 c 256,57,58
 1700 1525 1700 1525 1726.5 1537 c 128,-1,59
 1753 1549 1753 1549 1803 1549 c 0,60,61
 1845 1549 1845 1549 1854.5 1530.5 c 128,-1,62
 1864 1512 1864 1512 1864 1488 c 0,63,64
 1864 1435 1864 1435 1837.5 1370 c 128,-1,65
 1811 1305 1811 1305 1689 1305 c 2,66,-1
 1663 1305 l 0,67,68
 1628 1305 1628 1305 1592 1274 c 128,-1,69
 1556 1243 1556 1243 1536 1172 c 10,70,-1
 1456 890 l 18,0,1
EndSplineSet
EndChar

StartChar: uhorn
Encoding: 432 432 1023
Width: 991
Flags: W
AnchorPoint: "above" 633 900 basechar 0
LayerCount: 2
Fore
SplineSet
768 203 m 2,0,1
 756 161 756 161 756 141 c 0,2,3
 756 102 756 102 790 102 c 128,-1,4
 824 102 824 102 915 195 c 0,5,6
 918 198 918 198 923 198 c 0,7,8
 936 198 936 198 947 186 c 0,9,10
 960 172 960 172 959 164 c 0,11,12
 959 160 959 160 956 156 c 0,13,14
 775 -27 775 -27 672 -27 c 0,15,16
 614 -27 614 -27 614 63 c 0,17,18
 614 99 614 99 625 137 c 2,19,-1
 707 424 l 1,20,21
 463 116 463 116 372.5 44.5 c 128,-1,22
 282 -27 282 -27 226 -27 c 0,23,24
 142 -27 142 -27 142 72 c 0,25,26
 142 110 142 110 162 180 c 2,27,-1
 289 625 l 2,28,29
 295 646 295 646 295 666 c 0,30,31
 295 711 295 711 266.5 711 c 128,-1,32
 238 711 238 711 214 684 c 0,33,34
 188 655 188 655 158 625 c 0,35,36
 155 622 155 622 150 622 c 0,37,38
 132 622 132 622 119 644 c 0,39,40
 115 651 115 651 115 656 c 0,41,42
 115 660 115 660 117 662 c 0,43,44
 307 852 307 852 385 852 c 0,45,46
 440 852 440 852 440 770 c 0,47,48
 440 723 440 723 415 636 c 2,49,-1
 328 334 l 2,50,51
 287 192 287 192 287 147 c 0,52,53
 287 102 287 102 315 102 c 0,54,55
 359 102 359 102 474 224 c 0,56,57
 589 346 589 346 702 541 c 0,58,59
 761 644 761 644 823 829 c 0,60,61
 831 852 831 852 883 852 c 1,62,63
 1008 852 1008 852 1025.5 865 c 128,-1,64
 1043 878 1043 878 1046 899 c 0,65,66
 1051 933 1051 933 1007 933 c 0,67,68
 957 933 957 933 957 976 c 128,-1,69
 957 1019 957 1019 983.5 1031 c 128,-1,70
 1010 1043 1010 1043 1060 1043 c 0,71,72
 1102 1043 1102 1043 1111.5 1024.5 c 128,-1,73
 1121 1006 1121 1006 1121 982 c 0,74,75
 1121 909 1121 909 1088.5 854 c 128,-1,76
 1056 799 1056 799 938 799 c 9,77,-1
 768 203 l 2,0,1
EndSplineSet
EndChar

StartChar: uni01B3
Encoding: 435 435 2312
Width: 1228
Flags: W
LayerCount: 2
Fore
SplineSet
650.408 918 m 2,0,1
 722 689 l 2,2,3
 727.627 671 727.627 671 738 671 c 256,4,5
 748.006 671 748.006 671 762 686 c 2,6,-1
 1207 1163 l 2,7,8
 1257 1216.6 1257 1216.6 1257 1247 c 0,9,10
 1257 1287 1257 1287 1157 1287 c 0,11,12
 1150 1287 1150 1287 1150 1308.5 c 128,-1,13
 1150 1330 1150 1330 1161 1346.5 c 128,-1,14
 1172 1363 1172 1363 1179 1363 c 9,15,16
 1245 1358 1245 1358 1371.5 1358 c 128,-1,17
 1498 1358 1498 1358 1573 1363 c 17,18,19
 1580 1363 1580 1363 1580 1342.5 c 128,-1,20
 1580 1322 1580 1322 1569 1304.5 c 128,-1,21
 1558 1287 1558 1287 1551 1287 c 0,22,23
 1459 1287 1459 1287 1407.5 1258.5 c 0,24,25
 1356.98 1230.54 1356.98 1230.54 1196 1059 c 2,26,-1
 815 653 l 2,27,28
 758.107 592.374 758.107 592.374 728 487 c 2,29,-1
 642 186 l 2,30,31
 633 154.5 633 154.5 633 126 c 0,32,33
 633 98 633 98 667.5 83.5 c 128,-1,34
 702 69 702 69 773 69 c 0,35,36
 781 69 781 69 781 48 c 128,-1,37
 781 27 781 27 770 10 c 128,-1,38
 759 -7 759 -7 753 -7 c 1,39,40
 666 0 666 0 514.5 0 c 128,-1,41
 363 0 363 0 277 -7 c 1,42,43
 270 -7 270 -7 270 14 c 128,-1,44
 270 35 270 35 281 52 c 128,-1,45
 292 69 292 69 298 69 c 0,46,47
 392 69 392 69 434.5 89 c 128,-1,48
 477 109 477 109 499 186 c 2,49,-1
 575 452 l 2,50,51
 602 546.5 602 546.5 602 580.5 c 0,52,53
 602.122 615.039 602.122 615.039 579 689 c 2,54,-1
 554.303 768 l 2,55,56
 438.518 1138.37 438.518 1138.37 391.005 1208.42 c 128,-1,58
 343.492 1278.47 343.492 1278.47 288.722 1278.47 c 3,59,60
 278.858 1278.47 278.858 1278.47 268.765 1276.52 c 1,61,62
 270.139 1238.47 270.139 1238.47 245.33 1182.88 c 128,-1,63
 220.521 1127.28 220.521 1127.28 169.638 1095.49 c 256,64,65
 141.862 1077.37 141.862 1077.37 117.722 1077.37 c 3,66,67
 84.3494 1077.37 84.3494 1077.37 66.4024 1099.8 c 128,-1,68
 48.4553 1122.23 48.4553 1122.23 48.4553 1172 c 3,69,70
 48.4553 1242 48.4553 1242 113.089 1297.36 c 128,-1,71
 177.722 1352.72 177.722 1352.72 262.722 1352.72 c 3,72,73
 295.8 1352.72 295.8 1352.72 349.761 1339.36 c 128,-1,74
 403.722 1326 403.722 1326 482.961 1263.07 c 128,-1,75
 562.2 1200.15 562.2 1200.15 650.408 918 c 2,0,1
EndSplineSet
EndChar

StartChar: uni01B4
Encoding: 436 436 2313
Width: 793
Flags: W
LayerCount: 2
Fore
SplineSet
1274.18 923 m 0,0,1
 1274.18 827 1274.18 827 1208.18 827 c 0,2,3
 1184.18 827 1184.18 827 1158.68 845 c 128,-1,4
 1133.18 863 1133.18 863 1133.18 899 c 0,5,6
 1134.18 1020 1134.18 1020 1030.18 1020 c 3,7,8
 940.185 1020 940.185 1020 882.685 941 c 128,-1,9
 825.185 862 825.185 862 800.78 785.75 c 128,-1,10
 776.375 709.501 776.375 709.501 721.234 515.05 c 128,-1,11
 666.092 320.6 666.092 320.6 581.421 125.55 c 128,-1,12
 496.75 -69.5 496.75 -69.5 442.438 -154.75 c 128,-1,13
 388.125 -240 388.125 -240 258.062 -397.5 c 128,-1,14
 128 -555 128 -555 2 -555 c 3,15,16
 -50 -555 -50 -555 -81.5 -524.5 c 128,-1,17
 -113 -494 -113 -494 -113 -459 c 0,18,19
 -113 -419 -113 -419 -96 -395 c 128,-1,20
 -79 -371 -79 -371 -38 -371 c 128,-1,21
 3 -371 3 -371 23 -405.5 c 128,-1,22
 43 -440 43 -440 82 -440 c 3,23,24
 147 -440 147 -440 221 -347.5 c 128,-1,25
 295 -255 295 -255 326.5 -143 c 128,-1,26
 358 -31 358 -31 358 135 c 3,27,28
 358 363 358 363 324 540 c 128,-1,29
 290 717 290 717 240 717 c 3,30,31
 203.857 717 203.857 717 129 586 c 0,32,33
 125 579 125 579 110.5 580.5 c 128,-1,34
 96 582 96 582 87 589 c 128,-1,35
 78 596 78 596 82 604 c 0,36,37
 206 852 206 852 303 852 c 3,38,39
 388 852 388 852 432.5 669 c 0,40,41
 477 484.033 477 484.033 477 227 c 2,42,43
 477 107.6 l 1,44,-1
 487.592 107.6 l 1,45,46
 566.342 338 566.342 338 640.842 622 c 128,-1,47
 715.342 906 715.342 906 814.263 997.5 c 128,-1,48
 913.185 1089 913.185 1089 1085.18 1089 c 3,49,50
 1171.18 1089 1171.18 1089 1222.68 1041.5 c 128,-1,51
 1274.18 994 1274.18 994 1274.18 923 c 0,0,1
EndSplineSet
EndChar

StartChar: uni01B6
Encoding: 438 438 324
Width: 891
GlyphClass: 2
Flags: W
LayerCount: 2
Fore
SplineSet
868 190 m 0,0,1
 868 84 868 84 789 12.5 c 128,-1,2
 710 -59 710 -59 629 -59 c 0,3,4
 585 -59 585 -59 522 -36.5 c 128,-1,5
 459 -14 459 -14 373 26 c 128,-1,6
 287 66 287 66 248 66 c 0,7,8
 186 66 186 66 106 -23 c 1,9,10
 102 -29 102 -29 92 -29 c 0,11,12
 68 -29 68 -29 42 4 c 0,13,14
 33 17 33 17 33 23 c 0,15,16
 33 28 33 28 36 31 c 2,17,-1
 344 374 l 1,18,-1
 213 374 l 2,19,20
 206 374 206 374 206 393 c 128,-1,21
 206 412 206 412 219 440 c 128,-1,22
 232 468 232 468 242 468 c 10,23,-1
 428 468 l 1,24,-1
 600 659 l 2,25,26
 609 669 609 669 609 677 c 0,27,28
 609 693 609 693 569 705 c 0,29,30
 436 745 436 745 328 745 c 0,31,32
 238 745 238 745 238 688 c 0,33,34
 238 675 238 675 257 650 c 128,-1,35
 276 625 276 625 276 596 c 0,36,37
 276 532 276 532 215 532 c 0,38,39
 137 532 137 532 137 612 c 0,40,41
 137 680 137 680 215.5 761 c 128,-1,42
 294 842 294 842 420 842 c 0,43,44
 482 842 482 842 572 814 c 128,-1,45
 662 786 662 786 707 786 c 0,46,47
 759 786 759 786 782 811 c 2,48,-1
 823 856 l 2,49,50
 828 861 828 861 837 861 c 0,51,52
 859 861 859 861 872 840 c 0,53,54
 877 832 877 832 877 825 c 0,55,56
 877 820 877 820 874 817 c 2,57,-1
 559 468 l 1,58,-1
 692 468 l 2,59,60
 698 468 698 468 698 450 c 128,-1,61
 698 432 698 432 683 403 c 128,-1,62
 668 374 668 374 659 374 c 10,63,-1
 474 374 l 1,64,-1
 283 162 l 1,65,-1
 285 154 l 1,66,-1
 328 151 l 2,67,68
 389 147 389 147 517.5 94 c 128,-1,69
 646 41 646 41 684 41 c 0,70,71
 768 41 768 41 768 129 c 0,72,73
 768 151 768 151 740.5 175.5 c 128,-1,74
 713 200 713 200 713 231 c 0,75,76
 713 295 713 295 782 295 c 0,77,78
 822 295 822 295 845 261.5 c 128,-1,79
 868 228 868 228 868 190 c 0,0,1
EndSplineSet
Comment: "last+AD0A-79" 
Colour: ffffff
EndChar

StartChar: uni01B9
Encoding: 441 441 2315
Width: 889
Flags: W
LayerCount: 2
Fore
SplineSet
137.892 -220.393 m 3,0,1
 137.892 -322.667 137.892 -322.667 186.806 -403.833 c 128,-1,2
 235.719 -485 235.719 -485 361.955 -485 c 3,3,4
 451.955 -485 451.955 -485 538.176 -380.5 c 128,-1,5
 624.396 -276 624.396 -276 666.396 -276 c 259,6,7
 701.997 -276 701.997 -276 717.95 -293.017 c 128,-1,8
 733.903 -310.033 733.903 -310.033 733.903 -330.869 c 259,9,10
 733.903 -364 733.903 -364 702.95 -415.667 c 128,-1,11
 671.997 -467.333 671.997 -467.333 586.666 -512.167 c 128,-1,12
 501.335 -557 501.335 -557 393.865 -557 c 3,13,14
 201.865 -557 201.865 -557 97.3093 -471.628 c 128,-1,15
 -7.2467 -386.257 -7.2467 -386.257 -7.2467 -214.118 c 3,16,17
 -7.2467 -72.1592 -7.2467 -72.1592 42.8854 51.9204 c 128,-1,18
 93.0176 176 93.0176 176 195.879 266 c 128,-1,19
 298.742 356 298.742 356 430.74 356 c 3,20,21
 510.74 356 510.74 356 511.549 358 c 0,22,23
 512.186 367 512.186 367 489.881 391 c 0,24,25
 332.566 561 332.566 561 234.492 791 c 0,26,27
 228.342 803 228.342 803 238.24 827.5 c 128,-1,28
 248.139 852 248.139 852 268.139 852 c 0,29,30
 305.521 848 305.521 848 446.521 848 c 2,31,-1
 736.521 848 l 1,32,33
 789.521 848 789.521 848 904.41 870 c 17,34,35
 908.41 870 908.41 870 912.992 867.376 c 128,-1,36
 917.573 864.753 917.573 864.753 917.573 852.296 c 3,37,38
 917.573 845.6 917.573 845.6 916.674 836 c 2,39,-1
 888.799 569 l 18,40,41
 888.182 565 888.182 565 885.066 561 c 128,-1,42
 881.949 557 881.949 557 875.545 556 c 128,-1,43
 869.143 555 869.143 555 867.373 563 c 10,44,-1
 852.039 629 l 18,45,46
 842.008 671 842.008 671 813.781 689 c 128,-1,47
 785.553 707 785.553 707 732.553 707 c 10,48,-1
 410.555 707 l 2,49,50
 394.555 707 394.555 707 388.494 692 c 128,-1,51
 382.434 677 382.434 677 389.99 666 c 0,52,53
 473.445 531 473.445 531 571.205 421.5 c 128,-1,54
 668.963 312 668.963 312 757.146 258 c 0,55,56
 764.125 253 764.125 253 727.945 208 c 0,57,58
 695.592 170 695.592 170 688.631 180 c 0,59,60
 611.096 295 611.096 295 463.14 293.75 c 128,-1,61
 315.184 292.5 315.184 292.5 226.538 111.752 c 128,-1,62
 137.892 -68.9952 137.892 -68.9952 137.892 -220.393 c 3,0,1
EndSplineSet
EndChar

StartChar: uni01BA
Encoding: 442 442 2316
Width: 839
Flags: W
LayerCount: 2
Fore
SplineSet
256.111 870 m 1,0,-1
 433.835 848 l 1,1,-1
 755.835 848 l 2,2,3
 875.835 848 875.835 848 949.612 852 c 1,4,-1
 965.418 851 l 1,5,6
 977.757 847.068 977.757 847.068 977.757 834.473 c 3,7,8
 977.757 802.414 977.757 802.414 965.755 791 c 1,9,10
 742.896 550 742.896 550 501.003 391 c 0,11,12
 463.586 366.412 463.586 366.412 463.586 357.982 c 3,13,14
 463.586 355.982 463.586 355.982 551.199 356 c 0,15,16
 779.593 356.046 779.593 356.046 779.593 245.93 c 3,17,18
 779.593 162.299 779.593 162.299 685.625 109.05 c 128,-1,19
 591.657 55.7998 591.657 55.7998 441.989 9.61523 c 128,-1,20
 292.321 -36.5684 292.321 -36.5684 235.744 -84.125 c 128,-1,21
 179.166 -131.682 179.166 -131.682 179.166 -190.672 c 3,22,23
 179.166 -263.906 179.166 -263.906 232.796 -304.453 c 128,-1,24
 286.426 -345 286.426 -345 387.938 -345 c 3,25,26
 513.645 -345 513.645 -345 710.6 -249 c 0,27,28
 723.574 -242.7 723.574 -242.7 730.3 -270.803 c 128,-1,29
 737.025 -298.904 737.025 -298.904 723.131 -308 c 0,30,31
 490.196 -462 490.196 -462 282.196 -462 c 3,32,33
 158.128 -462 158.128 -462 85.8438 -409.393 c 128,-1,34
 13.5586 -356.785 13.5586 -356.785 13.5586 -267.366 c 3,35,36
 13.5586 -140.585 13.5586 -140.585 131.608 -61.8926 c 128,-1,37
 249.657 16.7998 249.657 16.7998 391.006 65.9004 c 128,-1,38
 532.354 115 532.354 115 572.597 149.17 c 128,-1,39
 612.84 183.341 612.84 183.341 612.84 232.331 c 3,40,41
 612.84 295 612.84 295 488.342 295 c 0,42,43
 323.342 295 323.342 295 185.988 180 c 1,44,-1
 179.6 178 l 1,45,46
 168.744 188.283 168.744 188.283 153.906 212.642 c 0,47,48
 132.651 247.534 132.651 247.534 145.15 258 c 1,49,50
 261.063 309 261.063 309 423.334 421 c 128,-1,51
 585.604 533 585.604 533 736.457 666 c 0,52,53
 749.74 677.121 749.74 677.121 749.74 691.236 c 3,54,55
 749.74 707 749.74 707 732.427 707 c 2,56,-1
 374.427 707 l 2,57,58
 282.427 707 282.427 707 233.485 661 c 0,59,60
 213.792 642 213.792 642 164.797 570 c 0,61,62
 154.156 556.104 154.156 556.104 146.27 557 c 1,63,64
 139.047 561 139.047 561 138.603 569 c 1,65,-1
 227.502 836 l 2,66,67
 238.644 870 238.644 870 256.111 870 c 1,0,-1
EndSplineSet
EndChar

StartChar: uni01BD
Encoding: 445 445 2319
Width: 671
Flags: W
LayerCount: 2
Fore
SplineSet
494.017 84.5 m 0,0,1
 368.848 -12 368.848 -12 193.747 -12 c 259,2,3
 64.5469 -12 64.5469 -12 22.1865 30 c 0,4,5
 7.7207 43.9795 7.7207 43.9795 7.7207 54.9473 c 259,6,7
 7.7207 98.6162 7.7207 98.6162 49.9961 116 c 0,8,9
 66.4531 123 66.4531 123 91.5283 123 c 128,-1,10
 116.604 123 116.604 123 167.711 82.5 c 128,-1,11
 218.819 42 218.819 42 271.52 42 c 259,12,13
 364.17 42 364.17 42 435.235 112 c 0,14,15
 523.042 198.49 523.042 198.49 523.042 302.64 c 259,16,17
 523.042 406.788 523.042 406.788 429.881 450 c 0,18,19
 371.442 477 371.442 477 307.267 477 c 259,20,21
 243.092 477 243.092 477 174.809 465 c 1,22,-1
 162.225 466 l 1,23,24
 153.535 470 153.535 470 156.344 487 c 2,25,-1
 202.111 764 l 2,26,27
 202.54 766.597 202.54 766.597 202.54 769.007 c 0,28,29
 202.54 800 202.54 800 131.559 800 c 1,30,31
 121.17 804 121.17 804 123.872 825.5 c 128,-1,32
 126.574 847 126.574 847 139.49 848 c 1,33,-1
 544.09 848 l 1,34,-1
 617.355 849 l 1,35,-1
 629.255 849 l 2,36,37
 678.555 849 678.555 849 684.363 843 c 128,-1,38
 690.172 837 690.172 837 688.521 827 c 2,39,-1
 660.763 659 l 2,40,41
 658.944 648 658.944 648 636.42 648 c 128,-1,42
 613.895 648 613.895 648 615.713 659 c 0,43,44
 617.996 672.821 617.996 672.821 617.996 685.207 c 0,45,46
 617.996 756.161 617.996 756.161 543.054 780 c 0,47,48
 492.833 795 492.833 795 441.833 795 c 2,49,-1
 313.482 795 l 1,50,51
 292.067 794 292.067 794 288.408 777 c 2,52,-1
 256.852 586 l 2,53,54
 254.703 573 254.703 573 263.038 572 c 1,55,-1
 274.938 572 l 1,56,57
 303.483 575 303.483 575 330.684 575 c 259,58,59
 544.884 575 544.884 575 616.975 466 c 0,60,61
 645.676 421.36 645.676 421.36 645.676 381.347 c 259,62,63
 645.676 201.423 645.676 201.423 494.017 84.5 c 0,0,1
EndSplineSet
EndChar

StartChar: uni01BE
Encoding: 446 446 2320
Width: 604
Flags: W
LayerCount: 2
Fore
SplineSet
561.783 236 m 259,0,1
 561.783 124 561.783 124 474.283 48.5 c 128,-1,2
 386.783 -27 386.783 -27 270.783 -27 c 0,3,4
 216.783 -27 216.783 -27 176.283 8.5 c 128,-1,5
 135.783 44 135.783 44 135.783 82 c 0,6,7
 135.783 118 135.783 118 150.283 140 c 128,-1,8
 164.783 162 164.783 162 190.783 162 c 0,9,10
 256.783 162 256.783 162 283.283 108.5 c 128,-1,11
 309.783 55 309.783 55 368.783 55 c 0,12,13
 450.783 55 450.783 55 450.783 176 c 259,14,15
 450.783 240 450.783 240 360.783 366 c 128,-1,16
 270.783 492 270.783 492 270.783 592 c 3,17,18
 270.783 633.451 270.783 633.451 278.154 659.6 c 2,19,-1
 298 730 l 1,20,-1
 142 730 l 2,21,22
 130 730 130 730 130 749 c 0,23,24
 130 785.18 130 785.18 152 789 c 2,25,-1
 319 818 l 1,26,-1
 422 1021 l 2,27,28
 428.089 1033 428.089 1033 452 1033 c 0,29,30
 492 1033 492 1033 492 1014 c 0,31,32
 492 1012.08 492 1012.08 491 1008 c 2,33,-1
 442 808 l 1,34,-1
 666 808 l 2,35,36
 674 808 674 808 674 787.5 c 128,-1,37
 674 767 674 767 663 748.5 c 128,-1,38
 652 730 652 730 645 730 c 2,39,-1
 421 730 l 1,40,-1
 386.108 601.6 l 1,41,42
 410.19 545.227 410.19 545.227 485.987 429.129 c 128,-1,43
 561.783 313.032 561.783 313.032 561.783 236 c 259,0,1
EndSplineSet
EndChar

StartChar: uni01C2
Encoding: 450 450 2324
Width: 864
Flags: W
LayerCount: 2
Fore
SplineSet
430.077 -334 m 1,0,-1
 309.077 -334 l 1,1,-1
 450.392 393 l 1,2,-1
 114.392 393 l 1,3,-1
 133.829 493 l 1,4,-1
 469.829 493 l 1,5,-1
 502.097 659 l 1,6,-1
 166.097 659 l 1,7,-1
 185.534 759 l 1,8,-1
 521.535 759 l 1,9,-1
 652.741 1434 l 1,10,-1
 773.741 1434 l 1,11,-1
 642.535 759 l 1,12,-1
 973.535 759 l 1,13,-1
 954.097 659 l 1,14,-1
 623.097 659 l 1,15,-1
 590.829 493 l 1,16,-1
 921.829 493 l 1,17,-1
 902.392 393 l 1,18,-1
 571.392 393 l 1,19,-1
 430.077 -334 l 1,0,-1
EndSplineSet
EndChar

StartChar: uni01E4
Encoding: 484 484 359
Width: 1476
GlyphClass: 2
Flags: W
LayerCount: 2
Fore
SplineSet
1245 133 m 2,0,1
 1239 112 1239 112 1239 96.5 c 128,-1,2
 1239 81 1239 81 1256.5 78 c 128,-1,3
 1274 75 1274 75 1274 63 c 0,4,5
 1274 31 1274 31 1252 31 c 0,6,7
 1215 31 1215 31 1075 11 c 2,8,-1
 870 -18 l 2,9,10
 805 -27 805 -27 721 -27 c 0,11,12
 500 -27 500 -27 358.5 103.5 c 128,-1,13
 217 234 217 234 217 454 c 0,14,15
 217 796 217 796 503.5 1090.5 c 128,-1,16
 790 1385 790 1385 1130 1385 c 0,17,18
 1300 1385 1300 1385 1428 1356 c 128,-1,19
 1556 1327 1556 1327 1573 1327 c 1,20,21
 1573 1222 1573 1222 1514 1019 c 0,22,23
 1509 1001 1509 1001 1475.5 1001 c 128,-1,24
 1442 1001 1442 1001 1444 1014 c 0,25,26
 1449 1046 1449 1046 1449 1076 c 0,27,28
 1449 1314 1449 1314 1103 1314 c 0,29,30
 804 1314 804 1314 592 1046.5 c 128,-1,31
 380 779 380 779 380 475 c 0,32,33
 380 302 380 302 483.5 175 c 0,34,35
 588 48 588 48 780 48 c 0,36,37
 1086 48 1086 48 1120 173 c 2,38,-1
 1138 238 l 1,39,-1
 925 238 l 2,40,41
 920 238 920 238 920 260 c 128,-1,42
 920 282 920 282 934 313.5 c 128,-1,43
 948 345 948 345 956 345 c 2,44,-1
 1168 345 l 1,45,-1
 1173 363 l 2,46,47
 1182 395 1182 395 1182 412 c 0,48,49
 1182 454 1182 454 1139 466 c 128,-1,50
 1096 478 1096 478 978 478 c 0,51,52
 971 478 971 478 971 498.5 c 128,-1,53
 971 519 971 519 982.5 536.5 c 128,-1,54
 994 554 994 554 1001 554 c 0,55,56
 1076 549 1076 549 1261 549 c 128,-1,57
 1446 549 1446 549 1507 554 c 0,58,59
 1515 554 1515 554 1515 534.5 c 128,-1,60
 1515 515 1515 515 1503 496.5 c 128,-1,61
 1491 478 1491 478 1484 478 c 0,62,63
 1390 478 1390 478 1360 456.5 c 128,-1,64
 1330 435 1330 435 1310 363 c 2,65,-1
 1305 345 l 1,66,-1
 1490 345 l 2,67,68
 1496 345 1496 345 1496 323.5 c 128,-1,69
 1496 302 1496 302 1481 270 c 128,-1,70
 1466 238 1466 238 1458 238 c 2,71,-1
 1275 238 l 1,72,-1
 1245 133 l 2,0,1
EndSplineSet
Comment: "last+AD0A-71" 
Colour: ffffff
EndChar

StartChar: uni01EA
Encoding: 490 490 365
Width: 1478
GlyphClass: 2
Flags: W
AnchorPoint: "above" 1094 1415 basechar 0
LayerCount: 2
Fore
SplineSet
1371 906 m 256,0,1
 1371 1078 1371 1078 1274.5 1195.5 c 128,-1,2
 1178 1313 1178 1313 1031 1314 c 1,3,4
 874 1314 874 1314 716.5 1181 c 128,-1,5
 559 1048 559 1048 469.5 852.5 c 0,6,7
 380 656 380 656 380 456 c 0,8,9
 380 276 380 276 480.5 161 c 128,-1,10
 581 46 581 46 707 46 c 0,11,12
 918 46 918 46 1068.5 194 c 128,-1,13
 1219 342 1219 342 1295 538 c 128,-1,14
 1371 734 1371 734 1371 906 c 256,0,1
1534 886 m 0,15,16
 1539 598 1539 598 1346.5 356 c 128,-1,17
 1154 114 1154 114 946.5 32.5 c 128,-1,18
 739 -49 739 -49 655.5 -118.5 c 128,-1,19
 572 -188 572 -188 573 -272 c 0,20,21
 575 -402 575 -402 700 -402 c 0,22,23
 746 -402 746 -402 811 -373 c 1,24,25
 826 -376 826 -376 826 -390 c 0,26,27
 826 -396 826 -396 825 -398 c 0,28,29
 751 -488 751 -488 618 -488 c 0,30,31
 439 -488 439 -488 439 -310 c 0,32,33
 439 -156 439 -156 697 -27 c 1,34,35
 684 -27 684 -27 672 -27 c 0,36,37
 495 -27 495 -27 356 85 c 128,-1,38
 217 197 217 197 217 441 c 0,39,40
 217 802 217 802 493.5 1093.5 c 128,-1,41
 770 1385 770 1385 1079 1385 c 0,42,43
 1298 1385 1298 1385 1414 1240.5 c 128,-1,44
 1530 1096 1530 1096 1534 886 c 0,15,16
EndSplineSet
Ligature2: "'ccmp' Glyph Composition/Decomposition in Latin single" O uni0328
LCarets2: 1 0 
EndChar

StartChar: uni01EB
Encoding: 491 491 366
Width: 838
GlyphClass: 2
Flags: W
AnchorPoint: "above" 600 900 basechar 0
LayerCount: 2
Fore
SplineSet
707 588 m 0,0,1
 707 768 707 768 578 768 c 0,2,3
 461 768 461 768 337 577.5 c 128,-1,4
 213 387 213 387 213 231 c 0,5,6
 213 68 213 68 346 68 c 0,7,8
 455 68 455 68 581 254.5 c 128,-1,9
 707 441 707 441 707 588 c 0,0,1
819 537 m 0,10,11
 819 430 819 430 784.5 333 c 128,-1,12
 750 236 750 236 670 138.5 c 136,-1,13
 590 41 590 41 483 -1 c 128,-1,14
 376 -43 376 -43 294 -117.5 c 128,-1,15
 212 -192 212 -192 212 -272 c 0,16,17
 212 -402 212 -402 339 -402 c 0,18,19
 385 -402 385 -402 450 -373 c 1,20,21
 465 -376 465 -376 465 -390 c 0,22,23
 465 -396 465 -396 464 -398 c 0,24,25
 390 -488 390 -488 257 -488 c 0,26,27
 78 -488 78 -488 78 -310 c 0,28,29
 78 -162 78 -162 329 -27 c 1,30,31
 214 -24 214 -24 156 64 c 0,32,33
 96 156 96 156 96 305 c 0,34,35
 96 500 96 500 247 676 c 128,-1,36
 398 852 398 852 578 852 c 0,37,38
 698 852 698 852 758.5 767 c 128,-1,39
 819 682 819 682 819 537 c 0,10,11
EndSplineSet
Ligature2: "'ccmp' Glyph Composition/Decomposition in Latin single" o uni0328
LCarets2: 1 0 
EndChar

StartChar: uni01F7
Encoding: 503 503 377
Width: 1206
GlyphClass: 2
Flags: W
LayerCount: 2
Fore
SplineSet
380 85 m 2,0,1
 353 55 353 55 332 -17 c 2,2,-1
 260 -264 l 2,3,4
 234 -353 234 -353 138 -410 c 2,5,-1
 -44 -518 l 2,6,7
 -47 -520 -47 -520 -52 -520 c 0,8,9
 -73 -520 -73 -520 -88 -480 c 0,10,11
 -95 -461 -95 -461 -95 -444 c 0,12,13
 -95 -432 -95 -432 -82 -424 c 2,14,-1
 48 -342 l 2,15,16
 104 -306 104 -306 128 -224 c 2,17,-1
 529 1172 l 2,18,19
 534 1189 534 1189 534 1205 c 0,20,21
 534 1282 534 1282 372 1282 c 0,22,23
 365 1282 365 1282 365 1302.5 c 128,-1,24
 365 1323 365 1323 376 1340.5 c 128,-1,25
 387 1358 387 1358 394 1358 c 0,26,27
 526 1354 526 1354 634 1354 c 0,28,29
 960 1354 960 1354 1407 1358 c 1,30,31
 1460 1358 1460 1358 1460 1315 c 0,32,33
 1460 1297 1460 1297 1436 1270 c 2,34,-1
 380 85 l 2,0,1
437 244 m 2,35,-1
 1358 1263 l 2,36,37
 1364 1269 1364 1269 1364 1276 c 0,38,39
 1364 1282 1364 1282 1350 1282 c 2,40,-1
 729 1282 l 2,41,42
 706 1282 706 1282 698 1253 c 2,43,-1
 410 257 l 2,44,45
 409 254 409 254 409 248 c 0,46,47
 409 238 409 238 420 238 c 128,-1,48
 431 238 431 238 437 244 c 2,35,-1
EndSplineSet
Comment: "last+AD0A-47" 
Colour: ffffff
EndChar

StartChar: uni0220
Encoding: 544 544 2331
Width: 1469
Flags: W
LayerCount: 2
Fore
SplineSet
1299.54 -398 m 0,0,1
 1289.34 -436.034 1289.34 -436.034 1277.08 -436.034 c 9,2,3
 1183.94 -430 1183.94 -430 1031.44 -430 c 259,4,5
 878.943 -430 878.943 -430 762.642 -436.032 c 17,6,7
 756.14 -436.033 756.14 -436.033 756.14 -425.248 c 3,8,9
 756.14 -415.784 756.14 -415.784 760.702 -398.016 c 0,10,11
 770.717 -360 770.717 -360 783.717 -360 c 1,12,13
 971.717 -360 971.717 -360 1002.53 -245 c 2,14,-1
 1301.29 870 l 2,15,16
 1330.69 979.698 1330.69 979.698 1330.69 1060.02 c 3,17,18
 1330.69 1169.87 1330.69 1169.87 1261.09 1239.44 c 128,-1,19
 1191.5 1309 1191.5 1309 1102.92 1309 c 3,20,21
 941.689 1309 941.689 1309 829.191 1239.43 c 128,-1,22
 716.693 1169.86 716.693 1169.86 665.006 1061.03 c 128,-1,23
 613.319 952.197 613.319 952.197 576.825 816 c 2,24,-1
 407.481 184 l 2,25,26
 402.509 165.442 402.509 165.442 402.509 149.96 c 0,27,28
 402.509 95.3606 402.509 95.3606 464.347 79 c 0,29,30
 500.667 69 500.667 69 582.667 69 c 0,31,32
 590.109 69.0003 590.109 69.0003 590.109 57.363 c 3,33,34
 590.109 47.9711 590.109 47.9711 585.485 31 c 0,35,36
 574.995 -7 574.995 -7 562.303 -7 c 1,37,38
 495.911 0 495.911 0 296.411 0 c 259,39,40
 96.9111 0 96.9111 0 26.3027 -7 c 1,41,42
 16.3478 -7 16.3478 -7 16.3478 6.38481 c 0,43,44
 16.3478 15.5593 16.3478 15.5593 20.4854 31 c 0,45,46
 30.667 69 30.667 69 46.667 69 c 0,47,48
 231.667 69 231.667 69 262.481 184 c 2,49,-1
 514.89 1126 l 2,50,51
 519.48 1143.13 519.48 1143.13 519.48 1158.33 c 3,52,53
 519.48 1208.8 519.48 1208.8 474.771 1234.9 c 128,-1,54
 430.062 1261 430.062 1261 374.062 1261 c 3,55,56
 366.857 1261 366.857 1261 366.857 1273.36 c 3,57,58
 366.857 1282.96 366.857 1282.96 374.142 1309.98 c 128,-1,59
 381.427 1337 381.427 1337 394.427 1337 c 3,60,61
 442.28 1337 442.28 1337 667.771 1398 c 0,62,63
 693.647 1405 693.647 1405 708.647 1405 c 0,64,65
 742.369 1405 742.369 1405 727.93 1365 c 2,66,-1
 696.886 1279 l 2,67,68
 686.797 1250.85 686.797 1250.85 701.206 1250.85 c 3,69,70
 711.934 1250.95 711.934 1250.95 722.526 1259 c 0,71,72
 804.571 1321.33 804.571 1321.33 910.571 1352.67 c 128,-1,73
 1016.57 1384 1016.57 1384 1086.02 1384 c 3,74,75
 1301.45 1384 1301.45 1384 1381 1291.93 c 128,-1,76
 1460.54 1199.87 1460.54 1199.87 1460.54 1056.89 c 3,77,78
 1460.54 986.796 1460.54 986.796 1443.87 902 c 0,79,80
 1413.07 746 1413.07 746 1338.31 467 c 2,81,-1
 1147.53 -245 l 2,82,83
 1143.03 -261.809 1143.03 -261.809 1143.03 -276.162 c 0,84,85
 1143.03 -360 1143.03 -360 1296.72 -360 c 1,86,87
 1304.01 -360 1304.01 -360 1304.01 -372.137 c 3,88,89
 1304.01 -381.476 1304.01 -381.476 1299.54 -398 c 0,0,1
EndSplineSet
EndChar

StartChar: uni0221
Encoding: 545 545 2336
Width: 1114
Flags: W
AnchorPoint: "above" 736 1545 basechar 0
LayerCount: 2
Fore
SplineSet
710 688 m 1,0,1
 666 786 666 786 578 786 c 0,2,3
 442 786 442 786 326.5 563 c 128,-1,4
 211 340 211 340 211 180 c 0,5,6
 211 82 211 82 270 82 c 128,-1,7
 328.93 82 328.93 82 429.675 184.411 c 1,8,9
 472.198 238.892 472.198 238.892 520.405 286.472 c 1,10,11
 612.648 398.832 612.648 398.832 668 504 c 1,12,-1
 710 688 l 1,0,1
721 209 m 2,13,14
 714 180 714 180 714 162 c 3,15,16
 714 113 714 113 739 113 c 3,17,18
 808.751 113 808.751 113 875.123 151.039 c 0,19,20
 941.5 189.913 941.5 189.913 941.5 255.302 c 3,21,22
 941.5 307.5 941.5 307.5 899.804 335.25 c 128,-1,23
 858.107 363 858.107 363 803.5 363 c 3,24,25
 780.433 363 780.433 363 754.557 355.269 c 1,26,-1
 721 209 l 2,13,14
773.219 436.616 m 1,27,28
 807.877 443.155 807.877 443.155 843.869 443.155 c 3,29,30
 940.359 443.155 940.359 443.155 1006.25 383.94 c 128,-1,31
 1072.15 324.724 1072.15 324.724 1072.15 239.346 c 3,32,33
 1072.15 150.525 1072.15 150.525 970.823 61.7624 c 128,-1,34
 869.5 -27 869.5 -27 637 -27 c 3,35,36
 577 -27 577 -27 577 80 c 3,37,38
 577 103.85 577 103.85 584 135 c 2,39,-1
 615.373 274.608 l 1,40,41
 496.162 178.928 496.162 178.928 405.867 37.7139 c 0,42,43
 318.917 -98.2711 318.917 -98.2711 249.984 -276.996 c 0,44,45
 244.665 -290.788 244.665 -290.788 228.291 -290.788 c 3,46,47
 223.611 -290.788 223.611 -290.788 218.073 -289.5 c 0,48,49
 193.611 -283.81 193.611 -283.81 199.7 -266.222 c 0,50,51
 243.573 -126 243.573 -126 319.256 15.2292 c 1,52,53
 250.015 -27 250.015 -27 186 -27 c 0,54,55
 126 -27 126 -27 94.5 24.5 c 128,-1,56
 63 76 63 76 63 145 c 0,57,58
 63 358 63 358 236 605 c 128,-1,59
 409 852 409 852 604 852 c 0,60,61
 684 852 684 852 735 789 c 1,62,-1
 827 1200 l 2,63,64
 843 1271.48 843 1271.48 843 1296 c 3,65,66
 843 1378 843 1378 766 1378 c 0,67,68
 751 1378 751 1378 751 1404 c 128,-1,69
 751 1430 751 1430 766 1430 c 0,70,71
 836 1430 836 1430 914 1457.5 c 128,-1,72
 992 1485 992 1485 997 1485 c 0,73,74
 1010 1485 1010 1485 1010 1472 c 0,75,76
 1010 1468.72 1010 1468.72 1008 1460 c 2,77,-1
 773.219 436.616 l 1,27,28
EndSplineSet
EndChar

StartChar: uni0222
Encoding: 546 546 2332
Width: 1106
Flags: W
LayerCount: 2
Fore
SplineSet
1015.66 411.603 m 259,0,1
 1015.66 319.606 1015.66 319.606 953.83 225.803 c 128,-1,2
 892 132 892 132 758.502 57.5 c 128,-1,3
 625.003 -17 625.003 -17 454.259 -17 c 259,4,5
 274.7 -17 274.7 -17 178.651 58.2598 c 128,-1,6
 82.6016 133.52 82.6016 133.52 82.6016 240.241 c 259,7,8
 82.6016 509.242 82.6016 509.242 522.627 686 c 1,9,10
 404.991 762 404.991 762 359.214 824.991 c 128,-1,11
 313.437 887.983 313.437 887.983 313.437 933.282 c 259,12,13
 313.437 1010.53 313.437 1010.53 356.821 1091.53 c 128,-1,14
 400.206 1172.53 400.206 1172.53 497.206 1231.03 c 128,-1,15
 594.206 1289.53 594.206 1289.53 694.22 1304 c 1,16,17
 706 1305.93 706 1305.93 713.394 1292.78 c 128,-1,18
 720.786 1279.62 720.786 1279.62 720.786 1267.27 c 3,19,20
 720.786 1255.6 720.786 1255.6 716.727 1244.27 c 128,-1,21
 712.667 1232.93 712.667 1232.93 698.659 1231 c 1,22,23
 605.443 1219 605.443 1219 541.664 1156.31 c 128,-1,24
 477.885 1093.61 477.885 1093.61 477.885 1045.08 c 259,25,26
 477.885 984.421 477.885 984.421 538.397 919.71 c 128,-1,27
 598.91 855 598.91 855 728.938 773 c 1,28,29
 980.213 902.666 980.213 902.666 980.213 1107.65 c 259,30,31
 980.213 1199.77 980.213 1199.77 914.215 1248 c 1,32,33
 905.143 1253.73 905.143 1253.73 905.143 1265.6 c 3,34,35
 905.143 1291.9 905.143 1291.9 935.472 1323.1 c 128,-1,36
 965.802 1354.3 965.802 1354.3 988.474 1346 c 0,37,38
 1159.81 1289.67 1159.81 1289.67 1159.81 1145.87 c 259,39,40
 1159.81 1097.52 1159.81 1097.52 1132.26 1020.02 c 128,-1,41
 1104.71 942.525 1104.71 942.525 1016.91 864.911 c 128,-1,42
 929.105 787.296 929.105 787.296 783.148 729 c 1,43,44
 1015.66 583.737 1015.66 583.737 1015.66 411.603 c 259,0,1
579.837 642 m 1,45,46
 451 582 451 582 390 516 c 128,-1,47
 329 450 329 450 303.884 389.06 c 128,-1,48
 278.769 328.12 278.769 328.12 278.769 253.322 c 259,49,50
 278.769 187.493 278.769 187.493 334.724 119.747 c 128,-1,51
 390.68 52 390.68 52 506.247 52 c 259,52,53
 631.747 52 631.747 52 727.745 133.351 c 128,-1,54
 823.743 214.701 823.743 214.701 823.743 340.674 c 259,55,56
 823.743 424.941 823.743 424.941 751.926 500.266 c 128,-1,57
 680.109 575.589 680.109 575.589 579.837 642 c 1,45,46
EndSplineSet
EndChar

StartChar: uni0223
Encoding: 547 547 2333
Width: 865
Flags: W
LayerCount: 2
Fore
SplineSet
828.121 412.263 m 259,0,1
 828.121 306.478 828.121 306.478 759.345 202.777 c 128,-1,2
 690.568 99.0781 690.568 99.0781 576.059 41.5391 c 128,-1,3
 461.549 -16 461.549 -16 348.447 -16 c 259,4,5
 193.947 -16 193.947 -16 109.991 70 c 1,6,7
 51.4404 132.383 51.4404 132.383 51.4404 222.812 c 259,8,9
 51.4404 492.019 51.4404 492.019 432.225 668 c 1,10,11
 327.378 750.388 327.378 750.388 301.318 809.513 c 128,-1,12
 275.258 868.637 275.258 868.637 275.258 908.264 c 259,13,14
 275.258 1043.37 275.258 1043.37 355.232 1148.62 c 128,-1,15
 435.208 1253.87 435.208 1253.87 565.713 1308 c 0,16,17
 575.399 1312.02 575.399 1312.02 582.101 1302.95 c 128,-1,18
 588.802 1293.89 588.802 1293.89 588.906 1283.77 c 0,19,20
 588.906 1271.1 588.906 1271.1 583.537 1256.6 c 128,-1,21
 578.167 1242.1 578.167 1242.1 566.688 1237 c 1,22,23
 498.989 1212 498.989 1212 456.789 1148.11 c 128,-1,24
 414.589 1084.21 414.589 1084.21 414.589 1016.46 c 259,25,26
 414.589 948.704 414.589 948.704 456.549 892.852 c 128,-1,27
 498.509 837 498.509 837 606.269 754 c 1,28,29
 827.455 885.039 827.455 885.039 827.455 1092.08 c 259,30,31
 827.455 1175.1 827.455 1175.1 777.062 1216 c 0,32,33
 769.383 1222.08 769.383 1222.08 769.342 1236.69 c 128,-1,34
 769.302 1251.3 769.302 1251.3 794.701 1285.3 c 128,-1,35
 820.102 1319.3 820.102 1319.3 842.784 1312 c 1,36,37
 976.362 1258.64 976.362 1258.64 976.362 1127.43 c 259,38,39
 976.362 1019.16 976.362 1019.16 901.657 906.036 c 128,-1,40
 826.953 792.914 826.953 792.914 648.747 711 c 1,41,42
 828.121 572.246 828.121 572.246 828.121 412.263 c 259,0,1
214.295 240.709 m 259,43,44
 214.295 178.984 214.295 178.984 257.588 114.992 c 128,-1,45
 300.88 51 300.88 51 393.9 51 c 259,46,47
 498.9 51 498.9 51 582.811 133.309 c 128,-1,48
 666.722 215.617 666.722 215.617 666.722 343.117 c 259,49,50
 666.722 462.854 666.722 462.854 501.344 605 c 1,51,-1
 477.703 625 l 1,52,53
 345.775 558.729 345.775 558.729 280.035 457.028 c 128,-1,54
 214.295 355.328 214.295 355.328 214.295 240.709 c 259,43,44
EndSplineSet
EndChar

StartChar: uni0224
Encoding: 548 548 2334
Width: 1199
Flags: W
LayerCount: 2
Fore
SplineSet
1064.84 -61.8885 m 3,0,1
 1064.84 -159.52 1064.84 -159.52 997.778 -240.859 c 128,-1,2
 930.71 -322.198 930.71 -322.198 827.688 -369 c 0,3,4
 825.686 -369.663 825.686 -369.663 823.75 -369.663 c 3,5,6
 815.308 -369.663 815.308 -369.663 808.168 -353.832 c 0,7,8
 804.225 -344.914 804.225 -344.914 804.225 -339.124 c 3,9,10
 804.225 -332.523 804.225 -332.523 810.138 -330 c 0,11,12
 872.643 -302.438 872.643 -302.438 915.722 -229.638 c 128,-1,13
 958.8 -156.839 958.8 -156.839 958.8 -99.8885 c 3,14,15
 958.8 -62.5116 958.8 -62.5116 920.994 -35.8794 c 128,-1,16
 883.188 -9.24718 883.188 -9.24718 829 -7.81055 c 0,17,18
 660.961 0 660.961 0 317 0 c 2,19,-1
 -35 0 l 2,20,21
 -55 0 -55 0 -55 20 c 128,-1,22
 -55 40.178 -55 40.178 -44 51 c 2,23,-1
 1192 1267 l 2,24,25
 1201 1275.85 1201 1275.85 1201 1282.5 c 128,-1,26
 1201 1289 1201 1289 1181 1289 c 2,27,-1
 609 1289 l 2,28,29
 566 1289 566 1289 517 1253.5 c 128,-1,30
 468 1218 468 1218 400 1125 c 0,31,32
 329.756 1029.51 329.756 1029.51 302 974 c 0,33,34
 296 962 296 962 275 969 c 128,-1,35
 254 976 254 976 259 988 c 0,36,37
 335.745 1169.2 335.745 1169.2 392 1345 c 0,38,39
 400 1370 400 1370 428 1366 c 2,40,-1
 456 1362 l 2,41,42
 539.96 1350.01 539.96 1350.01 710.5 1350.5 c 0,43,44
 905.843 1351.07 905.843 1351.07 1043 1354 c 2,45,-1
 1417 1362 l 17,46,47
 1434 1362 1434 1362 1434 1347 c 128,-1,48
 1434 1331.84 1434 1331.84 1418 1316 c 2,49,-1
 201 111 l 2,50,51
 193 103.079 193 103.079 193 86 c 128,-1,52
 193 69 193 69 215 69 c 0,53,54
 605.03 69 605.03 69 819 79.7461 c 10,55,-1
 934.875 84.1123 l 17,56,57
 992.208 84.1123 992.208 84.1123 1028.53 45.9493 c 128,-1,58
 1064.84 7.78639 1064.84 7.78639 1064.84 -61.8885 c 3,0,1
EndSplineSet
EndChar

StartChar: uni0225
Encoding: 549 549 2335
Width: 792
Flags: W
LayerCount: 2
Fore
SplineSet
774 -137 m 3,0,1
 774 -234.394 774 -234.394 706.51 -299.839 c 128,-1,2
 639.02 -365.283 639.02 -365.283 598 -387 c 1,3,4
 595.64 -388.314 595.64 -388.314 593.102 -388.314 c 3,5,6
 583.948 -388.314 583.948 -388.314 572.5 -373.05 c 0,7,8
 563.858 -361.45 563.858 -361.45 563.858 -353.8 c 3,9,10
 563.858 -348.425 563.858 -348.425 568 -345 c 1,11,12
 649.75 -288.3 649.75 -288.3 649.75 -200.965 c 259,13,14
 649.75 -97.8 649.75 -97.8 536.125 -35.55 c 128,-1,15
 422.5 26.7 422.5 26.7 248 66 c 1,16,17
 165.333 66 165.333 66 106 -23 c 0,18,19
 102 -29 102 -29 92 -29 c 3,20,21
 64.8462 -29 64.8462 -29 42 4 c 0,22,23
 33 17 33 17 33 23 c 3,24,25
 33 27.6596 33 27.6596 36 31 c 2,26,-1
 600 659 l 2,27,28
 609 669.021 609 669.021 609 677 c 0,29,30
 609 693 609 693 569 705 c 0,31,32
 437 745 437 745 328 745 c 0,33,34
 238 745 238 745 238 688 c 0,35,36
 238 675 238 675 257 650 c 128,-1,37
 276 625 276 625 276 596 c 0,38,39
 276 532 276 532 215 532 c 0,40,41
 137 532 137 532 137 612 c 0,42,43
 137 680 137 680 215.5 761 c 128,-1,44
 294 842 294 842 420 842 c 0,45,46
 482 842 482 842 572 814 c 128,-1,47
 662 786 662 786 707 786 c 0,48,49
 759.222 786 759.222 786 782 811 c 2,50,-1
 823 856 l 2,51,52
 827.556 861 827.556 861 837 861 c 3,53,54
 859 861 859 861 872 840 c 8,55,56
 877 832 877 832 877 825 c 3,57,58
 877 820.325 877 820.325 874 817 c 2,59,-1
 283 162 l 1,60,-1
 285 154 l 1,61,-1
 328 151 l 2,62,63
 484.064 140.112 484.064 140.112 629.032 64.159 c 152,-1,64
 774 -11.7938 774 -11.7938 774 -137 c 3,0,1
EndSplineSet
EndChar

StartChar: uni0228
Encoding: 552 552 420
Width: 1255
GlyphClass: 2
Flags: W
LayerCount: 2
Fore
SplineSet
742 -251.5 m 128,-1,1
 742 -322 742 -322 676 -370.5 c 128,-1,2
 610 -419 610 -419 533 -419 c 0,3,4
 431 -419 431 -419 431 -353 c 0,5,6
 431 -304 431 -304 482 -304 c 0,7,8
 502 -304 502 -304 532 -334 c 128,-1,9
 562 -364 562 -364 574 -364 c 0,10,11
 631 -364 631 -364 631 -294 c 0,12,13
 631 -231 631 -231 540 -182 c 0,14,15
 519 -171 519 -171 532 -152 c 2,16,-1
 645 -2 l 1,17,18
 474 0 474 0 340 -0 c 0,19,20
 161 0 161 0 29 -7 c 0,21,22
 21 -7 21 -7 21 11 c 128,-1,23
 21 29 21 29 32 49 c 128,-1,24
 43 69 43 69 49 69 c 0,25,26
 144 69 144 69 192 90 c 128,-1,27
 240 111 240 111 262 186 c 2,28,-1
 545 1172 l 2,29,30
 549 1186 549 1186 549 1205 c 0,31,32
 549 1282 549 1282 392 1282 c 0,33,34
 384 1282 384 1282 384 1301.5 c 128,-1,35
 384 1321 384 1321 395 1339.5 c 128,-1,36
 406 1358 406 1358 412 1358 c 0,37,38
 545 1354 545 1354 687.5 1354 c 128,-1,39
 830 1354 830 1354 1014.5 1356 c 128,-1,40
 1199 1358 1199 1358 1343 1358 c 0,41,42
 1405 1358 1405 1358 1405 1336 c 0,43,44
 1405 1331 1405 1331 1402 1320 c 2,45,-1
 1314 1010 l 2,46,47
 1310 996 1310 996 1270.5 996 c 128,-1,48
 1231 996 1231 996 1234 1010 c 0,49,50
 1245 1066 1245 1066 1245 1088 c 0,51,52
 1245 1183 1245 1183 1181 1230 c 128,-1,53
 1117 1277 1117 1277 1054 1280 c 0,54,55
 841 1289 841 1289 751 1289 c 0,56,57
 722 1289 722 1289 716 1267 c 2,58,-1
 556 713 l 2,59,60
 554 704 554 704 554 698 c 0,61,62
 554 676 554 676 583 676 c 2,63,-1
 775 676 l 2,64,65
 844 676 844 676 866 688 c 0,66,67
 901 706 901 706 917 764 c 2,68,-1
 944 864 l 2,69,70
 948 879 948 879 984 879 c 128,-1,71
 1020 879 1020 879 1017 864 c 1,72,73
 929 613 929 613 894 436 c 0,74,75
 890 421 890 421 856.5 421 c 128,-1,76
 823 421 823 421 827 437 c 2,77,-1
 852 527 l 2,78,79
 859 552 859 552 859 566 c 0,80,81
 859 607 859 607 756 607 c 2,82,-1
 558 607 l 2,83,84
 525 607 525 607 518 581 c 2,85,-1
 437 300 l 2,86,87
 410 206 410 206 410 160 c 0,88,89
 410 61 410 61 524 61 c 1,90,-1
 764 69 l 2,91,92
 997 77 997 77 1092 344 c 0,93,94
 1097 358 1097 358 1138 358 c 128,-1,95
 1179 358 1179 358 1175 344 c 2,96,-1
 1081 19 l 2,97,98
 1073 -7 1073 -7 1053 -7 c 0,99,100
 1008 -8 1008 -8 764 -4 c 0,101,102
 737 -4 737 -4 711 -3 c 1,103,-1
 656 -75 l 2,104,105
 638 -98 638 -98 666 -120 c 0,106,0
 742 -181 742 -181 742 -251.5 c 128,-1,1
EndSplineSet
EndChar

StartChar: uni0237
Encoding: 567 567 1335
Width: 420
Flags: W
AnchorPoint: "above" 380 900 basechar 0
LayerCount: 2
Fore
SplineSet
285 139 m 2,0,1
 259 27 259 27 207 -143.5 c 128,-1,2
 155 -314 155 -314 45.5 -433.5 c 128,-1,3
 -64 -553 -64 -553 -231 -553 c 0,4,5
 -263 -553 -263 -553 -284 -527.5 c 128,-1,6
 -305 -502 -305 -502 -305 -477 c 0,7,8
 -305 -448 -305 -448 -278.5 -433 c 128,-1,9
 -252 -418 -252 -418 -223 -418 c 0,10,11
 -192 -418 -192 -418 -164 -442.5 c 128,-1,12
 -136 -467 -136 -467 -113 -467 c 0,13,14
 -44 -467 -44 -467 5.5 -401 c 128,-1,15
 55 -335 55 -335 72 -260 c 2,16,-1
 274 623 l 2,17,18
 279 645 279 645 279 659 c 0,19,20
 279 702 279 702 247.5 702 c 128,-1,21
 216 702 216 702 143 610 c 0,22,23
 131 596 131 596 107 630 c 0,24,25
 102 637 102 637 103 643 c 0,26,27
 103 646 103 646 104 649 c 0,28,29
 256 852 256 852 358 852 c 0,30,31
 419 852 419 852 419 755 c 0,32,33
 419 725 419 725 412 694 c 2,34,-1
 285 139 l 2,0,1
EndSplineSet
EndChar

StartChar: uni0250
Encoding: 592 592 432
Width: 759
GlyphClass: 2
Flags: W
LayerCount: 2
Fore
SplineSet
341 642 m 2,0,-1
 299 427 l 2,1,2
 298 422 298 422 298 414 c 0,3,4
 298 404 298 404 307 404.5 c 128,-1,5
 316 405 316 405 323 409 c 0,6,7
 461 470 461 470 526 529 c 128,-1,8
 591 588 591 588 591 677 c 3,9,10
 591 724 591 724 564.5 743.5 c 128,-1,11
 538 763 538 763 486 763 c 259,12,13
 442 763 442 763 395 720.5 c 128,-1,14
 348 678 348 678 341 642 c 2,0,-1
673 251 m 0,15,16
 673 189 673 189 615 126 c 128,-1,17
 557 63 557 63 469.5 17 c 128,-1,18
 382 -29 382 -29 281 -29 c 259,19,20
 181 -29 181 -29 148 9.5 c 128,-1,21
 115 48 115 48 115 91 c 0,22,23
 115 100 115 100 117 110 c 2,24,-1
 221 642 l 2,25,26
 226 668 226 668 226 692 c 3,27,28
 226 757 226 757 176 757 c 3,29,30
 171 757 171 757 97 720 c 0,31,32
 93 718 93 718 85.5 718 c 128,-1,33
 78 718 78 718 71.5 729.5 c 128,-1,34
 65 741 65 741 64.5 745 c 128,-1,35
 64 749 64 749 68 753 c 0,36,37
 122 816 122 816 169.5 840 c 128,-1,38
 217 864 217 864 258 864 c 3,39,40
 333 864 333 864 343 728 c 1,41,42
 426 798 426 798 480.5 831 c 128,-1,43
 535 864 535 864 597 864 c 3,44,45
 649 864 649 864 686 829 c 128,-1,46
 723 794 723 794 723 722 c 3,47,48
 723 647 723 647 690 585 c 128,-1,49
 657 523 657 523 563 476 c 2,50,-1
 306 347 l 2,51,52
 281 334 281 334 277 315 c 2,53,-1
 242 134 l 2,54,55
 240 124 240 124 240 115 c 0,56,57
 240 46 240 46 350 46 c 259,58,59
 460 46 460 46 506 96 c 0,60,61
 515 106 515 106 530.5 158.5 c 128,-1,62
 546 211 546 211 550 220 c 0,63,64
 582 288 582 288 627 288 c 259,65,66
 673 288 673 288 673 251 c 0,15,16
EndSplineSet
EndChar

StartChar: uni0254
Encoding: 596 596 436
Width: 631
GlyphClass: 2
Flags: W
AnchorPoint: "above" 514 900 basechar 0
LayerCount: 2
Fore
SplineSet
199 712 m 0,0,1
 339 852 339 852 482 852 c 0,2,3
 574 852 574 852 629.5 772.5 c 128,-1,4
 685 693 685 693 685 569 c 0,5,6
 685 366 685 366 541.5 169.5 c 128,-1,7
 398 -27 398 -27 226 -27 c 0,8,9
 164 -27 164 -27 113 2.5 c 128,-1,10
 62 32 62 32 62 71 c 0,11,12
 62 103 62 103 87 125.5 c 128,-1,13
 112 148 112 148 138 148 c 0,14,15
 165 148 165 148 175 129 c 1,16,17
 184 72 184 72 190 63 c 0,18,19
 210 37 210 37 279 37 c 0,20,21
 369 37 369 37 459 198.5 c 128,-1,22
 549 360 549 360 550 501 c 0,23,24
 550 622 550 622 512.5 692 c 128,-1,25
 475 762 475 762 414 762 c 0,26,27
 351 762 351 762 313.5 740.5 c 128,-1,28
 276 719 276 719 232 680 c 0,29,30
 227 676 227 676 214 679.5 c 128,-1,31
 201 683 201 683 197.5 694.5 c 128,-1,32
 194 706 194 706 199 712 c 0,0,1
EndSplineSet
EndChar

StartChar: uni0256
Encoding: 598 598 438
Width: 958
GlyphClass: 2
Flags: W
LayerCount: 2
Fore
SplineSet
624 -196 m 2,0,1
 604 -283 604 -283 604 -337 c 259,2,3
 604 -471 604 -471 681 -471 c 3,4,5
 704 -471 704 -471 755 -432 c 128,-1,6
 806 -393 806 -393 853 -393 c 259,7,8
 883 -393 883 -393 900 -408 c 0,9,10
 917 -422 917 -422 917 -446 c 3,11,12
 917 -492 917 -492 867 -525.5 c 128,-1,13
 817 -559 817 -559 763 -559 c 259,14,15
 635 -559 635 -559 578.5 -478.5 c 128,-1,16
 522 -398 522 -398 522 -214 c 259,17,18
 522 -139 522 -139 584 135 c 10,19,-1
 624 313 l 1,20,-1
 610 324 l 1,21,22
 508 175 508 175 396.5 74 c 128,-1,23
 285 -27 285 -27 186 -27 c 0,24,25
 126 -27 126 -27 94.5 24.5 c 128,-1,26
 63 76 63 76 63 145 c 0,27,28
 63 358 63 358 236 605 c 128,-1,29
 409 852 409 852 604 852 c 0,30,31
 684 852 684 852 735 789 c 1,32,-1
 827 1200 l 2,33,34
 843 1271 843 1271 843 1296 c 0,35,36
 843 1378 843 1378 766 1378 c 0,37,38
 751 1378 751 1378 751 1404 c 128,-1,39
 751 1430 751 1430 766 1430 c 0,40,41
 836 1430 836 1430 914 1457.5 c 128,-1,42
 992 1485 992 1485 997 1485 c 0,43,44
 1010 1485 1010 1485 1010 1472 c 0,45,46
 1010 1469 1010 1469 1008 1460 c 2,47,-1
 624 -196 l 2,0,1
710 688 m 1,48,49
 666 786 666 786 578 786 c 0,50,51
 442 786 442 786 326.5 563 c 128,-1,52
 211 340 211 340 211 180 c 0,53,54
 211 82 211 82 270 82 c 0,55,56
 340 82 340 82 469 226.5 c 128,-1,57
 598 371 598 371 668 504 c 2,58,-1
 710 688 l 1,48,49
EndSplineSet
EndChar

StartChar: uni0257
Encoding: 599 599 439
Width: 952
GlyphClass: 2
Flags: W
LayerCount: 2
Fore
SplineSet
938 1157 m 10,0,-1
 721 209 l 2,1,2
 714 180 714 180 714 162 c 0,3,4
 714 113 714 113 739 113 c 0,5,6
 787 113 787 113 872 207 c 24,7,8
 875 210 875 210 888 205 c 128,-1,9
 901 200 901 200 909 187 c 128,-1,10
 917 174 917 174 913 170 c 0,11,12
 739 -27 739 -27 637 -27 c 0,13,14
 577 -27 577 -27 577 80 c 0,15,16
 577 104 577 104 584 135 c 2,17,-1
 624 313 l 1,18,-1
 610 324 l 1,19,20
 508 175 508 175 396.5 74 c 128,-1,21
 285 -27 285 -27 186 -27 c 0,22,23
 126 -27 126 -27 94.5 24.5 c 128,-1,24
 63 76 63 76 63 145 c 0,25,26
 63 358 63 358 236 605 c 128,-1,27
 409 852 409 852 604 852 c 0,28,29
 684 852 684 852 735 789 c 1,30,-1
 747 843 l 18,31,32
 822 1180 822 1180 942.5 1318.5 c 128,-1,33
 1063 1457 1063 1457 1224 1457 c 3,34,35
 1260 1457 1260 1457 1282 1445.5 c 128,-1,36
 1304 1434 1304 1434 1317.5 1416.5 c 0,37,38
 1331 1400 1331 1400 1331 1384 c 3,39,40
 1331 1335 1331 1335 1300.5 1313 c 128,-1,41
 1270 1291 1270 1291 1239 1291 c 3,42,43
 1189 1291 1189 1291 1157 1330 c 128,-1,44
 1125 1369 1125 1369 1101 1369 c 3,45,46
 986 1369 986 1369 938 1157 c 10,0,-1
710 688 m 1,47,48
 666 786 666 786 578 786 c 0,49,50
 442 786 442 786 326.5 563 c 128,-1,51
 211 340 211 340 211 180 c 0,52,53
 211 82 211 82 270 82 c 0,54,55
 340 82 340 82 469 226.5 c 128,-1,56
 598 371 598 371 668 504 c 2,57,-1
 710 688 l 1,47,48
EndSplineSet
EndChar

StartChar: uni0258
Encoding: 600 600 440
Width: 824
GlyphClass: 2
Flags: W
LayerCount: 2
Fore
SplineSet
489 811 m 0,0,1
 421 811 421 811 353.5 743.5 c 128,-1,2
 286 676 286 676 286 627 c 0,3,4
 286 616 286 616 298 616 c 2,5,-1
 619 616 l 2,6,7
 648 616 648 616 648 635 c 0,8,9
 648 637 648 637 646 645 c 0,10,11
 616 811 616 811 489 811 c 0,0,1
132 587 m 0,12,13
 132 660 132 660 246 765 c 128,-1,14
 360 870 360 870 478 870 c 256,15,16
 607 870 607 870 685.5 768.5 c 128,-1,17
 764 667 764 667 764 527 c 0,18,19
 764 482 764 482 732 355 c 128,-1,20
 700 228 700 228 585 102.5 c 128,-1,21
 470 -23 470 -23 330 -23 c 0,22,23
 176 -23 176 -23 45 117 c 0,24,25
 43 119 43 119 43 124 c 2,26,-1
 43 127 l 2,27,28
 43 158 43 158 78 158 c 0,29,30
 81 158 81 158 88 154 c 0,31,32
 222 76 222 76 288 76 c 0,33,34
 424 76 424 76 516 210 c 128,-1,35
 608 344 608 344 641 483 c 0,36,37
 645 502 645 502 644.5 525.5 c 128,-1,38
 644 549 644 549 623 549 c 2,39,-1
 174 549 l 2,40,41
 132 549 132 549 132 587 c 0,12,13
EndSplineSet
EndChar

StartChar: uni0259
Encoding: 601 601 441
Width: 838
GlyphClass: 2
Flags: W
LayerCount: 2
Fore
SplineSet
601 299 m 2,0,1
 657 299 657 299 657 459 c 3,2,3
 657 611 657 611 592 694.5 c 128,-1,4
 527 778 527 778 423 778 c 259,5,6
 277 778 277 778 191 692 c 0,7,8
 189 690 189 690 181 690 c 0,9,10
 157 690 157 690 157 711 c 0,11,12
 157 723 157 723 164 729 c 0,13,14
 346 868 346 868 511 868 c 0,15,16
 640 868 640 868 715.5 762.5 c 128,-1,17
 791 657 791 657 791 519 c 0,18,19
 791 279 791 279 606 106 c 0,20,21
 468 -23 468 -23 328 -23 c 0,22,23
 190 -23 190 -23 111 86 c 0,24,25
 59 158 59 158 61 216 c 0,26,27
 64 299 64 299 126 299 c 2,28,-1
 601 299 l 2,0,1
223 231 m 2,29,30
 204 231 204 231 204 183.5 c 128,-1,31
 204 136 204 136 247.5 86.5 c 128,-1,32
 291 37 291 37 339 37 c 0,33,34
 488 37 488 37 594 203 c 0,35,36
 601 214 601 214 601 218 c 0,37,38
 601 231 601 231 580 231 c 2,39,-1
 223 231 l 2,29,30
EndSplineSet
EndChar

StartChar: uni025B
Encoding: 603 603 443
Width: 730
GlyphClass: 2
Flags: W
AnchorPoint: "above" 562 900 basechar 0
LayerCount: 2
Fore
SplineSet
318 766 m 0,0,1
 412 852 412 852 544 852 c 0,2,3
 617 852 617 852 682 822 c 0,4,5
 738 797 738 797 738 754 c 0,6,7
 738 722 738 722 710.5 699.5 c 128,-1,8
 683 677 683 677 654 677 c 0,9,10
 624 677 624 677 613 696 c 1,11,12
 603 755 603 755 597 762 c 0,13,14
 575 788 575 788 518 788 c 0,15,16
 452 788 452 788 414 758 c 0,17,18
 350 711 350 711 350 637 c 0,19,20
 350 555 350 555 372.5 520.5 c 128,-1,21
 395 486 395 486 435 486 c 0,22,-1
 492 486 l 2,23,24
 500 486 500 486 500 462 c 0,25,26
 500 445 500 445 484 429 c 0,27,28
 482 427 482 427 479 427 c 2,29,-1
 392 427 l 2,30,31
 306 427 306 427 265 360 c 0,32,33
 228 300 228 300 228 222 c 0,34,35
 228 152 228 152 275 105 c 0,36,37
 306 72 306 72 362 72 c 8,38,39
 433 72 433 72 579 197 c 0,40,41
 586 203 586 203 598.5 197.5 c 0,42,43
 610 192 610 192 612 180 c 128,-1,44
 614 168 614 168 610 164 c 0,45,46
 444 -27 444 -27 308 -27 c 0,47,48
 204 -27 204 -27 162 25 c 0,49,50
 95 107 95 107 96 190 c 0,51,52
 96 398 96 398 285 468 c 1,53,54
 242 524 242 524 242 588 c 0,55,56
 242 695 242 695 318 766 c 0,0,1
EndSplineSet
EndChar

StartChar: uni025C
Encoding: 604 604 444
Width: 716
GlyphClass: 2
Flags: W
LayerCount: 2
Fore
SplineSet
672 673 m 3,0,1
 672 498 672 498 530 439 c 1,2,3
 638 368 638 368 638 252 c 3,4,5
 638 130 638 130 538.5 53.5 c 128,-1,6
 439 -23 439 -23 279 -23 c 256,7,8
 124 -23 124 -23 2 99 c 0,9,10
 -1 102 -1 102 -1 112 c 128,-1,11
 -1 122 -1 122 17.5 138.5 c 128,-1,12
 36 155 36 155 40 155 c 128,-1,13
 44 155 44 155 46 154 c 0,14,15
 171 77 171 77 256 77 c 256,16,17
 372 77 372 77 439 134 c 128,-1,18
 506 191 506 191 506 275 c 259,19,20
 506 359 506 359 460 393 c 128,-1,21
 414 427 414 427 360 427 c 2,22,-1
 273 427 l 2,23,24
 263 427 263 427 263 450.5 c 128,-1,25
 263 474 263 474 271.5 480 c 128,-1,26
 280 486 280 486 282 486 c 2,27,-1
 382 486 l 2,28,29
 482 486 482 486 522.5 543 c 128,-1,30
 563 600 563 600 563 667 c 259,31,32
 563 726 563 726 528.5 768.5 c 128,-1,33
 494 811 494 811 445 811 c 259,34,35
 334 811 334 811 256 736 c 0,36,37
 233 714 233 714 206 682 c 1,38,39
 155 686 155 686 155 764 c 0,40,41
 155 809 155 809 215 837 c 0,42,43
 285 870 285 870 418 870 c 259,44,45
 542 870 542 870 607 812.5 c 128,-1,46
 672 755 672 755 672 673 c 3,0,1
EndSplineSet
EndChar
